{"glyphs":{"0":{"ha":842,"x_min":44,"x_max":797,"o":"m 356 -8 q 192 47 263 -8 q 83 201 121 103 q 50 425 44 299 q 80 608 54 519 q 151 765 106 696 q 260 876 197 835 q 400 917 324 917 q 513 902 456 917 q 623 853 571 888 q 715 764 675 819 q 776 627 754 708 q 792 435 797 546 q 760 274 788 346 q 688 150 733 203 q 586 62 642 97 q 472 9 531 26 q 356 -8 413 -8 m 126 203 l 81 353 q 372 513 214 447 q 708 622 531 579 l 764 454 q 435 367 594 432 q 126 203 276 303 m 389 200 q 463 216 425 200 q 531 265 500 232 q 583 347 563 297 q 607 461 604 396 q 594 583 610 533 q 551 663 579 633 q 488 705 524 692 q 417 718 453 718 q 349 696 381 718 q 292 635 317 674 q 253 547 268 597 q 236 440 239 497 q 251 311 233 365 q 306 228 269 257 q 389 200 342 200 z "},"1":{"ha":576,"x_min":47,"x_max":528,"o":"m 425 6 q 365 24 388 7 q 333 62 343 40 q 321 99 324 83 q 318 115 318 115 q 309 238 313 169 q 305 378 306 306 q 306 519 304 450 q 313 647 307 589 l 199 549 q 189 543 199 549 q 163 535 179 538 q 126 535 147 532 q 82 557 106 539 q 53 594 58 576 q 50 627 47 613 q 58 651 53 642 q 64 660 64 660 l 279 833 q 376 890 329 879 q 456 893 424 901 q 497 871 483 886 q 518 839 511 856 q 526 810 525 822 q 528 799 528 799 q 519 675 522 743 q 517 532 517 607 q 518 381 517 457 q 522 231 519 304 q 526 93 524 157 q 524 79 526 93 q 514 48 522 65 q 485 18 506 31 q 425 6 464 6 z "},"2":{"ha":694,"x_min":49,"x_max":646,"o":"m 207 0 q 164 8 186 0 q 124 33 142 17 q 99 73 106 50 q 103 122 92 96 q 268 392 206 281 q 356 575 331 503 q 372 685 381 647 q 347 723 364 707 q 304 740 331 739 q 241 724 269 738 q 192 692 213 710 q 181 686 192 692 q 155 676 171 681 q 119 675 139 672 q 76 696 99 678 q 53 726 58 713 q 50 753 49 740 q 57 774 51 765 q 67 786 63 782 q 133 846 97 821 q 214 885 168 871 q 321 903 260 900 q 441 869 386 900 q 533 788 496 839 q 583 677 569 738 q 582 556 597 617 q 552 459 569 507 q 511 363 535 411 q 456 263 488 314 q 383 158 424 213 l 557 158 q 569 156 557 158 q 599 144 582 153 q 630 121 617 136 q 644 82 643 106 q 637 46 646 60 q 615 24 628 32 q 594 13 603 15 q 585 10 585 10 l 207 0 z "},"3":{"ha":654,"x_min":49,"x_max":611,"o":"m 364 10 q 292 16 331 8 q 217 40 254 24 q 146 77 179 56 q 89 126 113 99 q 79 137 89 126 q 60 165 69 147 q 49 203 50 182 q 68 246 49 225 q 106 269 85 265 q 145 267 126 272 q 177 256 164 263 q 190 250 190 250 q 235 217 215 232 q 278 191 256 201 q 329 178 300 181 q 374 200 358 183 q 395 238 389 217 q 399 283 401 260 q 390 326 397 307 q 338 386 378 364 q 246 425 299 408 q 217 445 229 429 q 203 481 206 461 q 215 517 201 500 q 258 540 228 533 q 284 549 267 543 q 326 568 301 556 q 375 603 350 581 q 396 644 389 618 q 399 697 403 671 q 375 738 394 724 q 326 748 357 747 q 260 744 296 749 q 188 731 224 739 q 177 732 188 731 q 152 738 167 733 q 122 751 138 742 q 97 776 107 760 q 88 813 86 797 q 97 838 89 828 q 111 853 104 847 q 118 858 118 858 q 209 894 168 882 q 290 904 250 906 q 351 901 317 906 q 419 885 385 896 q 482 854 453 875 q 545 789 519 829 q 583 702 571 749 q 588 611 594 656 q 557 532 582 567 q 538 509 551 522 q 513 484 525 496 q 492 467 500 472 q 535 426 513 450 q 576 367 557 403 q 603 282 596 332 q 593 165 611 215 q 539 79 575 114 q 457 27 503 44 q 364 10 411 10 z "},"4":{"ha":710,"x_min":44,"x_max":660,"o":"m 568 6 q 510 19 532 6 q 475 51 488 33 q 458 83 463 69 q 453 97 453 97 q 444 211 447 157 q 440 316 442 265 q 439 416 439 367 q 439 516 439 465 q 442 621 439 567 l 315 485 q 297 458 308 474 q 281 431 286 442 q 281 418 275 421 l 490 435 l 513 275 q 416 266 461 269 q 322 263 371 263 q 214 264 274 263 q 110 299 147 274 q 58 358 72 325 q 51 428 44 392 q 79 493 58 464 q 200 626 146 569 q 301 728 254 683 q 402 824 354 783 q 483 888 450 865 q 539 903 508 903 q 597 893 569 904 q 642 860 624 882 q 660 810 660 839 q 651 685 654 753 q 648 541 649 617 q 649 388 647 465 q 652 234 650 310 q 658 90 654 158 q 657 77 658 90 q 649 47 656 64 q 623 18 642 31 q 568 6 604 6 z "},"5":{"ha":668,"x_min":49,"x_max":621,"o":"m 331 11 q 241 23 288 11 q 152 59 194 35 q 78 121 110 83 q 70 130 78 121 q 56 153 63 139 q 53 187 50 168 q 78 225 56 206 q 123 246 100 244 q 161 242 146 247 q 176 236 176 236 q 235 203 203 221 q 292 178 268 185 q 358 197 332 179 q 399 238 385 214 q 413 282 413 263 q 410 318 414 296 q 399 362 407 340 q 376 396 390 383 q 340 404 361 408 l 200 365 q 159 363 182 361 q 115 375 136 365 q 79 404 94 385 q 61 454 64 424 q 54 609 57 536 q 50 737 51 682 q 50 818 49 792 q 56 838 53 825 q 67 863 58 850 q 97 885 76 876 q 151 893 117 893 l 492 893 q 502 891 492 893 q 528 883 513 889 q 558 867 543 878 q 582 838 572 857 q 590 793 592 819 q 576 755 589 768 q 547 737 563 742 q 518 732 531 732 q 506 732 506 732 l 238 740 q 244 662 240 714 q 250 561 247 610 q 332 567 297 568 q 399 558 367 565 q 463 535 431 550 q 555 463 519 507 q 606 369 590 419 q 618 269 621 318 q 597 182 615 219 q 528 88 571 125 q 435 31 486 50 q 331 11 383 11 z "},"6":{"ha":806,"x_min":49,"x_max":763,"o":"m 388 10 q 149 147 236 49 q 50 393 61 246 q 73 588 49 501 q 139 738 97 675 q 232 841 181 801 q 333 893 283 881 q 522 900 429 917 q 699 829 615 883 q 707 820 699 829 q 724 795 715 811 q 733 759 732 779 q 719 718 735 739 q 694 698 708 703 q 664 694 679 693 q 639 697 649 694 q 629 699 629 699 q 525 723 576 714 q 415 719 474 732 q 360 678 385 704 q 318 617 335 651 q 307 589 315 607 q 292 549 299 571 q 285 507 286 528 q 428 515 361 519 q 567 489 494 511 q 697 409 650 463 q 753 292 743 356 q 733 169 763 228 q 655 69 707 107 q 533 18 603 32 q 388 10 464 4 m 418 188 q 481 205 457 189 q 518 246 506 221 q 457 333 538 310 q 376 335 419 342 q 288 311 333 328 q 313 249 294 276 q 359 206 332 222 q 418 188 386 190 z "},"7":{"ha":668,"x_min":47,"x_max":618,"o":"m 518 6 q 463 21 483 7 q 430 53 442 35 q 415 85 418 71 q 411 99 411 99 q 402 244 406 163 q 398 415 399 326 q 399 589 397 504 q 404 744 400 674 q 321 747 361 749 q 240 741 281 744 q 151 735 200 738 q 138 735 151 735 q 106 739 125 735 q 72 755 88 743 q 51 790 57 767 q 54 831 47 815 q 73 854 61 846 q 95 866 85 863 q 106 869 106 869 q 238 899 168 890 q 381 909 308 908 q 519 900 453 910 q 577 879 557 896 q 606 842 597 863 q 617 808 615 822 q 618 793 618 793 q 610 670 613 738 q 608 530 608 603 q 608 381 607 457 q 612 232 610 306 q 618 90 614 158 q 615 77 618 90 q 603 47 613 64 q 574 18 594 31 q 518 6 553 6 z "},"8":{"ha":761,"x_min":49,"x_max":713,"o":"m 389 374 q 258 390 319 374 q 150 436 197 406 q 76 511 103 467 q 49 610 49 556 q 67 718 49 665 q 124 815 85 771 q 226 883 164 858 q 378 906 289 908 q 507 883 446 904 q 614 825 568 861 q 686 742 660 789 q 713 639 713 694 q 686 538 713 586 q 615 453 660 489 q 511 395 569 417 q 389 374 453 374 m 389 -3 q 258 13 319 -3 q 150 60 197 29 q 76 136 103 92 q 49 235 49 181 q 67 342 49 289 q 124 439 85 396 q 226 507 164 482 q 378 529 289 532 q 507 507 446 528 q 614 450 568 486 q 686 367 660 414 q 713 264 713 319 q 686 162 713 210 q 615 77 660 114 q 511 19 569 40 q 389 -3 453 -3 m 369 172 q 413 181 390 172 q 454 202 436 189 q 483 233 472 215 q 494 269 494 251 q 483 305 494 289 q 455 332 472 321 q 415 349 438 343 q 369 356 393 356 q 305 338 329 353 q 269 301 281 324 q 258 253 258 278 q 273 210 258 228 q 313 182 288 192 q 369 172 338 172 m 369 549 q 413 557 390 549 q 454 578 436 565 q 483 609 472 592 q 494 646 494 626 q 483 680 494 664 q 455 707 472 696 q 415 724 438 718 q 369 731 393 731 q 305 715 329 729 q 269 678 281 700 q 258 629 258 656 q 273 586 258 604 q 313 558 288 568 q 369 549 338 549 z "},"9":{"ha":804,"x_min":43,"x_max":757,"o":"m 472 18 q 282 11 375 -6 q 107 82 189 28 q 98 92 107 82 q 81 117 89 101 q 71 153 72 133 q 85 194 69 174 q 111 215 96 210 q 141 219 126 219 q 165 215 156 218 q 175 213 175 213 q 280 190 228 199 q 390 192 332 181 q 445 233 421 207 q 486 296 469 260 q 498 323 490 306 q 513 362 506 340 q 521 406 519 383 q 378 396 444 392 q 238 422 311 400 q 109 503 156 449 q 53 622 63 557 q 71 743 43 686 q 151 842 99 806 q 273 894 203 879 q 418 901 343 908 q 656 764 569 863 q 754 519 743 665 q 732 324 757 411 q 665 174 707 238 q 573 71 624 110 q 472 18 522 32 m 347 578 q 428 577 385 569 q 518 601 471 585 q 492 663 511 635 q 447 706 474 690 q 388 725 419 722 q 324 706 347 722 q 288 665 300 690 q 347 578 265 603 z "},"a":{"ha":872,"x_min":50,"x_max":822,"o":"m 399 0 q 260 26 324 0 q 149 98 197 51 q 76 206 101 144 q 50 336 50 267 q 79 481 51 415 q 155 593 107 546 q 267 667 203 640 q 406 693 332 693 q 594 658 518 694 q 710 544 671 621 q 750 347 750 467 q 729 216 750 278 q 665 106 708 154 q 556 31 622 58 q 399 0 489 3 m 406 190 q 466 204 438 190 q 516 242 494 218 q 551 297 538 267 q 564 363 564 328 q 545 458 564 421 q 495 513 526 494 q 422 531 464 531 q 365 514 392 531 q 317 471 338 497 q 285 412 297 444 q 274 344 274 379 q 290 265 274 300 q 336 210 306 231 q 406 190 367 190 m 736 0 q 681 11 703 0 q 649 33 660 22 q 639 44 639 44 q 622 243 629 146 q 616 442 615 340 q 626 656 617 544 q 636 666 626 656 q 668 687 646 676 q 726 693 690 697 q 785 672 765 690 q 813 633 806 654 q 822 594 821 611 q 822 578 822 578 q 813 452 817 507 q 810 344 810 397 q 814 229 811 292 q 821 81 817 167 q 819 69 821 81 q 810 41 818 57 q 785 13 803 25 q 736 0 768 0 z "},"b":{"ha":886,"x_min":49,"x_max":838,"o":"m 476 0 q 315 28 381 0 q 210 103 249 56 q 155 213 172 151 q 138 344 138 275 q 160 494 138 429 q 227 604 183 560 q 336 672 271 649 q 485 693 401 694 q 622 669 558 693 q 734 599 686 644 q 809 489 782 554 q 836 339 836 424 q 809 208 838 269 q 731 101 781 147 q 617 27 682 54 q 476 0 551 0 m 167 0 q 110 15 132 0 q 79 49 89 31 q 66 83 69 68 q 63 97 63 97 q 53 229 57 158 q 49 378 50 300 q 50 536 49 457 q 56 691 51 615 q 65 835 60 767 q 69 846 65 835 q 83 872 74 857 q 114 896 93 886 q 168 903 135 906 q 226 884 204 900 q 258 848 247 868 q 272 814 268 828 q 276 800 276 800 q 266 672 271 744 q 258 517 261 599 q 252 352 254 436 q 251 188 250 268 q 256 40 251 108 q 249 31 256 40 q 224 10 242 21 q 167 0 206 0 m 451 192 q 515 208 486 192 q 567 251 544 224 q 603 311 590 278 q 615 379 615 344 q 595 467 615 435 q 544 515 575 500 q 482 529 513 529 q 423 513 451 529 q 372 471 394 497 q 334 410 349 444 q 319 342 319 376 q 335 266 319 300 q 382 212 351 232 q 451 192 413 192 z "},"c":{"ha":749,"x_min":44,"x_max":700,"o":"m 376 -12 q 193 35 263 -7 q 90 149 124 78 q 50 311 57 221 q 66 451 44 383 q 133 573 88 519 q 243 658 178 626 q 392 688 308 689 q 515 668 465 686 q 598 624 565 650 q 648 571 631 597 q 672 527 665 544 q 679 510 679 510 q 678 497 679 510 q 669 467 678 485 q 639 432 661 449 q 597 415 622 421 q 547 414 571 410 q 513 432 524 418 q 503 441 510 432 q 485 460 497 450 q 455 478 474 471 q 410 485 436 486 q 350 470 375 482 q 308 438 325 458 q 282 390 290 417 q 274 333 274 364 q 289 258 274 288 q 331 212 304 228 q 388 193 357 196 q 438 197 414 192 q 482 212 461 203 q 517 228 503 221 q 536 238 531 236 q 599 243 572 249 q 647 224 626 238 q 679 193 668 211 q 699 147 699 168 q 695 113 700 126 q 690 100 690 100 q 673 82 690 100 q 619 40 656 64 q 522 0 582 17 q 376 -12 463 -17 z "},"d":{"ha":871,"x_min":50,"x_max":822,"o":"m 399 0 q 260 26 324 0 q 149 98 197 51 q 76 206 101 144 q 50 336 50 267 q 79 481 51 415 q 155 593 107 546 q 267 667 203 640 q 406 693 332 693 q 594 658 518 694 q 710 544 671 621 q 750 347 750 467 q 729 216 750 278 q 665 106 708 154 q 556 31 622 58 q 399 0 489 3 m 406 190 q 466 204 438 190 q 516 242 494 218 q 551 297 538 267 q 564 363 564 328 q 545 458 564 421 q 495 513 526 494 q 422 531 464 531 q 365 514 392 531 q 317 471 338 497 q 285 412 297 444 q 274 344 274 379 q 290 265 274 300 q 336 210 306 231 q 406 190 367 190 m 732 0 q 673 14 696 0 q 637 47 650 28 q 619 79 624 65 q 614 93 614 93 q 605 225 608 153 q 600 376 601 297 q 601 534 599 454 q 607 690 603 614 q 617 835 611 767 q 620 846 617 835 q 634 872 624 857 q 665 896 644 886 q 718 903 685 906 q 775 885 754 900 q 806 851 796 869 q 819 818 817 832 q 822 804 822 804 q 818 683 821 751 q 814 538 815 614 q 813 381 813 461 q 815 224 814 301 q 821 79 817 147 q 819 67 821 79 q 808 40 817 56 q 782 12 800 24 q 732 0 764 0 z "},"e":{"ha":744,"x_min":49,"x_max":694,"o":"m 342 -15 q 192 40 250 3 q 104 126 135 76 q 63 231 74 175 q 50 343 51 288 q 74 476 49 411 q 147 592 100 542 q 261 672 194 643 q 408 694 328 700 q 544 663 490 689 q 630 598 599 636 q 675 516 661 560 q 689 432 689 472 q 655 313 690 365 q 536 240 619 260 q 484 233 514 235 q 422 232 454 232 q 357 233 389 232 q 300 237 325 235 q 260 240 275 239 q 244 242 244 242 q 264 199 249 222 q 309 158 279 175 q 388 142 339 142 q 478 146 440 143 q 541 152 517 149 q 576 158 565 156 q 588 160 588 160 q 597 160 588 160 q 623 159 607 161 q 655 148 639 157 q 682 121 671 139 q 693 85 694 100 q 685 58 692 69 q 670 42 678 47 q 663 36 663 36 q 633 24 663 36 q 558 -1 604 13 q 454 -19 511 -14 q 342 -15 397 -25 m 249 372 l 443 375 q 450 376 443 375 q 468 380 457 376 q 490 390 479 383 q 507 410 500 397 q 514 443 514 424 q 501 498 514 476 q 461 530 489 519 q 385 536 433 540 q 326 517 353 535 q 282 472 300 499 q 255 419 264 446 q 249 372 246 392 z "},"f":{"ha":725,"x_min":47,"x_max":676,"o":"m 263 -3 q 194 13 218 -3 q 158 47 169 28 q 142 81 146 67 q 139 96 139 96 q 133 248 135 179 q 131 378 131 317 q 132 503 131 440 q 138 633 133 565 q 173 757 146 707 q 239 838 200 807 q 325 883 278 868 q 421 900 372 897 q 528 879 479 899 q 613 831 576 860 q 669 767 650 801 q 673 756 669 767 q 676 731 676 746 q 665 699 675 715 q 625 669 654 682 q 588 665 607 663 q 556 674 569 668 q 543 679 543 679 q 493 708 518 694 q 440 717 468 722 q 383 671 408 713 q 354 556 358 629 q 350 377 350 456 q 352 226 350 299 q 356 69 354 154 q 353 58 356 69 q 342 33 351 47 q 313 8 332 18 q 263 -3 294 -3 m 654 475 q 641 435 653 450 q 614 413 629 419 q 587 405 599 407 q 575 403 575 403 q 333 406 451 406 q 110 419 215 407 q 96 424 110 419 q 67 441 82 429 q 50 472 53 453 q 55 511 47 496 q 74 535 63 526 q 96 549 86 544 q 106 553 106 553 q 220 565 167 560 q 326 574 274 571 q 435 577 378 576 q 560 575 492 578 q 574 570 560 575 q 608 554 589 565 q 642 524 628 543 q 654 475 656 504 z "},"g":{"ha":949,"x_min":50,"x_max":900,"o":"m 567 -296 q 383 -283 469 -301 q 222 -229 297 -265 q 210 -222 222 -229 q 183 -201 197 -215 q 161 -167 168 -187 q 163 -119 154 -146 q 190 -81 172 -93 q 225 -67 207 -69 q 256 -67 243 -65 q 269 -69 269 -69 q 355 -94 317 -83 q 428 -108 393 -104 q 501 -112 463 -112 q 605 -90 567 -110 q 659 -33 643 -71 q 676 64 675 6 q 682 232 682 158 q 677 369 682 306 q 665 496 672 432 q 649 635 658 560 q 656 648 649 635 q 682 674 663 661 q 739 688 701 688 q 802 672 776 689 q 840 638 828 654 q 853 622 853 622 q 888 421 878 519 q 899 217 899 322 q 894 -14 900 111 q 800 -217 879 -147 q 567 -296 721 -287 m 410 0 q 268 26 333 0 q 153 98 203 51 q 77 206 104 144 q 50 336 50 267 q 80 481 51 415 q 158 593 108 546 q 275 667 208 640 q 419 693 342 693 q 614 658 535 694 q 734 544 693 621 q 775 347 775 467 q 753 216 775 278 q 686 106 731 154 q 573 31 642 58 q 410 0 504 3 m 418 190 q 481 204 451 190 q 535 242 511 218 q 572 297 558 267 q 586 363 586 328 q 566 458 586 421 q 513 513 546 494 q 435 531 479 531 q 374 514 403 531 q 322 471 344 497 q 288 412 300 444 q 276 344 276 379 q 294 265 276 300 q 343 210 311 231 q 418 190 375 190 z "},"h":{"ha":840,"x_min":49,"x_max":794,"o":"m 644 14 q 594 38 613 21 q 567 72 575 54 q 556 102 558 89 q 553 115 553 115 q 567 221 561 175 q 572 308 572 267 q 563 392 572 349 q 528 463 549 433 q 483 493 508 493 q 401 455 436 486 q 342 380 367 424 q 300 289 317 336 q 272 200 283 242 q 253 131 261 158 q 231 108 242 106 q 213 131 221 110 q 199 181 206 151 q 190 239 193 210 q 185 288 186 268 q 185 310 185 308 l 128 381 l 182 472 q 249 576 213 536 q 325 639 286 617 q 403 669 364 661 q 478 679 442 678 q 607 638 546 675 q 713 540 668 600 q 776 406 757 481 q 790 238 794 321 q 767 61 785 156 q 760 51 767 61 q 740 30 754 40 q 703 13 726 19 q 644 14 679 7 m 182 0 q 123 14 146 0 q 87 47 100 28 q 69 79 74 65 q 64 93 64 93 q 55 225 58 153 q 50 376 51 297 q 51 534 49 454 q 57 690 53 614 q 67 835 61 767 q 70 846 67 835 q 84 872 74 857 q 115 896 94 886 q 168 903 135 906 q 225 885 204 900 q 256 851 246 869 q 269 818 267 832 q 272 804 272 804 q 268 683 271 751 q 265 538 265 614 q 264 381 264 461 q 265 224 264 301 q 271 79 267 147 q 269 67 271 79 q 258 40 267 56 q 232 12 250 24 q 182 0 214 0 z "},"i":{"ha":331,"x_min":50,"x_max":282,"o":"m 171 1 q 120 16 140 4 q 88 43 100 28 q 70 70 75 58 q 65 82 65 82 q 53 220 57 157 q 50 343 50 283 q 53 470 50 403 q 64 622 57 538 q 67 633 64 622 q 78 659 69 644 q 108 684 88 674 q 163 693 129 694 q 222 678 200 693 q 253 644 243 663 q 267 611 264 625 q 271 597 271 597 q 263 469 265 529 q 261 351 261 410 q 263 226 261 292 q 269 81 265 160 q 267 68 269 81 q 256 39 265 56 q 227 11 247 22 q 171 1 207 0 m 171 729 q 90 759 119 728 q 60 833 60 790 q 89 917 60 893 q 169 942 118 942 q 252 909 222 942 q 282 833 282 876 q 272 782 282 806 q 239 744 263 758 q 171 729 215 731 z "},"j":{"ha":331,"x_min":49,"x_max":282,"o":"m 171 -243 q 120 -228 140 -240 q 88 -201 100 -217 q 70 -174 75 -185 q 65 -162 65 -162 q 56 -26 60 -103 q 50 135 51 50 q 50 307 49 221 q 55 474 51 393 q 64 622 58 554 q 67 633 64 622 q 78 659 69 644 q 108 684 88 674 q 163 693 129 694 q 222 678 200 693 q 253 644 243 663 q 267 611 264 625 q 271 597 271 597 q 265 469 267 543 q 262 313 263 396 q 262 144 261 229 q 265 -21 263 58 q 269 -164 267 -100 q 267 -176 269 -164 q 256 -206 265 -189 q 227 -233 247 -222 q 171 -243 207 -244 m 171 729 q 90 759 119 728 q 60 833 60 790 q 89 917 60 893 q 169 942 118 942 q 252 909 222 942 q 282 833 282 876 q 272 782 282 806 q 239 744 263 758 q 171 729 215 731 z "},"k":{"ha":714,"x_min":49,"x_max":667,"o":"m 608 24 q 552 18 578 14 q 508 33 526 22 q 481 54 490 44 q 471 64 471 64 q 406 141 433 110 q 357 193 378 172 q 317 228 336 214 q 277 254 297 243 q 231 278 257 265 l 190 494 q 326 524 269 500 q 422 578 383 547 q 486 639 461 610 q 496 647 486 639 q 522 661 506 654 q 562 667 539 668 q 614 651 585 667 q 652 613 642 635 q 662 571 663 592 q 657 536 661 550 q 653 522 653 522 q 599 445 632 481 q 524 383 565 410 q 440 342 483 357 q 356 325 396 328 l 350 393 q 453 348 406 379 q 542 276 501 317 q 612 196 582 236 q 660 125 642 156 q 663 113 660 125 q 665 85 667 101 q 651 51 663 68 q 608 24 639 35 m 182 0 q 123 14 146 0 q 87 47 100 28 q 69 79 74 65 q 64 93 64 93 q 55 225 58 153 q 50 376 51 297 q 51 534 49 454 q 57 690 53 614 q 67 835 61 767 q 70 846 67 835 q 84 872 74 857 q 115 896 94 886 q 168 903 135 906 q 225 885 204 900 q 256 851 246 869 q 269 818 267 832 q 272 804 272 804 q 268 683 271 751 q 265 538 265 614 q 264 381 264 461 q 265 224 264 301 q 271 79 267 147 q 269 67 271 79 q 258 40 267 56 q 232 12 250 24 q 182 0 214 0 z "},"l":{"ha":321,"x_min":49,"x_max":272,"o":"m 182 0 q 123 14 146 0 q 87 47 100 28 q 69 79 74 65 q 64 93 64 93 q 55 225 58 153 q 50 376 51 297 q 51 534 49 454 q 57 690 53 614 q 67 835 61 767 q 70 846 67 835 q 84 872 74 857 q 115 896 94 886 q 168 903 135 906 q 225 885 204 900 q 256 851 246 869 q 269 818 265 832 q 272 804 272 804 q 268 683 271 751 q 265 538 265 614 q 264 381 264 461 q 265 224 264 301 q 271 79 267 147 q 269 67 271 79 q 258 40 267 56 q 232 12 250 24 q 182 0 214 0 z "},"m":{"ha":1335,"x_min":50,"x_max":1288,"o":"m 633 17 q 578 47 596 26 q 553 90 560 68 q 548 128 547 111 q 549 144 549 144 q 558 313 561 232 q 528 440 554 393 q 472 492 506 479 q 399 497 438 506 q 328 460 361 489 q 277 390 293 431 q 256 307 261 349 q 250 233 251 265 q 249 176 250 199 q 249 137 249 153 q 250 104 250 121 q 249 94 250 104 q 243 72 249 85 q 222 49 238 60 q 176 36 207 39 q 131 49 151 35 q 100 76 111 63 q 89 90 89 90 q 73 131 75 111 q 72 178 71 150 q 69 250 74 206 q 63 341 64 303 q 67 409 63 379 q 85 467 72 439 q 119 528 97 496 q 195 599 150 565 q 293 655 240 632 q 403 684 346 678 q 513 674 460 690 q 581 642 544 663 q 652 590 617 622 q 716 507 688 557 q 761 388 744 457 q 776 251 776 318 q 761 93 775 183 q 758 78 761 93 q 742 44 754 63 q 703 16 729 26 q 633 17 678 6 m 171 1 q 120 16 140 4 q 88 43 100 28 q 70 70 75 58 q 65 82 65 82 q 53 220 57 157 q 50 343 50 283 q 53 470 50 403 q 64 622 57 538 q 67 633 64 622 q 78 659 69 644 q 108 684 88 674 q 163 693 129 694 q 222 678 200 693 q 253 644 243 663 q 267 611 264 625 q 271 597 271 597 q 263 469 265 529 q 261 351 261 410 q 263 226 261 292 q 269 81 265 160 q 267 68 269 81 q 256 39 265 56 q 227 11 247 22 q 171 1 207 0 m 1143 17 q 1088 47 1107 26 q 1064 90 1069 68 q 1058 128 1058 111 q 1058 144 1058 144 q 1068 313 1071 232 q 1039 440 1065 393 q 982 492 1017 479 q 910 497 947 506 q 839 460 872 489 q 787 390 803 431 q 767 307 771 349 q 760 233 763 265 q 760 178 760 199 q 759 144 760 158 q 756 113 758 131 q 755 103 756 113 q 749 79 754 93 q 728 55 743 65 q 683 42 714 44 q 639 53 658 40 q 609 81 619 67 q 599 94 599 94 q 586 132 589 113 q 584 180 583 151 q 583 250 585 208 q 576 341 576 303 q 579 409 575 379 q 596 467 583 439 q 631 528 608 496 q 706 599 661 565 q 803 655 750 632 q 913 684 857 678 q 1022 674 969 690 q 1092 642 1056 663 q 1163 590 1128 622 q 1226 507 1197 557 q 1272 388 1254 457 q 1287 251 1288 318 q 1272 93 1286 183 q 1269 78 1272 93 q 1253 44 1265 63 q 1215 16 1240 26 q 1143 17 1189 6 z "},"n":{"ha":825,"x_min":50,"x_max":776,"o":"m 633 17 q 578 47 596 26 q 553 90 560 68 q 548 128 547 111 q 549 144 549 144 q 558 313 561 232 q 528 440 554 393 q 472 492 506 479 q 399 497 438 506 q 328 460 361 489 q 277 390 293 431 q 256 307 261 349 q 250 233 251 265 q 249 176 250 199 q 249 137 249 153 q 250 104 250 121 q 249 94 250 104 q 243 72 249 85 q 222 49 238 60 q 176 36 207 39 q 131 49 151 35 q 100 76 111 63 q 89 90 89 90 q 73 131 75 111 q 72 178 71 150 q 69 250 74 206 q 63 341 64 303 q 67 409 63 379 q 85 467 72 439 q 119 528 97 496 q 195 599 150 565 q 293 655 240 632 q 403 684 346 678 q 513 674 460 690 q 581 642 544 663 q 652 590 617 622 q 716 507 688 557 q 761 388 744 457 q 776 251 776 318 q 761 93 775 183 q 758 78 761 93 q 742 44 754 63 q 703 16 729 26 q 633 17 678 6 m 171 1 q 120 16 140 4 q 88 43 100 28 q 70 70 75 58 q 65 82 65 82 q 53 220 57 157 q 50 343 50 283 q 53 470 50 403 q 64 622 57 538 q 67 633 64 622 q 78 659 69 644 q 108 684 88 674 q 163 693 129 694 q 222 678 200 693 q 253 644 243 663 q 267 611 264 625 q 271 597 271 597 q 263 469 265 529 q 261 351 261 410 q 263 226 261 292 q 269 81 265 160 q 267 68 269 81 q 256 39 265 56 q 227 11 247 22 q 171 1 207 0 z "},"o":{"ha":828,"x_min":49,"x_max":779,"o":"m 406 0 q 263 26 328 0 q 149 99 197 53 q 75 206 101 146 q 49 336 49 267 q 76 470 49 406 q 151 585 103 535 q 264 665 199 636 q 407 694 329 694 q 552 674 485 694 q 671 610 619 653 q 751 501 722 567 q 779 347 779 436 q 750 215 779 278 q 669 104 721 153 q 551 28 618 56 q 406 0 483 0 m 401 189 q 462 202 433 189 q 513 239 490 215 q 548 292 535 263 q 561 356 561 321 q 542 449 561 413 q 492 502 524 485 q 417 519 460 519 q 359 504 386 519 q 311 463 332 489 q 278 404 290 436 q 267 339 267 372 q 283 260 267 294 q 331 208 300 226 q 401 189 361 189 z "},"p":{"ha":886,"x_min":49,"x_max":838,"o":"m 476 0 q 314 28 379 0 q 210 103 249 56 q 154 213 171 151 q 138 344 138 275 q 160 494 138 429 q 226 604 182 560 q 335 672 271 649 q 483 693 400 694 q 622 669 558 693 q 734 599 686 644 q 809 489 782 554 q 836 339 836 424 q 809 208 838 269 q 731 101 781 147 q 615 27 681 54 q 476 0 550 0 m 182 -297 q 124 -283 147 -297 q 89 -251 101 -269 q 71 -218 76 -232 q 65 -204 65 -204 q 56 -63 60 -144 q 50 108 51 18 q 49 291 49 199 q 54 468 50 383 q 64 619 58 553 q 67 631 64 619 q 81 658 69 643 q 111 682 92 672 q 165 689 131 692 q 222 671 201 686 q 253 637 243 656 q 266 605 263 618 q 269 592 269 592 q 265 460 267 538 q 263 294 264 383 q 264 113 263 206 q 267 -65 265 21 q 274 -218 269 -150 q 271 -230 274 -218 q 260 -258 268 -242 q 233 -285 251 -274 q 182 -297 215 -297 m 451 192 q 515 208 485 192 q 567 251 544 224 q 602 311 589 278 q 615 379 615 344 q 594 467 615 435 q 543 515 574 500 q 482 529 513 529 q 422 513 451 529 q 370 471 393 497 q 333 411 347 444 q 319 342 319 378 q 335 266 319 300 q 381 212 351 232 q 451 192 411 192 z "},"q":{"ha":871,"x_min":50,"x_max":822,"o":"m 399 0 q 260 26 324 0 q 149 98 197 51 q 76 206 101 144 q 50 336 50 267 q 79 481 51 415 q 155 593 107 546 q 267 667 203 640 q 406 693 332 693 q 594 658 518 694 q 710 544 671 621 q 750 347 750 467 q 729 216 750 278 q 665 106 708 154 q 556 31 622 58 q 399 0 489 3 m 406 190 q 466 204 438 190 q 516 242 494 218 q 551 297 538 267 q 564 363 564 328 q 545 458 564 421 q 495 513 526 494 q 422 531 464 531 q 365 514 392 531 q 317 471 338 497 q 285 412 297 444 q 274 344 274 379 q 290 265 274 300 q 336 210 306 231 q 406 190 367 190 m 731 -299 q 672 -286 694 -300 q 636 -253 649 -272 q 619 -220 624 -235 q 614 -206 614 -206 q 604 -65 608 -146 q 599 107 600 17 q 600 290 599 197 q 606 468 601 383 q 617 619 611 553 q 619 631 617 619 q 633 657 622 643 q 664 681 644 671 q 718 688 683 692 q 775 669 754 685 q 806 636 796 654 q 819 605 815 618 q 822 592 822 592 q 817 460 819 538 q 814 294 815 382 q 813 113 813 206 q 815 -66 813 19 q 821 -219 817 -151 q 818 -231 821 -219 q 808 -258 815 -243 q 782 -286 800 -274 q 731 -299 764 -299 z "},"r":{"ha":715,"x_min":50,"x_max":669,"o":"m 158 97 q 115 112 131 94 q 93 153 100 129 q 85 197 86 178 q 83 215 83 215 q 72 274 75 253 q 69 309 68 296 q 72 335 69 322 q 74 368 74 349 q 111 514 79 450 q 196 619 143 578 q 313 678 249 661 q 449 687 389 693 q 555 659 510 681 q 629 610 600 638 q 636 602 629 610 q 652 581 643 594 q 665 551 661 568 q 664 515 669 533 q 636 478 658 497 q 591 460 617 461 q 542 468 565 460 q 502 485 518 476 q 486 493 486 493 q 428 504 464 507 q 354 482 392 501 q 293 430 318 461 q 263 357 268 399 q 256 301 258 325 q 253 256 254 276 q 251 212 251 235 q 253 158 251 189 q 246 144 253 158 q 219 116 239 131 q 158 97 199 101 m 171 1 q 120 16 140 4 q 88 43 100 28 q 70 70 75 58 q 65 82 65 82 q 53 220 57 157 q 50 343 50 283 q 53 470 50 403 q 64 622 57 538 q 67 633 64 622 q 78 659 69 644 q 108 684 88 674 q 163 693 129 694 q 222 678 200 693 q 253 644 243 663 q 267 611 264 625 q 271 597 271 597 q 263 469 265 529 q 261 351 261 410 q 263 226 261 292 q 269 81 265 160 q 267 68 269 81 q 256 39 265 56 q 227 11 247 22 q 171 1 207 0 z "},"s":{"ha":694,"x_min":49,"x_max":647,"o":"m 307 151 q 383 165 375 147 q 347 217 390 182 q 301 249 328 232 q 244 288 274 267 q 190 337 215 310 q 144 398 164 364 q 118 475 125 432 q 138 587 107 536 q 235 667 169 638 q 394 693 300 696 q 604 644 488 690 q 612 640 604 644 q 628 624 619 635 q 642 598 636 613 q 644 563 647 583 q 631 538 640 547 q 610 524 622 528 q 590 518 599 519 q 582 517 582 517 q 572 517 582 517 q 547 519 563 518 q 510 519 531 519 q 466 517 489 518 q 419 514 443 517 q 375 506 396 511 q 335 488 349 497 q 326 465 322 479 q 352 429 329 450 q 424 379 375 408 q 537 288 493 338 q 595 188 581 239 q 589 88 610 136 q 530 28 574 51 q 427 -1 486 6 q 303 1 368 -8 q 178 37 239 10 q 72 110 117 64 q 67 117 72 110 q 55 137 61 125 q 49 163 49 149 q 64 193 50 178 q 92 210 76 207 q 124 211 108 214 q 149 204 139 208 q 160 200 160 200 q 171 193 160 200 q 203 177 182 186 q 251 160 224 168 q 307 151 278 153 z "},"t":{"ha":688,"x_min":47,"x_max":639,"o":"m 347 0 q 288 14 311 0 q 253 47 265 28 q 235 79 240 65 q 231 93 231 93 q 221 225 225 153 q 216 376 217 297 q 217 534 215 454 q 222 690 218 614 q 232 835 226 767 q 235 846 232 835 q 249 872 239 857 q 280 896 260 886 q 333 903 300 906 q 390 885 369 900 q 421 851 411 869 q 434 818 431 832 q 438 804 438 804 q 433 683 436 751 q 429 538 431 614 q 428 381 428 461 q 431 224 429 301 q 436 79 432 147 q 434 67 436 79 q 424 40 432 56 q 397 12 415 24 q 347 0 379 0 m 542 500 q 335 503 432 500 q 160 508 238 507 q 144 510 160 508 q 108 520 129 513 q 69 545 86 528 q 50 590 53 563 q 57 633 47 617 q 81 656 67 649 q 108 667 96 664 q 119 671 119 671 q 161 674 131 672 q 235 676 192 675 q 327 678 278 678 q 426 680 376 679 q 521 681 476 681 q 533 679 521 681 q 563 673 546 678 q 598 657 581 668 q 627 628 615 646 q 638 583 639 611 q 622 531 638 550 q 588 507 607 513 q 556 501 569 501 q 542 500 542 500 z "},"u":{"ha":824,"x_min":49,"x_max":778,"o":"m 313 11 q 244 42 281 22 q 172 96 207 63 q 109 179 138 129 q 63 300 81 229 q 49 439 49 371 q 64 597 50 507 q 67 613 64 597 q 83 647 71 629 q 120 676 94 665 q 190 675 146 688 q 247 644 229 665 q 271 601 265 624 q 276 563 276 579 q 276 547 276 547 q 267 376 263 458 q 297 246 271 294 q 337 203 314 218 q 386 187 360 189 q 437 192 413 185 q 478 211 461 199 q 510 270 499 229 q 523 358 521 311 q 517 440 525 404 q 503 508 510 478 q 492 565 496 539 q 485 610 488 590 q 485 620 485 610 q 494 646 486 631 q 520 674 501 661 q 572 688 539 686 q 632 677 606 692 q 674 648 658 663 q 689 633 689 633 q 733 551 710 603 q 767 438 756 499 q 774 306 778 363 q 752 206 769 250 q 704 115 735 161 q 628 51 674 78 q 531 10 583 24 q 422 -5 478 -4 q 313 11 365 -6 z "},"v":{"ha":760,"x_min":49,"x_max":710,"o":"m 365 -1 q 320 7 346 0 q 268 31 294 14 q 217 77 242 47 q 176 151 193 107 l 51 561 q 50 575 51 561 q 53 609 49 589 q 74 646 58 629 q 124 668 90 663 q 183 663 158 672 q 223 640 207 654 q 247 615 239 626 q 256 603 256 603 l 307 429 q 345 306 331 356 q 369 242 360 256 q 396 276 376 242 q 438 361 415 310 q 465 447 454 410 q 484 519 476 485 q 497 590 492 553 q 501 603 497 590 q 515 633 504 617 q 548 662 525 650 q 610 668 571 674 q 673 647 651 664 q 702 609 694 629 q 710 574 710 589 q 710 558 710 558 q 699 470 708 515 q 678 384 690 425 q 653 310 665 343 q 631 256 640 276 q 547 101 592 158 q 455 19 501 43 q 365 -1 408 -4 z "},"w":{"ha":1213,"x_min":49,"x_max":1164,"o":"m 365 -1 q 320 7 346 0 q 268 31 294 14 q 217 77 242 47 q 176 151 193 107 l 51 561 q 50 575 51 561 q 53 609 49 589 q 74 646 58 629 q 124 668 90 663 q 183 663 158 672 q 223 640 207 654 q 247 615 239 626 q 256 603 256 603 l 307 429 q 345 306 331 356 q 369 242 360 256 q 396 276 376 242 q 438 361 415 310 q 465 447 454 410 q 484 519 476 485 q 497 590 492 553 q 501 603 497 590 q 515 633 504 617 q 548 662 525 650 q 610 668 571 674 q 673 647 651 664 q 702 609 694 629 q 710 574 710 589 q 710 558 710 558 q 699 470 708 515 q 678 384 690 425 q 653 310 665 343 q 631 256 640 276 q 547 101 592 158 q 455 19 501 43 q 365 -1 408 -4 m 819 -1 q 774 7 800 0 q 722 31 749 14 q 670 77 694 47 q 629 151 646 107 l 507 561 q 506 575 507 561 q 510 609 506 589 q 529 646 514 629 q 578 668 544 663 q 637 663 613 672 q 677 640 661 654 q 701 615 693 626 q 710 604 710 604 l 760 429 q 799 306 785 356 q 824 242 814 256 q 849 276 831 242 q 890 361 868 310 q 919 447 908 410 q 938 519 931 485 q 951 590 946 553 q 954 603 951 590 q 968 633 957 617 q 1002 662 979 650 q 1064 668 1025 674 q 1127 647 1106 664 q 1156 609 1149 629 q 1163 574 1163 589 q 1164 558 1164 558 q 1147 442 1161 501 q 1115 333 1132 382 q 1083 256 1097 283 q 1001 101 1046 158 q 909 19 956 43 q 819 -1 863 -4 z "},"x":{"ha":754,"x_min":50,"x_max":706,"o":"m 97 11 q 60 49 71 29 q 50 85 50 68 q 55 117 50 103 q 65 140 60 132 q 71 149 71 149 q 140 224 111 193 q 196 283 169 254 q 250 346 222 311 q 206 401 225 378 q 169 446 186 424 q 131 495 151 468 q 83 561 111 522 q 78 572 83 561 q 73 599 74 582 q 80 633 72 615 q 113 664 88 650 q 156 677 135 676 q 196 672 178 678 q 224 660 214 665 q 233 654 233 654 q 277 610 253 639 q 328 551 301 582 q 376 489 354 519 q 436 566 413 535 q 478 620 460 597 q 513 663 496 643 q 522 670 513 663 q 550 686 532 678 q 592 694 568 694 q 646 679 617 694 q 693 638 681 661 q 705 594 706 615 q 699 560 704 574 q 694 546 694 546 q 638 468 661 500 q 594 413 614 436 q 558 367 575 389 q 519 319 540 344 q 592 227 561 267 q 647 160 624 188 q 682 111 669 132 q 685 103 682 111 q 692 80 689 94 q 692 50 694 65 q 675 21 689 35 q 632 -4 661 7 q 567 -8 596 -17 q 523 15 539 1 q 507 28 507 28 l 390 175 q 318 94 357 135 q 235 10 279 53 q 224 3 235 10 q 193 -9 213 -4 q 149 -10 174 -14 q 97 11 125 -7 z "},"y":{"ha":874,"x_min":49,"x_max":825,"o":"m 493 -296 q 310 -283 396 -301 q 149 -229 224 -265 q 136 -222 149 -229 q 109 -201 124 -215 q 87 -167 94 -187 q 89 -119 79 -146 q 115 -81 97 -93 q 151 -67 133 -69 q 183 -67 169 -65 q 196 -69 196 -69 q 281 -94 243 -83 q 354 -108 319 -104 q 428 -112 389 -112 q 531 -90 493 -110 q 585 -33 568 -71 q 603 64 601 6 q 608 232 608 158 q 603 369 608 306 q 592 496 599 432 q 575 635 585 560 q 581 648 575 635 q 607 674 588 661 q 664 688 626 688 q 728 672 703 689 q 766 638 753 654 q 779 622 779 622 q 815 421 804 519 q 825 217 825 322 q 819 -14 825 111 q 726 -217 804 -147 q 493 -296 647 -287 m 301 17 q 194 84 243 43 q 112 178 146 125 q 65 293 78 231 q 52 392 56 346 q 53 485 49 438 q 67 593 57 533 q 71 606 67 593 q 86 636 75 619 q 118 665 97 653 q 172 674 139 676 q 234 657 211 671 q 267 624 257 643 q 281 585 278 604 q 284 555 285 567 q 283 543 283 543 q 275 396 272 458 q 290 294 278 333 q 317 236 301 254 q 390 195 344 201 q 501 215 435 189 q 547 251 524 225 q 587 315 571 276 q 601 403 603 354 l 760 451 q 758 254 779 339 q 685 108 738 169 q 585 33 644 64 q 453 -4 525 3 q 301 17 381 -11 z "},"z":{"ha":779,"x_min":47,"x_max":733,"o":"m 192 -3 q 106 26 135 3 q 72 82 78 50 q 76 143 65 114 q 108 188 88 172 l 394 453 q 402 467 399 461 q 403 476 406 472 q 391 483 401 481 q 357 485 381 486 q 284 483 317 485 q 222 476 251 481 q 161 468 193 472 q 148 469 161 468 q 117 476 135 471 q 81 494 99 482 q 57 529 64 507 q 51 576 47 557 q 63 605 54 594 q 81 620 72 615 q 89 625 89 625 q 305 672 196 664 q 542 665 414 681 q 597 648 568 660 q 651 616 626 636 q 689 564 676 596 q 692 488 701 532 q 667 438 688 465 q 614 379 646 411 q 544 314 582 347 q 467 247 507 281 q 392 181 428 213 l 614 194 q 629 193 614 194 q 667 185 644 192 q 707 162 689 178 q 729 117 725 146 q 724 63 733 83 q 701 33 715 43 q 674 19 686 22 q 663 15 663 15 l 192 -3 z "},"A":{"ha":808,"x_min":50,"x_max":758,"o":"m 158 -1 q 94 22 117 4 q 63 60 72 39 q 51 95 53 81 q 50 110 50 110 q 81 341 54 224 q 146 579 108 458 q 219 747 185 685 q 285 841 253 810 q 347 883 317 872 q 408 893 376 893 q 462 883 432 897 q 524 840 492 869 q 583 765 556 810 q 625 664 610 721 q 658 563 639 625 q 698 421 678 500 q 734 254 718 342 q 758 76 750 167 q 758 64 758 76 q 749 35 757 51 q 722 7 740 19 q 667 -6 703 -6 q 607 8 631 -6 q 570 40 583 21 q 552 72 557 58 q 547 85 547 85 q 515 260 528 183 q 486 390 501 338 q 449 526 467 468 q 413 633 432 583 q 382 563 399 603 q 351 482 365 524 q 326 403 336 440 q 305 304 314 344 q 290 230 296 264 q 280 158 285 196 q 269 68 275 121 q 266 56 269 68 q 251 29 263 44 q 218 4 240 14 q 158 -1 196 -6 m 185 124 l 203 271 q 330 294 268 286 q 458 305 392 303 q 597 300 524 307 l 617 128 q 511 141 568 136 q 395 147 454 146 q 282 142 336 147 q 185 124 228 136 z "},"B":{"ha":799,"x_min":49,"x_max":751,"o":"m 506 11 q 360 0 433 4 q 225 1 288 -4 q 120 26 163 6 q 64 88 78 46 q 54 219 58 147 q 49 369 50 290 q 50 526 49 447 q 56 681 51 606 q 65 824 60 757 q 74 855 67 836 q 102 888 82 874 q 163 901 122 901 l 460 901 q 576 867 521 893 q 671 801 631 840 q 729 714 711 761 q 745 637 746 676 q 729 561 744 597 q 688 497 714 525 q 629 453 661 468 q 689 401 661 436 q 734 323 717 365 q 749 242 751 281 q 719 140 747 185 q 638 64 692 96 q 506 11 585 32 m 271 185 q 358 186 317 185 q 433 194 400 188 q 488 213 465 200 q 524 292 542 247 q 497 329 515 315 q 453 350 478 343 q 403 358 428 357 l 265 356 q 265 271 264 314 q 271 185 267 228 m 271 578 q 360 576 315 575 q 450 586 404 578 q 499 614 481 597 q 521 658 518 631 q 494 706 518 686 q 424 733 471 725 q 388 736 411 736 q 335 737 364 736 q 276 738 307 738 l 271 578 z "},"C":{"ha":867,"x_min":46,"x_max":826,"o":"m 389 10 q 239 64 301 25 q 136 158 176 103 q 75 274 96 213 q 50 396 54 335 q 57 508 46 457 q 99 638 69 569 q 178 767 128 707 q 303 866 229 828 q 479 904 378 904 q 641 868 571 904 q 754 776 711 832 q 812 658 797 721 q 807 539 826 594 q 798 524 807 539 q 769 497 789 510 q 715 489 749 485 q 662 512 681 493 q 637 549 643 531 q 631 567 631 567 q 629 581 631 567 q 623 615 628 594 q 606 658 618 636 q 573 697 594 681 q 517 717 551 713 q 434 699 472 721 q 365 642 396 678 q 312 562 333 606 q 278 476 290 518 q 268 401 267 433 q 278 340 269 369 q 301 285 286 310 q 336 239 317 260 q 379 206 356 218 q 428 189 403 193 q 490 198 457 185 q 551 233 522 211 q 590 276 579 254 q 599 288 590 276 q 624 311 607 299 q 669 326 642 324 q 733 313 696 329 q 781 280 765 297 q 799 244 796 263 q 799 210 803 225 q 792 186 796 196 q 788 176 788 176 q 774 155 788 176 q 733 103 761 133 q 659 44 706 72 q 546 5 613 17 q 389 10 479 -7 z "},"D":{"ha":886,"x_min":49,"x_max":850,"o":"m 219 -3 q 110 29 149 0 q 60 97 72 58 q 50 456 51 279 q 60 803 49 633 q 128 884 61 864 q 313 904 196 904 q 492 886 418 904 q 617 837 565 868 q 705 766 668 806 q 772 686 742 726 q 835 396 850 531 q 722 142 819 261 q 585 45 665 78 q 412 3 506 13 q 219 -3 318 -6 m 269 203 q 426 211 363 196 q 530 260 490 226 q 589 344 569 293 q 611 460 608 394 q 580 597 606 543 q 510 679 554 650 q 405 716 465 708 q 271 715 344 724 q 266 464 265 592 q 269 203 267 336 z "},"E":{"ha":763,"x_min":49,"x_max":718,"o":"m 199 3 q 123 22 150 7 q 83 58 96 38 q 67 97 71 78 q 61 126 63 115 q 53 310 57 226 q 49 473 50 393 q 53 641 49 553 q 67 840 57 729 q 93 881 71 860 q 165 906 115 901 l 567 910 q 580 909 567 910 q 614 905 593 908 q 656 891 635 901 q 690 861 676 881 q 706 811 704 842 q 694 763 707 781 q 663 738 681 746 q 633 727 646 729 q 619 725 619 725 l 269 740 q 265 613 267 669 q 262 509 263 557 q 262 414 261 461 q 263 312 263 367 q 267 188 264 257 q 345 199 313 194 q 403 207 378 203 q 453 215 428 211 q 507 224 478 218 q 576 238 536 229 q 588 238 576 238 q 617 236 599 239 q 653 226 635 233 q 688 203 672 218 q 708 167 703 189 q 712 113 718 133 q 692 81 706 92 q 668 65 679 69 q 657 60 657 60 q 538 35 593 46 q 431 17 483 24 q 322 6 378 10 q 199 3 265 1 m 106 371 l 94 557 l 482 572 q 493 569 482 572 q 521 561 504 567 q 553 544 538 556 q 581 515 569 532 q 592 474 592 499 q 578 424 592 442 q 547 398 565 406 q 516 388 529 390 q 503 386 503 386 l 106 371 z "},"F":{"ha":756,"x_min":50,"x_max":707,"o":"m 179 8 q 117 24 140 8 q 82 61 93 40 q 67 98 71 82 q 63 114 63 114 q 53 299 57 215 q 50 464 50 383 q 53 634 50 544 q 67 836 57 724 q 80 872 69 854 q 108 902 90 890 q 146 913 125 914 l 589 910 q 601 908 589 910 q 630 901 613 907 q 665 885 647 896 q 695 855 683 874 q 707 808 707 836 q 695 761 707 779 q 667 735 683 743 q 638 726 650 728 q 625 724 625 724 l 271 739 q 266 579 268 651 q 264 435 264 507 q 267 282 264 364 q 272 96 269 200 q 271 83 272 96 q 262 51 269 69 q 235 20 254 33 q 179 8 215 7 m 107 371 l 96 557 l 483 572 q 494 569 483 572 q 522 561 506 567 q 555 544 539 556 q 582 515 571 532 q 593 474 593 499 q 580 424 593 442 q 549 398 567 406 q 517 388 531 390 q 504 386 504 386 l 107 371 z "},"G":{"ha":849,"x_min":49,"x_max":801,"o":"m 307 17 q 208 63 256 32 q 125 143 161 94 q 69 259 89 192 q 49 414 49 326 q 83 575 60 499 q 155 718 107 651 q 286 840 203 785 q 482 903 386 901 q 667 857 578 904 q 740 792 711 831 q 784 709 769 753 q 799 620 799 665 q 782 533 799 575 q 775 523 782 533 q 752 503 768 513 q 710 497 736 494 q 661 520 679 501 q 636 556 643 539 q 629 574 629 574 q 626 628 631 592 q 610 703 621 665 q 581 717 600 713 q 535 718 561 721 q 479 704 508 715 q 421 672 450 693 q 353 608 385 643 q 301 526 322 572 q 269 413 281 479 q 280 286 263 339 q 333 208 297 233 q 399 186 367 193 q 465 181 431 179 q 536 193 499 182 q 591 223 571 207 q 599 256 611 239 q 535 282 572 269 q 461 304 499 294 q 454 309 461 304 q 438 323 447 314 q 424 346 429 332 q 422 378 418 360 q 438 410 426 400 q 461 422 450 419 q 472 424 472 424 q 557 417 514 428 q 638 390 600 407 q 704 354 676 372 q 758 303 735 333 q 792 237 782 272 q 791 164 801 201 q 742 89 781 126 q 657 33 707 57 q 548 -1 607 10 q 427 -9 489 -12 q 307 17 365 -6 z "},"H":{"ha":867,"x_min":49,"x_max":817,"o":"m 172 4 q 115 19 136 4 q 82 52 93 33 q 67 85 71 71 q 64 99 64 99 q 55 229 58 158 q 50 376 51 300 q 51 531 49 453 q 57 685 53 610 q 67 826 61 760 q 69 838 67 826 q 79 865 71 850 q 107 891 88 879 q 161 903 126 903 q 219 889 197 901 q 253 858 242 876 q 269 822 265 840 q 274 792 274 804 q 274 779 274 779 q 265 656 268 722 q 262 516 263 589 q 262 368 261 443 q 265 220 263 293 q 271 83 268 147 q 269 71 271 83 q 259 43 268 58 q 230 15 250 28 q 172 4 210 3 m 144 285 l 164 476 l 681 514 l 685 318 l 144 285 m 715 4 q 659 19 681 4 q 626 52 638 33 q 610 85 614 71 q 607 99 607 99 q 598 229 601 158 q 593 376 594 300 q 594 531 592 453 q 600 685 596 610 q 610 826 604 760 q 612 838 610 826 q 623 865 614 850 q 651 891 632 879 q 704 903 669 903 q 763 889 742 901 q 797 858 785 876 q 813 822 808 840 q 817 792 817 804 q 817 779 817 779 q 808 656 811 722 q 805 516 806 589 q 805 368 804 443 q 808 220 806 293 q 814 83 811 147 q 813 71 814 83 q 802 43 811 58 q 773 15 793 28 q 715 4 753 3 z "},"I":{"ha":324,"x_min":49,"x_max":274,"o":"m 172 4 q 115 19 136 4 q 82 52 93 33 q 67 85 71 71 q 64 99 64 99 q 55 229 58 158 q 50 376 51 300 q 51 531 49 453 q 57 685 53 610 q 67 826 61 760 q 69 838 67 826 q 79 865 71 850 q 107 891 88 879 q 161 903 126 903 q 219 889 197 901 q 253 858 242 876 q 269 822 265 840 q 274 792 274 804 q 274 779 274 779 q 265 656 268 722 q 262 516 263 589 q 262 368 261 443 q 265 220 263 293 q 271 83 268 147 q 269 71 271 83 q 259 43 268 58 q 230 15 250 28 q 172 4 210 3 z "},"J":{"ha":688,"x_min":47,"x_max":639,"o":"m 343 4 q 246 24 297 7 q 146 75 194 42 q 64 154 97 108 q 58 164 64 154 q 50 189 53 174 q 51 222 47 204 q 75 257 56 240 q 118 281 96 276 q 159 281 140 285 q 190 272 178 278 q 201 267 201 267 q 238 240 224 254 q 264 215 253 226 q 288 196 275 203 q 322 189 301 189 q 388 240 367 194 q 417 349 410 286 q 416 461 419 397 q 407 608 413 525 q 394 796 401 690 q 395 811 394 796 q 403 847 396 826 q 430 883 411 867 q 486 901 449 900 q 550 884 526 901 q 587 844 574 867 q 604 803 600 821 q 608 786 608 786 q 624 602 617 681 q 635 465 631 524 q 639 363 639 407 q 636 283 639 319 q 583 134 624 197 q 480 37 542 71 q 343 4 418 3 z "},"K":{"ha":761,"x_min":49,"x_max":713,"o":"m 601 0 q 546 1 571 -7 q 503 23 521 10 q 478 47 486 36 q 469 58 469 58 q 397 176 432 132 q 329 246 363 219 q 258 289 296 272 q 174 324 219 306 l 178 524 q 328 592 268 553 q 427 677 389 632 q 486 764 465 722 q 515 838 507 806 q 521 848 515 838 q 540 871 526 858 q 576 890 553 883 q 632 889 599 897 q 685 862 668 882 q 708 821 703 842 q 712 785 713 800 q 711 769 711 769 q 685 665 707 715 q 633 572 664 615 q 565 494 601 529 q 492 435 528 460 q 428 401 457 411 q 537 311 488 365 q 622 200 586 257 q 674 100 657 143 q 676 88 674 100 q 674 57 678 75 q 654 23 671 39 q 601 0 638 7 m 172 4 q 115 19 136 4 q 82 52 93 33 q 67 85 71 71 q 64 99 64 99 q 55 229 58 158 q 50 376 51 300 q 51 531 49 453 q 57 685 53 610 q 67 826 61 760 q 69 838 67 826 q 79 865 71 850 q 107 891 88 879 q 161 903 126 903 q 219 889 197 901 q 253 858 242 876 q 269 822 265 840 q 274 792 274 804 q 274 779 274 779 q 265 656 268 722 q 262 516 263 589 q 262 368 261 443 q 265 220 263 293 q 271 83 268 147 q 269 71 271 83 q 259 43 268 58 q 230 15 250 28 q 172 4 210 3 z "},"L":{"ha":765,"x_min":49,"x_max":719,"o":"m 203 3 q 134 13 161 1 q 92 43 107 24 q 70 83 76 63 q 63 121 64 104 q 56 269 58 201 q 51 398 53 336 q 49 524 49 460 q 53 660 50 588 q 65 822 57 733 q 67 835 65 822 q 78 865 69 849 q 109 894 88 882 q 171 903 131 907 q 228 885 207 900 q 258 851 249 869 q 271 818 268 832 q 274 804 274 804 q 265 478 268 631 q 269 188 263 325 q 379 202 329 194 q 478 219 429 210 q 579 238 526 228 q 591 238 579 238 q 620 238 603 239 q 656 231 638 236 q 690 213 675 225 q 711 178 706 200 q 715 122 719 144 q 699 87 710 100 q 679 67 689 74 q 669 61 669 61 q 544 38 603 49 q 431 18 486 26 q 319 6 375 10 q 203 3 264 1 z "},"M":{"ha":1046,"x_min":49,"x_max":997,"o":"m 171 4 q 117 21 138 7 q 85 53 96 35 q 69 84 74 71 q 64 97 64 97 q 52 255 56 172 q 49 423 49 338 q 53 594 49 508 q 64 765 57 681 q 67 776 64 765 q 78 802 69 788 q 102 828 86 817 q 144 840 118 840 q 203 835 171 843 q 265 796 236 828 q 331 707 301 746 q 386 634 361 668 q 437 566 411 600 q 492 493 463 532 q 559 565 528 529 q 624 644 590 601 q 697 740 657 686 q 792 863 738 793 q 802 874 792 863 q 835 896 813 886 q 894 900 858 906 q 954 879 933 896 q 984 844 975 863 q 995 810 993 825 q 997 796 997 796 q 990 673 992 740 q 987 532 988 606 q 987 383 986 458 q 990 233 988 307 q 996 90 992 158 q 994 76 996 90 q 983 45 992 63 q 953 15 974 28 q 897 4 933 3 q 842 19 864 6 q 808 49 819 32 q 792 80 797 67 q 788 93 788 93 q 778 191 782 140 q 774 293 775 242 q 775 396 774 344 q 779 497 776 447 q 706 401 742 446 q 625 315 671 357 q 540 273 588 283 q 442 288 492 263 q 393 332 421 308 q 333 392 365 356 q 264 483 300 428 q 262 394 263 432 q 260 323 261 356 q 261 258 260 290 q 265 184 263 225 q 269 86 267 143 q 267 73 269 86 q 256 43 265 60 q 227 15 247 26 q 171 4 207 3 z "},"N":{"ha":864,"x_min":49,"x_max":814,"o":"m 169 4 q 115 19 136 7 q 82 49 94 32 q 66 78 69 67 q 63 90 63 90 q 51 248 54 165 q 49 415 49 331 q 53 581 50 499 q 60 739 56 663 q 63 754 60 739 q 81 788 65 769 q 129 815 96 807 q 170 818 149 822 q 208 808 192 814 q 226 799 225 801 q 336 684 276 750 q 462 540 396 618 q 596 375 528 461 q 593 476 594 424 q 593 583 592 528 q 597 701 594 639 q 606 835 600 764 q 608 845 606 835 q 620 869 611 856 q 649 892 629 882 q 701 900 668 901 q 760 888 739 900 q 794 856 782 875 q 810 820 806 838 q 814 790 814 803 q 814 778 814 778 q 806 656 808 722 q 802 519 803 590 q 802 374 801 447 q 805 227 803 300 q 811 86 807 154 q 810 75 811 86 q 802 49 810 64 q 778 22 794 35 q 733 4 763 8 q 676 13 701 0 q 637 42 650 26 q 624 57 624 57 q 608 74 624 57 q 568 120 593 90 q 510 188 543 150 q 443 267 478 226 q 374 349 408 308 q 310 425 339 389 q 261 486 281 461 q 260 370 260 431 q 262 240 260 310 q 267 83 264 169 q 265 71 267 83 q 253 42 263 58 q 224 15 243 26 q 169 4 204 3 z "},"O":{"ha":1031,"x_min":44,"x_max":986,"o":"m 433 -10 q 274 22 346 -10 q 149 112 201 54 q 71 248 97 169 q 50 421 44 326 q 88 603 54 515 q 178 760 121 690 q 315 870 236 829 q 488 911 393 911 q 631 897 558 911 q 767 848 703 882 q 883 758 832 814 q 960 622 933 703 q 981 431 986 540 q 941 272 976 342 q 849 149 906 201 q 723 60 793 96 q 578 8 653 25 q 433 -10 504 -10 m 475 197 q 549 207 511 197 q 621 238 586 217 q 683 290 656 258 q 729 363 711 321 q 749 458 747 406 q 733 578 753 529 q 679 656 714 626 q 600 699 644 686 q 510 713 556 713 q 425 691 465 713 q 353 631 385 669 q 303 542 322 593 q 282 436 285 492 q 301 308 278 361 q 369 226 325 254 q 475 197 414 197 z "},"P":{"ha":796,"x_min":49,"x_max":757,"o":"m 171 4 q 111 21 133 7 q 78 53 89 35 q 63 86 67 72 q 60 100 60 100 q 53 210 56 144 q 50 352 51 275 q 49 511 49 429 q 53 672 50 593 q 63 818 57 751 q 64 829 63 818 q 73 855 65 840 q 100 883 81 869 q 156 901 119 896 q 452 900 326 915 q 646 819 578 885 q 735 676 713 756 q 735 518 757 596 q 647 381 713 440 q 578 335 619 356 q 484 304 536 315 q 375 290 432 293 q 260 296 318 288 l 265 82 q 263 69 265 82 q 250 42 260 57 q 222 15 240 26 q 171 4 203 3 m 260 481 q 381 480 331 474 q 461 503 431 486 q 506 545 492 519 q 522 603 521 571 q 503 677 522 649 q 451 720 485 706 q 370 738 417 735 q 267 736 324 742 q 259 607 261 672 q 260 481 257 542 z "},"Q":{"ha":1031,"x_min":44,"x_max":986,"o":"m 433 -10 q 274 22 346 -10 q 149 112 201 54 q 71 248 97 169 q 50 421 44 326 q 88 603 54 515 q 178 760 121 690 q 315 870 236 829 q 488 911 393 911 q 631 897 558 911 q 767 848 703 882 q 883 758 832 814 q 960 622 933 703 q 981 431 986 540 q 941 272 976 342 q 849 149 906 201 q 723 60 793 96 q 578 8 653 25 q 433 -10 504 -10 m 629 -185 q 571 -187 596 -193 q 528 -167 546 -181 q 502 -143 511 -154 q 493 -132 493 -132 q 442 15 463 -50 q 406 140 421 79 q 381 265 392 200 q 381 277 381 265 q 387 304 382 289 q 404 332 392 319 q 438 347 417 344 q 488 339 468 350 q 520 316 508 328 q 532 304 532 304 q 578 206 550 267 q 636 72 606 146 q 694 -83 667 -3 q 697 -96 694 -83 q 695 -126 699 -108 q 677 -160 692 -144 q 629 -185 663 -176 m 475 197 q 549 207 511 197 q 621 238 586 217 q 683 290 656 258 q 729 363 711 321 q 749 458 747 406 q 733 578 753 529 q 679 656 714 626 q 600 699 644 686 q 510 713 556 713 q 425 691 465 713 q 353 631 385 669 q 303 542 322 593 q 282 436 285 492 q 301 308 278 361 q 369 226 325 254 q 475 197 414 197 z "},"R":{"ha":789,"x_min":49,"x_max":750,"o":"m 171 7 q 111 24 133 10 q 78 58 89 39 q 63 92 67 78 q 60 106 60 106 q 53 215 56 150 q 50 356 51 279 q 50 513 49 432 q 54 673 51 594 q 63 818 57 751 q 64 829 63 818 q 74 855 65 840 q 101 883 82 869 q 156 901 121 896 q 449 900 326 915 q 639 819 571 885 q 728 676 707 756 q 728 518 750 596 q 640 381 706 440 q 572 335 613 356 q 481 300 531 314 q 374 283 431 286 q 260 288 318 279 l 265 86 q 263 74 265 86 q 251 45 261 61 q 222 18 240 29 q 171 7 204 7 m 542 58 q 430 124 485 93 q 313 189 375 154 q 171 267 250 224 q 186 289 169 275 q 228 317 203 303 q 278 345 253 332 q 319 366 303 358 q 336 374 336 374 q 406 344 376 357 q 461 318 436 331 q 513 290 486 306 q 575 253 540 275 q 656 197 610 231 q 663 191 656 197 q 678 172 669 185 q 691 142 686 158 q 692 106 696 126 q 669 65 688 86 q 633 42 654 46 q 590 43 611 39 q 556 53 569 47 q 542 58 542 58 m 260 485 q 373 489 328 481 q 447 516 418 497 q 488 560 475 535 q 503 611 500 585 q 484 679 503 653 q 433 719 465 706 q 358 736 400 732 q 267 736 315 740 q 260 610 261 674 q 260 485 258 546 z "},"S":{"ha":742,"x_min":49,"x_max":696,"o":"m 424 3 q 290 8 347 0 q 192 28 232 15 q 133 51 153 42 q 114 60 114 60 q 105 65 114 60 q 83 82 96 71 q 62 108 71 93 q 51 142 53 124 q 60 182 49 160 q 90 215 72 206 q 124 224 107 224 q 151 223 140 225 q 163 221 163 221 q 264 193 211 201 q 362 188 317 185 q 438 203 407 190 q 472 242 468 217 q 462 277 475 261 q 422 308 449 293 q 358 337 394 322 q 281 368 322 351 q 223 399 256 378 q 160 448 190 419 q 107 512 129 476 q 76 588 85 547 q 79 676 67 629 q 132 772 92 724 q 222 851 174 822 q 321 892 271 879 q 416 906 371 904 q 497 903 461 907 q 554 893 533 899 q 575 888 575 888 q 587 884 575 888 q 616 872 599 881 q 650 851 633 864 q 676 817 667 838 q 682 769 685 796 q 660 724 676 738 q 625 706 644 710 q 592 705 606 703 q 578 707 578 707 q 469 716 522 724 q 374 686 415 708 q 310 637 332 664 q 293 586 288 610 q 330 548 300 565 q 404 512 360 531 q 497 472 449 493 q 585 422 544 450 q 650 356 626 393 q 692 242 688 294 q 674 146 696 189 q 613 72 653 103 q 524 24 574 42 q 424 3 475 6 z "},"T":{"ha":819,"x_min":47,"x_max":771,"o":"m 415 4 q 358 19 379 4 q 325 52 336 33 q 310 85 314 71 q 307 99 307 99 q 295 260 299 174 q 292 438 292 346 q 296 621 292 529 q 308 796 300 713 q 310 808 308 796 q 322 835 313 821 q 350 861 331 850 q 403 872 369 872 q 472 857 449 872 q 505 822 496 842 q 515 788 514 803 q 515 774 515 774 q 508 651 510 717 q 505 513 506 585 q 505 366 504 440 q 508 219 506 292 q 514 83 511 147 q 512 71 514 83 q 501 43 510 58 q 472 15 492 28 q 415 4 451 3 m 683 707 q 562 716 628 713 q 426 721 496 719 q 290 722 356 722 q 169 721 225 722 q 158 721 169 721 q 131 724 147 721 q 97 735 114 728 q 67 758 79 743 q 50 797 54 772 q 55 838 47 822 q 77 863 63 854 q 107 876 92 872 q 133 882 122 881 q 143 883 143 883 q 401 903 272 899 q 656 893 529 908 q 667 890 656 893 q 697 879 679 886 q 731 860 714 872 q 759 830 747 849 q 771 786 771 811 q 757 739 769 756 q 727 715 744 722 q 697 708 710 708 q 683 707 683 707 z "},"U":{"ha":861,"x_min":49,"x_max":814,"o":"m 443 -4 q 238 58 324 4 q 103 219 151 113 q 49 490 54 326 l 49 838 q 51 848 49 838 q 63 872 54 858 q 90 895 71 885 q 140 906 108 906 q 208 891 182 906 q 246 857 233 876 q 262 823 258 838 q 265 808 265 808 l 271 483 q 292 324 271 388 q 349 226 313 260 q 432 185 385 192 q 519 230 485 193 q 570 344 553 267 q 586 550 588 421 l 583 813 q 584 825 583 813 q 592 853 585 838 q 618 882 599 869 q 675 894 638 894 q 737 881 713 894 q 775 849 761 868 q 795 810 789 829 q 803 777 801 790 q 806 764 806 764 l 813 501 q 797 309 814 399 q 740 150 781 219 q 626 40 699 81 q 443 -4 554 0 z "},"V":{"ha":828,"x_min":50,"x_max":779,"o":"m 410 3 q 290 52 340 13 q 205 161 240 92 q 144 328 169 231 q 96 548 118 425 q 50 818 74 671 q 51 831 50 818 q 61 858 53 843 q 89 886 69 874 q 143 900 108 899 q 203 887 181 900 q 239 856 226 874 q 256 824 251 838 q 261 810 261 810 q 296 639 279 717 q 328 500 313 561 q 358 392 343 439 q 384 313 372 344 q 407 260 396 281 q 434 303 418 268 q 469 393 450 338 q 506 518 488 449 q 538 665 524 588 q 560 824 553 743 q 563 836 560 824 q 578 863 567 849 q 610 888 589 878 q 669 892 632 897 q 736 867 714 885 q 767 831 758 850 q 778 797 776 811 q 779 782 779 782 q 733 503 763 629 q 665 281 703 378 q 585 119 628 183 q 498 25 543 54 q 410 3 453 -4 z "},"W":{"ha":1339,"x_min":50,"x_max":1290,"o":"m 410 3 q 290 52 340 13 q 205 161 240 92 q 144 328 169 231 q 96 548 118 425 q 50 818 74 671 q 51 831 50 818 q 61 858 53 843 q 89 886 69 874 q 143 900 108 899 q 203 887 181 900 q 239 856 226 874 q 256 824 251 838 q 261 810 261 810 q 296 639 279 717 q 328 500 313 561 q 358 392 343 439 q 384 313 372 344 q 407 260 396 281 q 434 303 418 268 q 469 394 450 338 q 506 520 488 450 q 538 669 524 590 q 560 828 553 747 q 563 840 560 828 q 578 865 567 851 q 610 888 589 879 q 669 892 632 897 q 736 867 714 885 q 767 831 758 850 q 778 797 776 811 q 779 782 779 782 q 733 503 763 629 q 665 281 703 378 q 585 119 628 183 q 498 25 543 54 q 410 3 453 -4 m 921 3 q 801 52 851 13 q 716 161 751 92 q 655 328 681 231 q 607 548 629 425 q 561 818 585 671 q 565 831 561 818 q 581 858 569 843 q 613 885 592 874 q 669 896 633 896 q 712 880 692 894 q 747 845 732 865 q 769 810 761 825 q 778 796 778 796 q 812 626 796 701 q 842 491 828 550 q 870 387 857 432 q 895 311 883 342 q 918 260 907 281 q 945 303 929 268 q 980 393 961 338 q 1017 518 999 449 q 1049 665 1035 588 q 1071 824 1064 743 q 1074 836 1071 824 q 1089 863 1078 849 q 1122 888 1100 878 q 1181 892 1143 897 q 1247 867 1225 885 q 1278 831 1269 850 q 1289 797 1288 811 q 1290 782 1290 782 q 1244 503 1274 629 q 1176 281 1214 378 q 1097 119 1139 183 q 1009 25 1054 54 q 921 3 964 -4 z "},"X":{"ha":869,"x_min":49,"x_max":819,"o":"m 767 26 q 710 15 738 11 q 661 32 682 19 q 628 57 640 44 q 615 69 615 69 q 492 208 550 143 q 380 335 433 272 q 274 462 326 397 q 170 601 222 526 q 61 764 118 675 q 56 776 61 764 q 50 807 51 789 q 58 844 49 825 q 99 878 68 864 q 153 885 126 890 q 201 866 179 879 q 235 841 222 853 q 247 829 247 829 q 372 672 310 749 q 501 514 435 594 q 641 345 568 433 q 796 156 714 257 q 801 147 796 156 q 813 124 807 138 q 817 92 818 110 q 806 57 817 74 q 767 26 794 40 m 110 21 q 72 55 83 38 q 60 89 61 72 q 63 119 58 106 q 73 142 68 133 q 78 150 78 150 q 230 335 160 249 q 365 504 300 421 q 495 675 431 588 q 629 860 560 763 q 637 867 629 860 q 660 884 644 875 q 699 895 676 893 q 749 885 721 897 q 800 851 785 871 q 817 811 815 831 q 817 780 819 792 q 814 768 814 768 q 675 550 742 649 q 542 364 608 451 q 406 194 476 276 q 257 24 336 111 q 247 17 257 24 q 216 3 236 10 q 169 0 196 -3 q 110 21 142 3 z "},"Y":{"ha":768,"x_min":36,"x_max":724,"o":"m 376 314 q 168 398 247 331 q 63 576 89 465 q 65 825 36 686 q 69 837 65 825 q 86 865 74 849 q 120 890 99 881 q 176 893 142 900 q 235 871 215 888 q 263 836 256 854 q 273 804 271 818 q 275 790 275 790 q 280 581 263 654 q 356 500 297 508 q 414 527 385 503 q 465 592 443 551 q 496 683 486 633 q 496 783 506 733 q 494 797 496 783 q 494 828 492 810 q 513 864 497 847 q 563 888 528 881 q 631 885 603 894 q 674 858 658 875 q 698 826 690 840 q 706 813 706 813 q 716 652 724 735 q 670 497 708 569 q 560 374 632 424 q 376 314 488 325 m 386 7 q 330 20 351 7 q 297 49 308 33 q 279 78 285 65 q 274 90 274 90 q 261 255 260 172 q 272 415 263 338 l 481 413 q 471 232 469 317 q 479 81 472 147 q 478 69 479 81 q 468 44 476 58 q 440 18 460 29 q 386 7 421 7 z "},"Z":{"ha":758,"x_min":49,"x_max":713,"o":"m 183 1 q 148 5 168 -1 q 110 24 128 11 q 78 56 92 38 q 65 97 65 74 q 79 146 64 121 q 163 268 124 208 q 244 393 203 328 q 335 535 286 458 q 446 706 385 611 q 324 719 396 725 q 179 697 253 713 q 167 697 179 697 q 138 698 156 696 q 101 708 119 700 q 72 735 83 717 q 52 781 56 761 q 53 813 49 800 q 67 833 58 825 q 83 844 76 842 q 90 847 90 847 q 335 899 208 896 q 588 871 463 903 q 635 840 613 860 q 674 791 658 819 q 691 728 689 763 q 674 656 693 694 q 613 551 640 597 q 561 465 586 506 q 509 385 536 425 q 449 298 482 344 q 375 193 417 251 l 594 203 q 610 200 594 203 q 646 189 625 197 q 684 165 667 181 q 706 122 701 149 q 703 72 713 90 q 678 42 693 53 q 652 29 664 32 q 640 26 640 26 l 183 1 z "},"":{"ha":803,"x_min":49,"x_max":754,"o":"m 172 6 q 119 19 140 6 q 85 51 97 32 q 69 83 74 69 q 64 97 64 97 q 53 222 57 151 q 49 369 50 292 q 51 526 49 446 q 57 682 53 606 q 67 825 61 758 q 69 836 67 825 q 79 861 71 847 q 105 885 88 875 q 154 897 122 896 q 367 907 265 911 q 551 876 469 903 q 683 792 632 849 q 747 644 735 736 q 728 553 747 593 q 683 490 708 514 q 636 457 657 465 q 690 415 663 443 q 735 347 717 386 q 754 258 754 308 q 713 131 751 182 q 614 50 675 79 q 479 11 553 21 q 464 11 479 11 q 426 16 449 11 q 383 35 404 21 q 353 78 363 50 q 349 128 343 108 q 369 158 356 147 q 395 174 383 169 q 407 178 407 178 q 473 206 443 190 q 519 242 503 222 q 533 285 536 263 q 509 319 526 306 q 466 342 492 333 q 408 354 440 350 q 339 358 376 358 q 263 357 301 358 l 269 85 q 267 73 269 85 q 256 45 265 61 q 228 17 247 29 q 172 6 208 6 m 265 583 q 365 582 318 581 q 449 592 413 583 q 506 617 485 600 q 526 660 526 633 q 504 704 524 688 q 450 729 485 721 q 369 738 415 738 q 271 735 324 739 l 265 583 z "},"":{"ha":801,"x_min":49,"x_max":757,"o":"m 404 99 q 283 124 339 99 q 188 193 228 149 q 127 296 147 238 q 113 421 107 354 q 147 547 118 488 q 224 650 176 606 q 332 719 272 694 q 457 744 392 744 q 579 717 524 744 q 675 641 635 689 q 736 532 715 593 q 751 403 757 471 q 716 281 746 336 q 638 184 686 225 q 531 121 590 143 q 404 99 471 99 m 172 4 q 115 19 136 4 q 82 52 93 33 q 67 85 71 71 q 64 99 64 99 q 55 229 58 158 q 50 376 51 300 q 51 531 49 453 q 57 685 53 610 q 67 826 61 760 q 69 838 67 826 q 79 865 71 850 q 107 891 88 879 q 161 903 126 903 q 219 889 197 901 q 253 858 242 876 q 269 822 265 840 q 274 792 274 804 q 274 779 274 779 q 265 656 268 722 q 262 516 263 589 q 262 368 261 443 q 265 220 263 293 q 271 83 268 147 q 269 71 271 83 q 259 43 268 58 q 230 15 250 28 q 172 4 210 3 m 424 300 q 477 317 453 300 q 517 364 501 335 q 536 426 533 393 q 526 490 539 461 q 492 535 514 518 q 440 553 469 553 q 387 535 411 553 q 347 490 363 518 q 328 426 331 461 q 338 364 326 393 q 373 317 350 335 q 424 300 396 300 z "},"":{"ha":808,"x_min":50,"x_max":758,"o":"m 667 -6 q 607 8 631 -6 q 570 40 583 21 q 552 72 557 58 q 547 85 547 85 q 515 260 528 183 q 486 390 501 338 q 449 526 467 468 q 413 633 432 583 q 382 563 399 603 q 351 482 365 524 q 326 403 336 440 q 305 304 314 344 q 290 230 296 264 q 280 158 285 196 q 269 68 275 121 q 266 56 269 68 q 251 29 263 44 q 218 4 240 14 q 158 -1 196 -6 q 94 22 117 4 q 63 60 72 39 q 51 95 53 81 q 50 110 50 110 q 81 341 54 224 q 146 579 108 458 q 219 747 185 685 q 285 841 253 810 q 347 883 317 872 q 408 893 376 893 q 462 883 432 897 q 524 840 492 869 q 583 765 556 810 q 625 664 610 721 q 658 563 639 625 q 698 421 678 500 q 734 254 718 342 q 758 76 750 167 q 758 64 758 76 q 749 35 757 51 q 722 7 740 19 q 667 -6 703 -6 m 158 -1 l 193 100 q 324 123 258 115 q 458 132 389 131 q 600 126 526 133 l 667 -6 q 606 -6 647 -6 q 511 -7 564 -7 q 401 -7 458 -7 q 294 -6 344 -7 q 207 -4 243 -6 q 158 -1 171 -3 z "}," ":{"ha":361,"x_min":0,"x_max":0,"o":""},"":{"ha":1072,"x_min":39,"x_max":1024,"o":"m 625 4 q 574 15 593 3 q 545 42 556 26 q 532 69 535 57 q 529 82 529 82 l 536 296 q 421 290 478 288 q 312 304 364 293 q 218 335 260 315 q 149 381 176 356 q 61 518 83 440 q 60 676 39 596 q 150 819 82 756 q 344 900 218 885 q 640 901 469 915 q 694 883 675 896 q 722 855 714 869 q 732 829 731 840 q 733 818 733 818 q 742 672 739 751 q 746 511 744 593 q 746 352 747 429 q 742 210 744 275 q 736 100 740 144 q 733 86 736 100 q 717 53 729 72 q 684 21 706 35 q 625 4 663 7 m 900 4 q 844 15 864 3 q 815 43 824 28 q 803 71 806 58 q 801 83 801 83 q 807 220 804 147 q 810 368 810 293 q 810 516 811 443 q 807 656 810 589 q 799 779 804 722 q 799 792 799 779 q 803 822 799 804 q 819 858 808 840 q 853 889 831 876 q 911 903 875 901 q 965 891 946 903 q 993 865 985 879 q 1003 838 1001 850 q 1006 826 1006 826 q 1016 685 1013 760 q 1022 531 1019 610 q 1022 376 1024 453 q 1018 229 1021 300 q 1008 99 1015 158 q 1005 85 1008 99 q 990 52 1001 71 q 958 19 979 33 q 900 4 936 4 z "},"!":{"ha":346,"x_min":49,"x_max":294,"o":"m 167 269 q 121 288 138 274 q 97 317 104 303 q 90 331 90 331 q 76 476 83 401 q 65 638 68 551 q 63 826 61 724 q 65 839 63 826 q 77 867 67 851 q 110 895 88 883 q 171 907 132 907 q 234 892 210 906 q 272 859 258 878 q 289 822 285 840 q 294 790 293 803 q 294 778 294 778 q 281 647 286 703 q 270 542 275 590 q 258 439 265 493 q 242 313 251 385 q 235 300 242 313 q 213 276 229 288 q 167 269 197 265 m 165 -3 q 106 11 133 -3 q 64 47 79 25 q 49 97 49 69 q 64 148 49 125 q 106 184 79 171 q 165 197 132 197 q 225 184 199 197 q 267 148 251 171 q 283 97 283 125 q 267 39 283 61 q 225 7 251 17 q 165 -3 199 -3 z "},"\"":{"ha":475,"x_min":49,"x_max":426,"o":"m 333 679 q 292 699 307 685 q 273 726 278 714 q 268 738 268 738 q 267 771 269 756 q 262 803 264 786 q 260 843 260 819 q 264 855 260 843 q 283 880 268 867 q 328 894 297 893 q 381 883 361 894 q 410 857 401 872 q 422 831 419 842 q 425 819 425 819 q 419 753 426 779 q 404 710 413 728 q 397 700 404 710 q 374 682 390 690 q 333 679 358 674 m 122 679 q 82 699 96 685 q 63 726 68 714 q 58 738 58 738 q 57 771 60 756 q 51 803 54 786 q 50 843 49 819 q 54 855 50 843 q 72 880 58 867 q 117 894 86 893 q 170 883 150 894 q 199 857 190 872 q 211 831 208 842 q 214 819 214 819 q 208 753 215 779 q 194 710 201 728 q 187 700 194 710 q 164 682 179 690 q 122 679 149 674 z "},"#":{"ha":946,"x_min":49,"x_max":897,"o":"m 682 3 q 626 17 647 3 q 592 51 604 32 q 577 83 581 69 q 574 97 574 97 q 565 228 568 157 q 560 375 561 299 q 560 530 558 451 q 567 683 563 608 q 576 825 571 758 q 579 837 576 825 q 590 864 582 849 q 618 891 599 879 q 671 901 638 903 q 731 888 708 901 q 764 857 753 875 q 780 821 775 839 q 785 790 785 803 q 785 778 785 778 q 776 655 779 722 q 772 515 774 588 q 772 367 771 442 q 775 220 772 293 q 782 82 778 147 q 780 69 782 82 q 769 41 778 57 q 740 13 760 25 q 682 3 719 1 m 272 3 q 215 17 236 3 q 182 51 193 32 q 167 83 171 69 q 164 97 164 97 q 155 228 158 157 q 150 375 151 299 q 151 530 149 451 q 157 683 153 608 q 167 825 161 758 q 169 837 167 825 q 179 864 171 849 q 207 891 188 879 q 261 901 226 903 q 319 888 297 901 q 353 857 342 875 q 369 821 365 839 q 374 790 374 803 q 374 778 374 778 q 365 655 368 722 q 362 515 363 588 q 362 367 361 442 q 365 220 363 293 q 371 82 368 147 q 369 69 371 82 q 359 41 368 57 q 329 13 350 25 q 272 3 308 1 m 143 135 q 129 138 143 135 q 97 149 115 140 q 65 176 79 158 q 50 224 51 193 q 60 269 49 253 q 88 293 72 286 q 117 302 104 300 q 129 304 129 304 q 451 324 282 318 q 793 332 619 331 q 803 329 793 332 q 830 320 814 326 q 861 302 846 314 q 887 274 876 290 q 897 233 897 257 q 886 185 897 203 q 860 160 875 168 q 833 151 844 153 q 822 149 822 149 l 143 135 m 143 511 q 129 514 143 511 q 97 525 115 517 q 65 551 79 533 q 50 599 51 569 q 60 646 49 629 q 88 670 72 663 q 117 679 104 678 q 129 681 129 681 q 451 701 282 694 q 793 708 619 707 q 803 706 793 708 q 830 697 814 703 q 861 679 846 690 q 887 651 876 668 q 897 611 897 633 q 885 563 897 581 q 859 538 874 544 q 833 528 844 531 q 822 525 822 525 l 143 511 z "},"$":{"ha":742,"x_min":49,"x_max":696,"o":"m 424 3 q 290 8 347 0 q 192 28 232 15 q 133 50 153 40 q 114 60 114 60 q 105 65 114 60 q 83 81 96 71 q 62 107 71 92 q 51 141 53 122 q 60 181 49 160 q 90 214 72 204 q 124 224 107 224 q 151 222 140 224 q 163 219 163 219 q 264 192 211 200 q 362 187 317 185 q 438 203 407 189 q 472 242 468 217 q 462 276 475 260 q 422 306 449 292 q 358 335 394 321 q 281 367 322 350 q 223 398 256 378 q 160 447 190 418 q 107 510 129 475 q 76 588 85 546 q 79 677 67 631 q 132 772 92 724 q 222 851 174 822 q 321 891 271 879 q 416 904 371 903 q 497 901 461 906 q 554 892 533 897 q 575 886 575 886 q 587 883 575 886 q 616 871 599 879 q 650 849 633 863 q 676 816 667 836 q 682 769 685 796 q 660 724 676 738 q 625 706 644 710 q 592 705 606 703 q 578 707 578 707 q 469 715 522 724 q 374 685 415 707 q 310 637 332 664 q 293 585 288 610 q 330 548 300 565 q 404 512 360 531 q 497 472 449 493 q 585 422 544 450 q 650 356 626 393 q 692 242 688 294 q 674 146 696 189 q 613 72 653 103 q 524 23 574 40 q 424 3 475 6 m 413 -144 q 370 -134 388 -146 q 345 -110 353 -122 q 338 -97 338 -97 q 324 -58 332 -83 q 309 -4 315 -32 q 301 44 303 24 l 507 49 q 506 -5 508 25 q 499 -60 503 -35 q 488 -103 494 -86 q 481 -112 488 -103 q 458 -133 474 -122 q 413 -144 442 -143 m 307 840 q 308 894 306 865 q 315 951 310 924 q 326 992 321 978 q 333 1002 326 992 q 356 1023 340 1013 q 401 1035 372 1033 q 443 1023 426 1035 q 468 999 460 1011 q 476 986 476 986 q 491 947 483 972 q 505 895 499 922 q 511 846 511 868 l 307 840 z "},"%":{"ha":1260,"x_min":49,"x_max":1211,"o":"m 428 13 q 385 39 399 22 q 367 72 371 56 q 366 100 364 89 q 368 111 368 111 q 458 331 403 208 q 581 592 514 454 q 717 868 647 731 q 723 878 717 868 q 742 898 729 888 q 776 913 756 908 q 825 908 797 918 q 872 882 858 899 q 889 848 886 865 q 889 819 892 831 q 886 808 886 808 q 749 511 813 653 q 633 250 685 369 q 543 38 582 131 q 531 26 543 38 q 493 6 518 14 q 428 13 468 -1 m 254 453 q 103 512 157 453 q 49 669 49 571 q 71 765 49 718 q 130 847 93 811 q 213 903 167 882 q 308 925 260 925 q 422 895 374 925 q 497 814 469 865 q 524 696 524 763 q 500 603 524 646 q 438 526 476 560 q 351 472 399 492 q 254 453 303 453 m 256 607 q 291 611 272 603 q 326 638 310 619 q 347 678 342 656 q 351 742 358 714 q 319 774 343 769 q 285 769 303 778 q 251 741 267 760 q 228 699 236 722 q 225 639 218 664 q 256 607 232 614 m 943 1 q 792 60 846 1 q 738 217 738 119 q 759 313 738 267 q 818 394 781 358 q 901 452 856 431 q 996 474 947 474 q 1110 444 1061 474 q 1185 363 1158 414 q 1211 244 1211 311 q 1188 151 1211 194 q 1126 73 1165 107 q 1040 20 1088 39 q 943 1 992 1 m 944 156 q 978 160 960 151 q 1013 185 997 168 q 1036 226 1029 203 q 1040 290 1047 263 q 1007 322 1032 317 q 973 317 992 326 q 940 289 954 307 q 918 246 925 271 q 914 186 907 211 q 944 156 921 161 z "},"&":{"ha":806,"x_min":44,"x_max":756,"o":"m 168 35 q 94 109 124 67 q 54 200 64 151 q 63 299 44 249 q 99 380 75 339 q 154 452 124 421 q 213 492 185 483 q 133 577 163 525 q 107 697 103 629 q 141 791 115 756 q 203 847 167 826 q 283 878 240 867 q 369 897 326 889 l 531 901 q 543 900 531 901 q 573 894 556 899 q 608 878 590 889 q 638 847 626 867 q 649 799 649 828 q 636 765 649 778 q 608 744 624 751 q 581 733 593 736 q 569 731 569 731 q 456 725 501 729 q 381 711 411 721 q 329 683 350 701 q 314 660 321 674 q 308 631 307 646 q 324 601 308 615 q 358 579 335 592 q 422 543 381 567 q 433 534 422 543 q 453 510 443 525 q 461 474 463 494 q 451 442 461 453 q 433 426 442 431 q 425 421 425 421 q 356 381 388 406 q 300 328 324 356 q 265 279 276 301 q 255 225 253 250 q 278 185 257 200 q 346 171 300 169 q 423 201 394 185 q 467 233 451 217 q 492 265 483 250 q 522 316 513 294 q 535 356 532 338 q 539 389 539 374 q 540 401 539 389 q 551 429 542 414 q 583 456 560 444 q 647 467 606 468 q 711 447 689 464 q 743 408 733 429 q 754 370 753 386 q 756 354 756 354 q 736 245 754 293 q 690 161 718 197 q 626 97 661 125 q 557 43 592 68 q 358 -12 458 -12 q 168 35 257 -12 m 396 -144 q 354 -134 371 -146 q 329 -110 338 -122 q 321 -97 321 -97 q 307 -58 315 -83 q 293 -4 299 -32 q 286 44 288 24 l 490 49 q 490 -5 492 25 q 483 -60 488 -35 q 471 -103 478 -86 q 465 -112 471 -103 q 442 -133 458 -122 q 396 -144 425 -143 m 290 840 q 292 894 289 865 q 300 951 294 924 q 311 992 306 978 q 317 1002 311 992 q 340 1023 324 1013 q 385 1035 356 1033 q 427 1023 411 1035 q 452 999 443 1011 q 461 986 461 986 q 474 947 467 972 q 489 895 482 922 q 496 846 496 868 l 290 840 z "},"'":{"ha":264,"x_min":49,"x_max":215,"o":"m 122 679 q 82 699 96 685 q 63 726 68 714 q 58 738 58 738 q 57 771 60 756 q 51 803 54 786 q 50 843 49 819 q 54 855 50 843 q 72 880 58 867 q 117 894 86 893 q 170 883 150 894 q 199 857 190 872 q 211 831 208 842 q 214 819 214 819 q 208 753 215 779 q 194 710 201 728 q 187 700 194 710 q 164 682 179 690 q 122 679 149 674 z "},"(":{"ha":450,"x_min":42,"x_max":403,"o":"m 290 -39 q 240 -41 263 -47 q 200 -23 217 -35 q 174 -1 183 -11 q 164 10 164 10 q 72 236 101 113 q 53 519 42 360 q 83 657 64 592 q 137 787 103 722 q 225 918 171 851 q 240 931 225 918 q 281 953 256 943 q 339 951 307 963 q 383 926 369 940 q 399 896 396 911 q 399 867 403 881 q 392 847 396 854 q 389 839 389 839 q 328 735 351 782 q 293 647 306 688 q 274 563 281 606 q 260 471 267 519 q 258 358 254 415 q 274 246 261 300 q 306 146 288 192 q 344 69 324 100 q 349 57 344 69 q 352 26 353 44 q 338 -10 351 8 q 290 -39 325 -28 z "},")":{"ha":450,"x_min":47,"x_max":408,"o":"m 161 -39 q 113 -11 126 -29 q 99 26 100 7 q 102 57 99 44 q 106 69 106 69 q 145 146 126 100 q 176 246 164 192 q 194 358 189 300 q 192 471 199 415 q 178 563 186 519 q 158 647 171 606 q 123 735 146 688 q 63 839 100 782 q 58 847 63 839 q 51 868 54 854 q 51 897 47 882 q 68 926 54 911 q 111 951 82 940 q 170 954 144 964 q 211 931 196 944 q 226 918 226 918 q 315 787 281 851 q 368 657 349 722 q 397 519 388 592 q 378 236 408 360 q 286 10 349 113 q 277 -1 286 10 q 251 -24 268 -11 q 210 -42 233 -36 q 161 -39 188 -47 z "},"*":{"ha":569,"x_min":49,"x_max":522,"o":"m 119 594 q 94 615 100 603 q 88 637 88 626 q 89 647 89 647 q 114 728 94 685 q 160 811 133 772 q 215 876 188 850 q 261 901 242 901 q 292 901 274 904 q 329 891 311 899 q 358 871 347 883 q 428 765 396 810 q 479 682 460 719 q 482 673 479 682 q 484 651 485 664 q 474 624 483 638 q 440 601 464 611 q 393 597 414 592 q 359 613 372 603 q 339 633 346 624 q 332 643 332 643 l 283 726 q 234 659 257 692 q 193 603 211 626 q 184 597 193 603 q 158 588 175 590 q 119 594 142 586 m 488 701 q 283 717 382 713 q 93 711 185 722 q 83 716 93 711 q 63 731 74 721 q 50 758 53 742 q 58 792 49 781 q 79 808 68 804 q 90 813 90 813 q 212 831 156 826 q 326 831 268 835 q 453 819 383 828 q 463 816 453 819 q 485 805 472 813 q 509 784 499 797 q 519 751 519 771 q 513 722 522 732 q 496 706 504 711 q 488 701 488 701 z "},"+":{"ha":758,"x_min":50,"x_max":708,"o":"m 382 85 q 323 100 344 86 q 291 133 301 114 q 277 166 281 151 q 274 181 274 181 q 267 327 268 260 q 268 457 265 394 q 276 585 271 519 q 286 726 281 650 q 288 739 286 726 q 299 767 290 751 q 326 793 307 782 q 381 804 346 804 q 439 791 417 803 q 473 760 461 779 q 489 724 485 742 q 493 694 493 707 q 493 682 493 682 q 483 510 486 590 q 480 348 481 431 q 481 165 479 265 q 479 153 481 165 q 469 124 478 140 q 440 96 460 107 q 382 85 419 85 m 50 438 q 65 494 50 474 q 98 526 79 515 q 131 541 117 538 q 146 544 146 544 q 246 554 200 551 q 335 557 292 557 q 424 554 379 557 q 519 547 468 551 q 632 536 569 543 q 644 534 632 536 q 671 523 656 532 q 697 494 686 514 q 708 440 708 475 q 694 383 707 404 q 663 350 682 361 q 626 335 644 339 q 595 332 607 332 q 583 332 583 332 q 462 342 517 339 q 355 347 407 346 q 249 346 303 347 q 132 342 194 344 q 120 343 132 342 q 92 353 108 344 q 63 381 75 361 q 50 438 51 400 z "},",":{"ha":332,"x_min":50,"x_max":283,"o":"m 115 -139 q 75 -112 86 -129 q 63 -80 64 -94 q 61 -65 61 -65 l 75 -4 q 51 65 50 29 q 76 127 53 100 q 135 160 99 154 q 207 151 178 163 q 252 122 236 140 q 275 85 268 104 q 283 50 282 65 q 274 -17 283 17 q 249 -78 264 -50 q 213 -121 233 -106 q 201 -130 213 -121 q 167 -144 189 -139 q 115 -139 144 -149 z "},"-":{"ha":708,"x_min":46,"x_max":660,"o":"m 154 353 q 140 353 153 353 q 110 358 128 353 q 78 376 93 363 q 54 414 63 389 q 50 459 46 442 q 64 487 54 476 q 83 501 74 497 q 92 504 92 504 q 172 519 129 513 q 260 531 214 526 q 356 538 307 536 q 460 537 406 539 q 571 526 514 535 q 584 521 571 526 q 615 503 597 515 q 647 475 633 492 q 660 433 660 458 q 647 385 660 403 q 617 360 633 368 q 588 349 600 351 q 575 347 575 347 q 472 354 517 351 q 390 359 426 357 q 319 360 354 361 q 244 358 283 360 q 154 353 204 357 z "},".":{"ha":332,"x_min":49,"x_max":283,"o":"m 165 -3 q 106 11 133 -3 q 64 47 79 25 q 49 97 49 69 q 64 148 49 125 q 106 184 79 171 q 165 197 132 197 q 225 184 199 197 q 267 148 251 171 q 283 97 283 125 q 249 20 283 43 q 165 -3 214 -3 z "},"/":{"ha":624,"x_min":49,"x_max":575,"o":"m 113 13 q 69 39 82 22 q 52 72 56 56 q 50 100 49 89 q 51 111 51 111 q 142 331 88 208 q 265 592 197 454 q 400 868 332 731 q 406 878 400 868 q 426 898 413 888 q 459 913 439 908 q 510 908 479 918 q 556 882 542 899 q 572 848 569 865 q 572 819 575 831 q 569 808 569 808 q 433 511 497 653 q 317 250 368 369 q 226 38 265 131 q 215 26 226 38 q 177 6 203 14 q 113 13 151 -1 z "},":":{"ha":332,"x_min":49,"x_max":283,"o":"m 165 453 q 106 466 133 453 q 64 502 79 479 q 49 553 49 525 q 64 603 49 581 q 106 640 79 626 q 165 653 132 653 q 225 640 199 653 q 267 603 251 626 q 283 553 283 581 q 267 494 283 517 q 225 462 251 471 q 165 453 199 453 m 165 176 q 106 190 133 176 q 64 227 79 204 q 49 278 49 250 q 64 328 49 306 q 106 363 79 350 q 165 376 132 376 q 225 363 199 376 q 267 328 251 350 q 283 278 283 306 q 267 219 283 242 q 225 186 251 196 q 165 176 199 176 z "},";":{"ha":339,"x_min":50,"x_max":290,"o":"m 121 76 q 80 105 92 88 q 67 137 68 122 q 65 151 65 151 l 81 211 q 58 281 56 246 q 82 344 60 317 q 139 376 104 371 q 213 368 185 379 q 257 339 242 357 q 280 301 272 321 q 290 267 288 282 q 281 200 290 233 q 256 139 271 167 q 219 94 240 111 q 207 85 219 94 q 173 72 194 76 q 121 76 151 67 m 167 450 q 108 463 135 450 q 66 499 82 476 q 50 550 50 522 q 66 601 50 578 q 108 637 82 624 q 167 650 135 650 q 226 637 200 650 q 269 601 253 624 q 285 550 285 578 q 269 491 285 514 q 226 459 253 468 q 167 450 200 450 z "},"<":{"ha":551,"x_min":47,"x_max":503,"o":"m 369 8 q 303 13 329 1 q 263 38 276 24 q 249 51 249 51 q 155 210 200 135 q 65 369 110 285 q 51 444 47 400 q 89 526 54 488 l 333 867 q 347 878 333 867 q 388 895 361 889 q 450 883 414 901 q 490 852 479 869 q 502 819 501 835 q 499 792 503 803 q 494 782 494 782 l 275 446 q 264 378 247 407 l 432 99 q 433 88 432 99 q 430 60 433 76 q 413 30 426 44 q 369 8 399 15 z "},"=":{"ha":664,"x_min":46,"x_max":615,"o":"m 615 261 q 602 213 615 231 q 572 188 589 196 q 543 177 556 179 q 531 175 531 175 q 435 181 475 179 q 363 185 394 183 q 301 185 331 186 q 235 183 271 185 q 153 176 200 181 q 141 176 153 176 q 112 182 129 176 q 78 200 94 188 q 54 239 63 213 q 50 283 46 267 q 65 310 54 300 q 84 325 75 321 q 93 329 93 329 q 217 353 151 342 q 360 366 283 364 q 528 354 438 368 q 541 349 528 354 q 572 331 554 343 q 602 302 589 319 q 615 261 615 285 m 615 521 q 602 473 615 490 q 572 447 589 456 q 543 437 556 439 q 531 435 531 435 q 435 441 475 439 q 363 444 394 443 q 301 445 331 446 q 235 442 271 444 q 153 436 200 440 q 141 437 153 436 q 112 442 129 438 q 78 460 94 446 q 54 499 63 474 q 50 542 46 525 q 65 570 54 560 q 84 584 75 581 q 93 588 93 588 q 217 613 151 601 q 360 626 283 624 q 528 614 438 628 q 541 608 528 614 q 572 590 554 601 q 602 562 589 579 q 615 521 615 544 z "},">":{"ha":551,"x_min":49,"x_max":504,"o":"m 182 8 q 139 30 153 15 q 122 60 125 44 q 119 88 118 76 q 119 99 119 99 l 288 378 q 276 446 304 407 l 57 782 q 53 792 57 782 q 49 819 49 803 q 61 852 50 835 q 101 883 72 869 q 164 895 138 901 q 204 878 190 889 q 218 867 218 867 l 463 526 q 501 444 497 488 q 486 369 504 400 q 397 210 442 285 q 303 51 351 135 q 289 38 303 51 q 249 13 275 24 q 182 8 222 1 z "},"?":{"ha":764,"x_min":46,"x_max":715,"o":"m 396 243 q 342 261 361 247 q 315 292 324 275 q 305 322 307 310 q 303 335 303 335 q 309 413 296 376 q 348 479 322 449 q 403 533 374 510 q 462 596 440 569 q 492 645 483 622 q 499 694 500 668 q 470 719 490 710 q 426 731 450 728 q 382 732 403 735 q 313 719 347 729 q 261 688 278 708 q 252 664 253 678 q 258 633 251 650 q 276 596 265 615 q 279 583 276 596 q 278 555 282 571 q 258 526 275 539 q 208 509 232 510 q 165 515 183 508 q 135 530 146 522 q 124 538 124 538 q 51 668 56 606 q 93 804 46 731 q 164 863 119 839 q 265 899 208 886 q 383 910 321 911 q 512 892 449 911 q 624 833 575 872 q 697 731 674 793 q 711 670 707 703 q 708 600 715 638 q 674 519 700 563 q 594 426 647 475 q 513 359 542 388 q 479 303 485 331 q 472 287 479 303 q 447 256 465 271 q 396 243 429 240 m 397 -3 q 338 11 365 -3 q 296 47 311 25 q 281 97 281 69 q 296 148 281 125 q 338 184 311 171 q 397 197 365 197 q 456 184 429 197 q 498 148 482 171 q 514 97 514 125 q 498 39 514 61 q 456 7 482 17 q 397 -3 429 -3 z "},"@":{"ha":1221,"x_min":40,"x_max":1176,"o":"m 475 -206 q 316 -142 392 -186 q 182 -31 240 -97 q 88 115 124 35 q 53 379 40 254 q 126 635 65 504 q 264 803 183 736 q 449 902 344 869 q 681 928 554 935 q 791 913 733 926 q 906 872 849 899 q 1013 802 963 844 q 1100 702 1063 760 q 1157 569 1138 644 q 1172 394 1176 475 q 1147 241 1167 313 q 1096 103 1126 169 q 1029 43 1069 63 q 945 25 989 24 q 861 44 901 26 q 794 119 821 65 q 764 274 768 172 q 702 192 732 228 q 640 132 672 157 q 568 86 608 107 q 485 77 524 69 q 417 106 446 85 q 371 150 388 128 q 331 277 333 203 q 350 439 328 351 q 450 619 383 551 q 621 683 517 686 q 784 629 717 679 q 900 469 851 579 q 906 444 903 463 q 911 400 908 425 q 916 349 914 375 q 922 301 918 322 q 928 271 925 281 q 954 235 939 229 q 982 289 969 242 q 1001 424 999 363 q 993 543 1004 485 q 920 676 968 625 q 813 753 872 728 q 686 779 753 778 q 526 759 603 782 q 389 688 450 736 q 289 564 328 639 q 235 429 251 501 q 222 286 218 357 q 249 154 226 215 q 292 78 265 118 q 362 4 318 39 q 471 -51 406 -31 q 539 -53 501 -56 q 618 -39 576 -51 q 697 1 660 -26 q 715 8 697 1 q 760 11 732 14 q 818 -18 788 8 q 842 -54 838 -36 q 844 -87 847 -72 q 836 -112 842 -103 q 831 -122 831 -122 q 720 -185 779 -164 q 599 -210 661 -206 q 475 -206 536 -214 m 518 247 q 551 265 531 243 q 592 319 571 286 q 637 393 614 354 q 683 475 660 432 q 647 528 667 514 q 604 536 628 543 q 558 491 581 529 q 517 386 536 453 q 504 321 507 353 q 505 268 501 289 q 518 247 508 247 z "},"[":{"ha":514,"x_min":49,"x_max":467,"o":"m 249 11 q 183 25 217 13 q 121 58 149 38 q 76 107 93 79 q 57 167 58 135 q 51 338 53 249 q 49 519 49 428 q 52 693 50 610 q 58 844 54 776 q 68 872 60 854 q 99 903 76 889 q 160 913 121 917 q 268 913 215 914 q 368 910 321 913 q 381 905 368 910 q 413 889 394 900 q 443 860 431 878 q 456 817 456 842 q 441 775 454 790 q 412 753 428 760 q 384 747 396 747 q 372 746 372 746 l 253 743 l 247 189 q 281 174 263 179 q 332 167 300 169 l 396 160 q 407 155 396 160 q 432 139 418 150 q 456 110 446 128 q 465 69 467 93 q 450 33 464 46 q 419 13 436 19 q 390 4 403 6 q 378 3 378 3 l 249 11 z "},"\\":{"ha":624,"x_min":49,"x_max":575,"o":"m 511 13 q 447 6 472 -1 q 409 26 421 14 q 397 38 397 38 q 306 250 358 131 q 190 511 254 369 q 53 808 126 653 q 51 819 53 808 q 51 848 49 831 q 68 882 54 865 q 114 908 82 899 q 165 913 144 918 q 198 898 185 908 q 217 878 211 888 q 224 868 224 868 q 358 592 292 731 q 481 331 425 454 q 572 111 536 208 q 574 100 572 111 q 572 72 575 89 q 555 39 568 56 q 511 13 542 22 z "},"^":{"ha":507,"x_min":50,"x_max":460,"o":"m 83 697 q 57 727 64 713 q 50 753 50 742 q 53 773 50 765 q 57 781 57 781 q 92 824 75 806 q 130 862 108 843 q 181 903 151 881 q 215 918 193 914 q 263 918 238 922 q 308 899 288 914 l 428 818 q 436 809 428 818 q 452 785 444 800 q 458 753 460 771 q 435 715 456 735 q 402 700 419 703 q 369 700 385 697 q 344 706 354 703 q 335 710 335 710 l 257 771 q 213 737 236 758 q 164 692 189 715 q 152 688 164 692 q 122 683 140 683 q 83 697 103 683 z "},"_":{"ha":739,"x_min":46,"x_max":690,"o":"m 54 75 q 50 119 46 101 q 65 147 54 136 q 84 161 75 157 q 93 165 93 165 q 238 187 156 178 q 413 197 319 196 q 601 183 506 197 q 615 178 601 183 q 646 160 628 172 q 677 131 664 149 q 689 89 690 114 q 676 41 689 58 q 647 16 664 24 q 617 6 631 8 q 604 4 604 4 q 476 13 533 10 q 369 17 419 17 q 268 17 319 18 q 154 13 217 17 q 142 13 154 13 q 112 17 129 13 q 78 36 94 22 q 54 75 63 50 z "},"`":{"ha":442,"x_min":49,"x_max":397,"o":"m 296 689 q 248 703 276 694 q 189 726 219 713 q 128 756 158 739 q 74 793 97 772 q 67 799 74 793 q 56 817 61 806 q 49 842 50 828 q 60 875 49 857 q 83 897 68 890 q 113 903 99 903 q 138 903 128 904 q 147 901 147 901 q 228 874 183 889 q 342 828 274 858 q 353 820 342 828 q 376 799 364 813 q 393 765 389 785 q 382 718 397 744 q 360 696 375 703 q 331 688 346 689 q 306 688 317 686 q 296 689 296 689 z "},"]":{"ha":514,"x_min":49,"x_max":465,"o":"m 136 3 q 124 4 136 3 q 94 13 111 6 q 65 33 78 19 q 50 69 51 46 q 58 110 49 93 q 83 139 68 128 q 108 155 97 150 q 118 160 118 160 l 183 167 q 234 174 215 169 q 268 189 253 179 l 263 743 l 143 746 q 131 747 143 746 q 102 753 118 747 q 74 775 86 760 q 60 817 61 790 q 72 860 58 842 q 102 889 85 878 q 133 905 119 900 q 147 910 147 910 q 247 913 196 913 q 354 913 299 914 q 417 903 396 917 q 447 872 439 889 q 456 844 456 854 q 463 693 460 776 q 465 519 465 610 q 464 338 465 428 q 458 167 463 249 q 439 107 457 135 q 393 58 421 79 q 332 25 365 38 q 267 11 299 13 l 136 3 z "},"{":{"ha":446,"x_min":47,"x_max":399,"o":"m 303 11 q 288 8 303 11 q 249 8 272 6 q 196 21 225 10 q 138 60 167 32 q 89 138 110 89 q 76 201 76 165 q 80 272 76 236 q 86 337 83 308 q 83 379 89 365 q 74 386 83 379 q 56 406 64 393 q 50 438 47 419 q 63 467 53 457 q 81 482 72 478 q 90 486 90 486 q 93 490 90 486 q 99 505 96 493 q 104 542 103 517 q 101 610 106 567 q 101 660 101 631 q 105 723 100 690 q 123 787 110 756 q 160 843 136 818 q 225 881 185 868 q 324 889 265 893 q 334 885 324 889 q 359 873 344 881 q 385 852 374 865 q 397 821 396 839 q 389 785 399 797 q 370 769 379 772 q 361 765 361 765 q 353 763 361 765 q 332 755 344 761 q 308 736 319 749 q 290 701 297 724 q 285 636 283 669 q 291 570 288 603 q 294 505 294 538 q 283 443 293 472 q 244 388 272 414 q 250 370 244 388 q 260 321 256 353 q 260 246 264 289 q 260 203 257 226 q 275 163 263 179 q 315 147 288 147 q 324 145 315 147 q 344 136 333 143 q 364 116 356 129 q 372 79 372 103 q 361 47 371 60 q 338 26 351 33 q 313 15 324 18 q 303 11 303 11 z "},"|":{"ha":324,"x_min":49,"x_max":274,"o":"m 172 3 q 115 17 136 3 q 82 51 93 32 q 67 83 71 69 q 64 97 64 97 q 55 228 58 157 q 50 375 51 299 q 51 530 49 451 q 57 683 53 608 q 67 825 61 758 q 69 837 67 825 q 79 864 71 849 q 107 891 88 879 q 161 901 126 903 q 219 888 197 901 q 253 857 242 875 q 269 821 265 839 q 274 790 274 803 q 274 778 274 778 q 265 655 268 722 q 262 515 263 588 q 262 367 261 442 q 265 220 263 293 q 271 82 268 147 q 269 69 271 82 q 259 42 268 57 q 230 14 250 26 q 172 3 210 1 z "},"~":{"ha":618,"x_min":47,"x_max":569,"o":"m 165 347 q 128 344 147 339 q 98 356 110 349 q 86 364 86 364 q 52 419 57 389 q 60 477 47 449 q 98 524 72 506 q 157 547 124 543 q 248 544 210 553 q 319 518 286 535 q 390 488 353 501 q 405 495 399 488 q 418 513 411 503 q 426 522 418 513 q 453 539 435 532 q 501 538 472 546 q 546 515 532 529 q 565 486 560 501 q 568 460 569 471 q 567 450 567 450 q 539 395 564 426 q 467 354 514 364 q 407 349 439 347 q 344 360 375 351 q 279 382 313 369 q 242 394 261 389 q 209 401 222 399 q 193 401 196 404 q 194 392 193 401 q 189 369 194 382 q 165 347 183 357 z "},"}":{"ha":446,"x_min":49,"x_max":399,"o":"m 143 11 q 133 15 143 11 q 109 26 122 18 q 85 47 96 33 q 75 79 75 60 q 83 116 74 103 q 103 136 92 129 q 122 145 114 143 q 131 147 131 147 q 172 163 158 147 q 188 203 185 179 q 188 246 190 226 q 188 321 183 289 q 197 370 192 353 q 203 388 203 388 q 163 443 174 414 q 153 505 153 472 q 156 570 153 538 q 162 636 160 603 q 156 701 164 669 q 139 736 150 724 q 115 755 128 749 q 94 763 103 761 q 86 765 86 765 q 76 769 86 765 q 58 785 67 772 q 50 821 49 797 q 62 852 51 839 q 87 873 72 865 q 112 885 101 881 q 122 889 122 889 q 222 881 182 893 q 286 843 261 868 q 324 787 311 818 q 342 723 338 756 q 347 660 347 690 q 344 610 346 631 q 343 542 342 567 q 347 505 344 517 q 353 490 350 493 q 357 486 357 486 q 365 482 357 486 q 384 467 374 478 q 396 438 394 457 q 390 406 399 419 q 372 386 382 393 q 363 379 363 379 q 360 337 357 365 q 367 272 363 308 q 370 201 371 236 q 358 138 369 165 q 308 60 336 89 q 251 21 281 32 q 198 8 222 10 q 158 8 174 6 q 143 11 143 11 z "},"":{"ha":346,"x_min":51,"x_max":297,"o":"m 175 -3 q 112 12 136 -1 q 74 44 88 25 q 57 82 61 63 q 52 114 53 101 q 51 126 51 126 q 66 258 61 203 q 76 363 71 314 q 88 465 81 411 q 104 592 94 519 q 110 604 104 592 q 133 628 117 617 q 179 635 150 639 q 226 617 210 632 q 249 588 243 601 q 256 574 256 574 q 271 427 264 503 q 282 266 278 351 q 283 76 286 181 q 281 64 283 76 q 269 35 279 51 q 236 8 258 19 q 175 -3 214 -4 m 181 707 q 122 720 149 707 q 79 756 94 733 q 64 806 64 778 q 79 865 64 843 q 122 897 94 888 q 181 907 149 907 q 240 894 214 907 q 282 857 267 881 q 297 806 297 833 q 282 756 297 778 q 240 720 267 733 q 181 707 214 707 z "},"":{"ha":751,"x_min":44,"x_max":703,"o":"m 376 93 q 193 141 263 99 q 90 254 124 183 q 50 417 57 325 q 66 558 44 490 q 133 678 88 625 q 243 763 178 732 q 392 793 308 794 q 515 774 465 792 q 598 729 565 756 q 648 676 631 703 q 672 633 665 650 q 679 615 679 615 q 681 605 679 615 q 680 580 682 594 q 668 553 678 565 q 639 538 658 540 q 591 540 611 532 q 560 560 571 549 q 549 571 549 571 q 540 583 549 571 q 515 612 532 596 q 470 638 497 628 q 407 643 443 647 q 349 627 379 640 q 291 590 318 614 q 247 528 264 565 q 229 438 231 490 q 242 338 228 375 q 281 281 257 300 q 331 256 304 263 q 379 247 357 249 q 458 249 421 242 q 522 272 494 257 q 564 297 549 286 q 579 307 579 307 q 594 312 579 307 q 631 315 608 317 q 676 293 654 313 q 699 261 694 276 q 701 233 703 246 q 694 213 699 221 q 690 206 690 206 q 673 187 690 206 q 619 144 656 168 q 522 105 582 121 q 376 93 463 89 m 400 -42 q 359 -30 376 -42 q 333 -6 342 -18 q 325 7 325 7 q 311 46 319 22 q 297 96 303 69 q 290 143 292 122 l 494 147 q 494 96 497 124 q 487 43 492 68 q 475 3 482 18 q 469 -8 475 3 q 446 -28 463 -18 q 400 -42 429 -39 m 293 749 q 294 803 292 772 q 301 860 296 833 q 313 903 306 888 q 319 913 313 903 q 342 934 325 924 q 388 944 358 944 q 429 935 413 947 q 454 910 446 922 q 463 897 463 897 q 477 857 469 883 q 491 803 485 831 q 497 753 497 775 l 293 749 z "},"":{"ha":681,"x_min":47,"x_max":632,"o":"m 171 0 q 97 24 122 3 q 67 76 71 46 q 76 133 63 107 q 106 177 96 160 q 119 218 115 194 q 125 282 124 242 q 119 372 125 324 q 106 470 113 419 q 97 571 99 521 q 106 668 96 621 q 146 776 115 725 q 229 860 176 826 q 357 897 282 894 q 441 883 397 897 q 522 840 485 869 q 581 764 560 811 q 585 752 581 764 q 590 724 590 740 q 581 692 590 707 q 543 669 571 676 q 501 670 521 665 q 471 683 482 675 q 460 692 460 692 q 432 714 447 704 q 400 729 417 724 q 367 721 385 731 q 332 692 349 711 q 308 647 315 674 q 298 582 299 621 q 302 496 297 543 q 314 395 307 449 q 326 285 321 342 q 327 223 328 256 q 307 161 326 190 q 373 167 347 165 q 419 172 399 169 q 464 174 440 174 q 524 175 488 175 q 535 173 524 175 q 562 166 546 171 q 594 152 578 161 q 621 128 610 143 q 632 89 632 113 q 620 44 632 60 q 592 21 608 28 q 565 12 576 14 q 553 10 553 10 q 494 8 536 10 q 395 6 451 7 q 280 3 339 4 q 171 0 221 1 m 113 350 q 97 355 110 350 q 69 373 83 360 q 51 408 56 386 q 53 438 47 426 q 68 458 58 450 q 85 469 78 465 q 93 472 93 472 q 194 486 138 479 q 314 498 251 493 q 436 501 376 503 q 447 501 436 501 q 476 497 458 500 q 510 485 493 493 q 538 460 526 476 q 551 418 550 443 q 539 372 551 388 q 508 350 526 356 q 478 344 490 344 q 465 343 465 343 q 341 347 406 344 q 217 350 276 349 q 113 350 157 351 z "},"":{"ha":768,"x_min":36,"x_max":724,"o":"m 376 314 q 168 398 247 331 q 63 576 89 465 q 65 825 36 686 q 69 837 65 825 q 86 865 74 849 q 120 890 99 881 q 176 893 142 900 q 235 871 215 888 q 263 836 256 854 q 273 804 271 818 q 275 790 275 790 q 280 581 263 654 q 356 500 297 508 q 414 527 385 503 q 465 592 443 551 q 496 683 486 633 q 496 783 506 733 q 494 797 496 783 q 494 828 492 810 q 513 864 497 847 q 563 888 528 881 q 631 885 603 894 q 674 858 658 875 q 698 826 690 840 q 706 813 706 813 q 716 652 724 735 q 670 497 708 569 q 560 374 632 424 q 376 314 488 325 m 210 75 q 188 76 204 75 q 153 87 171 78 q 125 119 136 96 q 122 151 118 139 q 135 171 126 164 q 151 181 144 178 q 158 183 158 183 q 330 208 236 199 q 546 203 424 218 q 557 199 546 203 q 583 186 568 194 q 609 165 599 178 q 619 136 619 153 q 608 101 619 114 q 583 83 597 89 q 558 76 568 78 q 547 75 547 75 q 463 80 499 78 q 398 83 426 82 q 342 83 369 83 q 283 81 314 82 q 210 75 251 79 m 386 7 q 330 20 351 7 q 297 49 308 33 q 279 78 285 65 q 274 90 274 90 q 261 255 260 172 q 272 415 263 338 l 481 413 q 471 232 469 317 q 479 81 472 147 q 478 69 479 81 q 468 44 476 58 q 440 18 460 29 q 386 7 421 7 m 210 240 q 194 240 206 240 q 170 244 183 240 q 144 256 157 247 q 125 283 132 265 q 122 315 118 303 q 134 334 125 328 q 151 344 143 340 q 158 347 158 347 q 330 372 236 363 q 546 365 424 381 q 557 361 546 365 q 583 349 568 357 q 609 328 599 340 q 619 299 619 315 q 608 265 619 276 q 583 247 597 253 q 558 240 568 242 q 547 239 547 239 q 463 244 499 242 q 398 247 426 246 q 342 247 369 247 q 283 244 314 246 q 210 240 251 243 z "},"":{"ha":311,"x_min":49,"x_max":263,"o":"m 164 453 q 113 467 133 456 q 81 494 93 479 q 63 522 68 510 q 58 533 58 533 q 51 647 53 592 q 51 763 49 701 q 57 900 53 824 q 60 911 57 900 q 72 937 63 922 q 101 962 81 951 q 156 971 121 972 q 214 956 193 971 q 246 922 235 940 q 260 889 257 903 q 263 875 263 875 q 257 695 257 776 q 263 532 257 614 q 260 519 263 532 q 248 490 257 507 q 219 463 239 474 q 164 453 200 451 m 164 -137 q 113 -123 133 -135 q 81 -96 93 -111 q 63 -69 68 -81 q 58 -57 58 -57 q 51 56 53 1 q 51 172 49 111 q 57 310 53 233 q 60 321 57 310 q 72 347 63 332 q 101 372 81 361 q 156 381 121 382 q 214 365 193 381 q 246 331 235 350 q 260 299 257 313 q 263 285 263 285 q 257 105 257 186 q 263 -58 257 24 q 260 -71 263 -58 q 248 -100 257 -83 q 219 -128 239 -117 q 164 -137 200 -139 z "},"":{"ha":561,"x_min":49,"x_max":511,"o":"m 290 -12 q 210 3 251 -12 q 132 42 168 18 q 72 94 96 65 q 49 150 49 124 q 65 184 49 172 q 97 196 82 196 q 139 185 119 196 q 178 162 158 175 q 219 138 199 149 q 263 126 240 126 q 278 131 272 126 q 289 144 285 136 q 293 160 293 151 q 278 197 293 179 q 240 233 263 215 q 194 273 217 251 q 157 322 172 294 q 142 382 142 349 q 158 450 142 415 q 208 507 174 485 q 132 575 160 539 q 94 648 104 611 q 83 715 83 685 q 97 791 83 757 q 137 849 111 825 q 199 887 163 874 q 281 900 236 900 q 372 880 328 900 q 451 829 417 860 q 503 768 486 799 q 507 758 503 768 q 511 733 511 747 q 499 697 511 711 q 465 682 486 682 q 441 688 451 682 q 431 693 431 693 q 387 719 406 706 q 351 743 368 733 q 313 753 333 753 q 287 747 300 753 q 266 731 274 742 q 258 704 258 721 q 275 656 258 678 q 319 615 292 635 q 376 574 346 594 q 431 531 406 554 q 454 500 446 515 q 463 467 463 485 q 460 451 463 458 q 453 438 457 443 q 444 429 450 433 q 431 422 438 425 q 378 407 404 414 q 337 392 353 400 q 321 367 321 383 q 336 335 321 350 q 373 305 351 321 q 417 269 394 289 q 455 222 440 249 q 469 156 469 194 q 445 61 469 99 q 380 6 421 24 q 290 -12 339 -12 z "},"":{"ha":982,"x_min":49,"x_max":933,"o":"m 493 0 q 241 62 339 0 q 96 226 143 124 q 49 454 49 329 q 102 681 49 579 q 255 842 156 782 q 493 901 354 903 q 620 876 557 901 q 740 808 683 851 q 840 705 796 764 q 908 576 883 646 q 933 432 933 507 q 885 210 933 308 q 739 56 836 113 q 493 0 642 0 m 479 185 q 344 222 394 190 q 269 308 293 254 q 239 431 244 363 q 264 568 235 503 q 351 674 293 633 q 492 713 410 714 q 600 692 558 713 q 664 646 642 672 q 694 599 686 619 q 703 579 703 579 q 703 567 703 579 q 699 540 704 554 q 672 521 693 525 q 637 523 651 517 q 615 538 622 529 q 607 546 607 546 q 600 556 607 546 q 581 577 593 565 q 549 597 568 589 q 501 600 529 604 q 460 588 482 597 q 418 560 438 578 q 386 514 399 542 q 374 446 374 486 q 383 370 372 399 q 410 328 393 342 q 447 309 428 314 q 482 301 465 304 q 540 303 513 297 q 587 321 567 310 q 617 340 607 332 q 628 349 628 349 q 639 352 628 349 q 667 354 650 356 q 700 338 683 353 q 719 306 718 321 q 716 281 721 290 q 711 271 711 271 q 699 256 711 271 q 658 224 686 242 q 587 194 631 207 q 479 185 543 182 m 494 118 q 669 160 600 118 q 772 274 738 201 q 807 438 807 346 q 780 569 807 507 q 708 679 753 631 q 607 756 663 728 q 494 785 551 785 q 324 740 396 785 q 215 620 253 696 q 178 453 178 544 q 211 285 178 361 q 315 164 244 210 q 494 118 385 118 z "},"":{"ha":822,"x_min":49,"x_max":774,"o":"m 419 181 q 211 231 293 181 q 89 364 129 281 q 49 546 49 447 q 92 726 49 644 q 217 855 136 807 q 413 901 299 903 q 542 872 478 901 q 659 790 607 842 q 742 671 711 738 q 774 529 774 604 q 736 351 774 431 q 619 226 699 272 q 419 181 540 181 m 421 293 q 548 324 497 293 q 624 410 599 356 q 649 533 649 465 q 628 631 649 585 q 576 715 608 678 q 503 772 543 751 q 421 793 463 793 q 297 760 349 793 q 218 670 246 726 q 190 546 190 614 q 215 419 190 478 q 290 327 239 361 q 421 293 342 293 m 343 354 q 314 366 324 356 q 301 386 304 376 q 299 396 299 396 q 296 477 297 426 q 295 584 294 528 q 300 686 296 640 q 301 694 300 686 q 310 710 303 701 q 338 721 318 718 q 458 720 408 726 q 535 688 507 714 q 576 597 576 649 q 536 507 576 544 q 497 483 521 493 q 443 469 472 474 q 381 469 414 465 l 383 386 q 381 378 383 386 q 369 363 378 371 q 343 354 361 354 m 494 375 q 426 415 460 396 q 344 461 392 435 q 355 473 344 465 q 378 488 365 481 q 402 500 392 494 q 413 506 413 506 q 447 491 433 497 q 474 477 461 485 q 502 460 486 469 q 542 433 518 450 q 549 426 542 433 q 558 406 556 418 q 547 378 561 394 q 526 369 539 369 q 504 372 514 368 q 494 375 494 375 m 381 550 q 438 556 417 549 q 467 575 458 563 q 478 601 476 588 q 465 636 478 625 q 431 651 453 647 q 385 653 410 656 q 381 601 382 628 q 381 550 381 575 z "},"":{"ha":599,"x_min":49,"x_max":550,"o":"m 300 426 q 158 460 214 426 q 76 549 103 493 q 49 672 49 606 q 78 796 49 740 q 165 884 108 851 q 300 915 221 917 q 390 895 346 915 q 470 839 433 875 q 528 757 507 803 q 550 660 550 711 q 488 493 550 560 q 300 426 425 426 m 272 567 q 338 583 313 560 q 371 646 364 606 q 370 697 378 672 q 347 740 363 722 q 313 760 332 757 q 248 742 275 767 q 213 679 221 718 q 218 606 204 639 q 272 567 232 574 z "},"":{"ha":475,"x_min":46,"x_max":425,"o":"m 364 96 q 323 85 344 83 q 283 97 301 88 q 253 114 264 106 q 242 122 242 122 q 190 178 213 154 q 147 227 167 201 q 101 289 126 253 q 57 365 68 333 q 50 422 46 397 q 64 467 54 447 q 116 564 86 513 q 183 665 146 615 q 264 756 221 715 q 273 765 264 756 q 299 783 282 774 q 337 794 315 793 q 383 782 358 796 q 417 753 408 768 q 425 724 425 738 q 422 701 425 710 q 418 692 418 692 q 358 603 386 643 q 303 523 329 563 q 250 435 278 483 q 257 344 226 385 l 378 208 q 383 202 378 208 q 395 184 389 196 q 403 158 401 172 q 396 127 404 143 q 364 96 388 111 z "},"":{"ha":475,"x_min":50,"x_max":429,"o":"m 111 96 q 80 127 88 111 q 74 158 72 143 q 81 184 75 172 q 92 202 86 196 q 99 208 99 208 l 219 344 q 226 435 249 385 q 172 523 199 483 q 118 603 146 563 q 57 692 90 643 q 54 701 57 692 q 51 724 51 710 q 58 753 50 738 q 92 782 67 768 q 139 794 118 796 q 176 783 160 793 q 202 765 193 774 q 211 756 211 756 q 292 665 254 715 q 359 564 329 615 q 411 467 389 513 q 426 422 422 447 q 419 365 429 397 q 374 289 408 333 q 329 227 350 253 q 287 178 308 201 q 235 122 265 154 q 223 114 235 122 q 192 97 211 106 q 153 85 174 88 q 111 96 132 83 z "},"":{"ha":624,"x_min":49,"x_max":575,"o":"m 113 13 q 69 39 82 22 q 52 72 56 56 q 50 100 49 89 q 51 111 51 111 q 142 331 88 208 q 265 592 197 454 q 400 868 332 731 q 406 878 400 868 q 426 898 413 888 q 459 913 439 908 q 510 908 479 918 q 556 882 542 899 q 572 848 569 865 q 572 819 575 831 q 569 808 569 808 q 433 511 497 653 q 317 250 368 369 q 226 38 265 131 q 215 26 226 38 q 177 6 203 14 q 113 13 151 -1 z "},"":{"ha":708,"x_min":46,"x_max":660,"o":"m 154 353 q 140 353 153 353 q 110 358 128 353 q 78 376 93 363 q 54 414 63 389 q 50 459 46 442 q 64 487 54 476 q 83 501 74 497 q 92 504 92 504 q 172 519 129 513 q 260 531 214 526 q 356 538 307 536 q 460 537 406 539 q 571 526 514 535 q 584 521 571 526 q 615 503 597 515 q 647 475 633 492 q 660 433 660 458 q 647 385 660 403 q 617 360 633 368 q 588 349 600 351 q 575 347 575 347 q 472 354 517 351 q 390 359 426 357 q 319 360 354 361 q 244 358 283 360 q 154 353 204 357 z "},"":{"ha":997,"x_min":47,"x_max":949,"o":"m 186 -1 q 175 1 186 -1 q 149 13 164 4 q 124 37 135 21 q 111 81 113 53 q 113 118 110 97 q 125 160 115 139 q 156 200 135 181 q 244 267 206 238 q 317 322 283 296 q 385 372 351 347 q 458 426 419 397 q 387 495 424 464 q 308 559 350 526 q 212 632 265 592 q 89 726 158 672 q 82 733 89 726 q 67 751 75 739 q 53 783 58 763 q 51 829 47 803 q 72 890 56 868 q 108 920 89 911 q 141 931 126 929 q 156 932 156 932 q 278 924 211 926 q 419 922 346 922 q 569 922 493 921 q 719 926 644 924 q 861 932 793 928 q 875 929 861 932 q 906 917 889 926 q 936 888 924 908 q 947 832 949 868 q 933 777 946 799 q 902 744 919 756 q 872 728 885 732 q 858 724 858 724 q 760 714 811 717 q 658 710 710 711 q 556 710 607 708 q 454 714 504 713 q 520 665 489 689 q 580 617 551 642 q 636 560 608 592 q 678 476 668 524 q 664 376 689 428 q 620 328 644 356 q 560 267 596 300 q 468 199 524 235 q 558 197 519 197 q 628 196 596 196 q 694 197 661 196 q 767 199 726 197 q 865 204 808 201 q 878 203 865 204 q 908 192 892 201 q 937 163 925 183 q 947 107 949 142 q 931 51 944 72 q 899 19 917 31 q 867 3 881 8 q 854 -1 854 -1 q 729 -11 794 -7 q 597 -16 664 -15 q 460 -15 529 -17 q 323 -10 392 -14 q 186 -1 254 -7 z "},"":{"ha":1760,"x_min":49,"x_max":1711,"o":"m 428 13 q 385 39 399 22 q 367 72 371 56 q 366 100 364 89 q 368 111 368 111 q 458 331 403 208 q 581 592 514 454 q 717 868 647 731 q 723 878 717 868 q 742 898 729 888 q 776 913 756 908 q 825 908 797 918 q 872 882 858 899 q 889 848 886 865 q 889 819 892 831 q 886 808 886 808 q 749 511 813 653 q 633 250 685 369 q 543 38 582 131 q 531 26 543 38 q 493 6 518 14 q 428 13 468 -1 m 254 453 q 103 512 157 453 q 49 669 49 571 q 70 764 49 718 q 129 846 92 810 q 213 903 167 882 q 308 925 258 925 q 422 895 374 925 q 497 814 469 865 q 524 696 524 763 q 500 603 524 646 q 438 526 476 560 q 351 472 399 492 q 254 453 303 453 m 256 607 q 291 611 272 603 q 326 638 310 619 q 347 678 342 656 q 351 742 358 714 q 319 774 343 769 q 285 769 303 778 q 251 741 267 760 q 228 699 236 722 q 225 639 218 664 q 256 607 232 614 m 943 1 q 792 60 846 1 q 738 217 738 119 q 759 313 738 267 q 817 394 781 358 q 901 452 854 431 q 996 474 947 474 q 1109 444 1061 474 q 1184 363 1157 414 q 1211 244 1211 311 q 1188 151 1211 194 q 1126 73 1165 107 q 1040 20 1088 39 q 943 1 992 1 m 944 156 q 978 160 960 151 q 1013 185 997 168 q 1036 226 1029 203 q 1040 290 1047 263 q 1007 322 1032 317 q 973 317 992 326 q 940 289 954 307 q 918 246 925 271 q 914 186 907 211 q 944 156 921 161 m 1443 1 q 1292 60 1346 1 q 1238 217 1238 119 q 1259 313 1238 267 q 1317 394 1281 358 q 1401 452 1354 431 q 1496 474 1447 474 q 1609 444 1561 474 q 1684 363 1657 414 q 1711 244 1711 311 q 1688 151 1711 194 q 1626 73 1665 107 q 1540 20 1588 39 q 1443 1 1492 1 m 1444 156 q 1478 160 1460 151 q 1513 185 1497 168 q 1536 226 1529 203 q 1540 290 1547 263 q 1507 322 1532 317 q 1473 317 1492 326 q 1440 289 1454 307 q 1418 246 1425 271 q 1414 186 1407 211 q 1444 156 1421 161 z "},"":{"ha":994,"x_min":49,"x_max":946,"o":"m 165 -3 q 106 11 133 -3 q 64 47 79 25 q 49 97 49 69 q 64 148 49 125 q 106 184 79 171 q 165 197 132 197 q 225 184 199 197 q 267 148 251 171 q 283 97 283 125 q 249 20 283 43 q 165 -3 214 -3 m 496 -3 q 438 11 464 -3 q 396 47 411 25 q 381 97 381 69 q 396 148 381 125 q 438 184 411 171 q 496 197 464 197 q 556 184 529 197 q 599 148 583 171 q 614 97 614 125 q 580 20 614 43 q 496 -3 546 -3 m 828 -3 q 769 11 796 -3 q 727 47 743 25 q 711 97 711 69 q 726 148 711 125 q 769 184 742 171 q 828 197 796 197 q 888 184 861 197 q 930 148 914 171 q 946 97 946 125 q 911 20 946 43 q 828 -3 876 -3 z "},"":{"ha":708,"x_min":46,"x_max":660,"o":"m 154 353 q 139 353 151 353 q 110 358 126 353 q 78 376 93 363 q 54 414 63 389 q 50 459 46 442 q 64 487 54 476 q 83 501 74 497 q 92 504 92 504 q 172 519 129 513 q 260 531 214 526 q 356 538 307 536 q 460 537 406 539 q 571 526 514 535 q 584 521 571 526 q 615 503 597 515 q 647 475 633 492 q 660 433 660 458 q 647 385 660 403 q 617 360 633 368 q 588 349 600 351 q 575 347 575 347 q 472 354 517 351 q 390 359 426 357 q 319 360 354 361 q 244 358 283 360 q 154 353 204 357 z "},"":{"ha":986,"x_min":46,"x_max":938,"o":"m 938 433 q 924 385 938 403 q 894 360 911 368 q 865 349 878 351 q 853 347 853 347 q 722 354 794 351 q 571 359 649 357 q 416 360 493 361 q 272 358 339 360 q 154 353 204 357 q 142 353 154 353 q 113 358 131 353 q 78 376 94 363 q 54 414 63 389 q 50 459 46 442 q 64 487 54 476 q 83 501 74 497 q 92 504 92 504 q 178 517 124 511 q 302 528 233 524 q 447 535 371 532 q 596 539 522 539 q 735 536 669 539 q 849 526 801 533 q 862 521 849 526 q 893 503 875 515 q 924 475 911 492 q 938 433 938 458 z "},"":{"ha":332,"x_min":49,"x_max":283,"o":"m 165 338 q 106 351 133 338 q 64 388 79 365 q 49 438 49 410 q 64 488 49 465 q 106 524 79 511 q 165 538 132 538 q 225 524 199 538 q 267 488 251 511 q 283 438 283 465 q 267 379 283 401 q 225 347 251 357 q 165 338 199 338 z "},"":{"ha":418,"x_min":49,"x_max":369,"o":"m 208 301 q 128 319 164 301 q 70 369 92 338 q 49 438 49 400 q 70 508 49 476 q 128 557 92 539 q 208 575 164 575 q 290 556 254 575 q 348 507 326 538 q 369 438 369 476 q 348 359 369 389 q 290 315 326 329 q 208 301 254 301 z "},"":{"ha":618,"x_min":47,"x_max":569,"o":"m 165 208 q 128 205 147 200 q 98 217 110 210 q 86 225 86 225 q 52 280 57 250 q 60 338 47 310 q 98 385 72 367 q 157 408 124 404 q 248 405 210 414 q 319 379 286 396 q 390 349 353 363 q 405 356 399 349 q 418 374 411 364 q 426 383 418 374 q 453 400 435 393 q 501 399 472 407 q 546 376 532 390 q 565 347 560 363 q 568 322 569 332 q 567 311 567 311 q 539 256 564 288 q 467 215 514 225 q 407 210 439 208 q 344 222 375 213 q 279 243 313 231 q 242 255 261 250 q 209 263 222 260 q 193 263 196 265 q 194 253 193 263 q 189 231 194 243 q 165 208 183 218 m 165 486 q 128 483 147 478 q 98 495 110 488 q 86 503 86 503 q 52 558 57 528 q 60 616 47 588 q 98 663 72 644 q 157 686 124 682 q 248 683 210 692 q 319 657 286 674 q 390 626 353 640 q 405 634 399 626 q 418 651 411 642 q 426 661 418 651 q 453 678 435 671 q 501 676 472 685 q 546 654 532 668 q 565 625 560 640 q 568 599 569 610 q 567 589 567 589 q 539 534 564 565 q 467 493 514 503 q 407 488 439 486 q 344 499 375 490 q 279 521 313 508 q 242 533 261 528 q 209 540 222 538 q 193 540 196 543 q 194 531 193 540 q 189 508 194 521 q 165 486 183 496 z "},"":{"ha":1008,"x_min":49,"x_max":960,"o":"m 721 122 q 613 140 667 122 q 517 198 560 158 q 449 300 474 238 q 426 451 425 363 q 465 619 429 543 q 559 740 500 694 q 692 786 618 786 q 794 760 746 786 q 878 688 842 733 q 937 585 915 643 q 958 463 958 526 q 930 293 960 371 q 847 169 900 215 q 721 122 793 122 m 346 122 q 238 140 292 122 q 141 198 183 158 q 74 300 99 238 q 50 451 49 363 q 89 619 53 543 q 184 740 125 694 q 315 786 243 786 q 419 760 371 786 q 503 688 467 733 q 560 585 539 643 q 582 463 582 526 q 554 293 583 371 q 472 169 525 215 q 346 122 418 122 m 325 332 q 369 347 351 332 q 397 387 388 361 q 407 443 407 413 q 399 487 407 464 q 377 528 390 510 q 347 557 364 546 q 310 568 329 568 q 265 549 285 568 q 235 503 246 531 q 225 443 224 475 q 241 378 226 403 q 278 343 256 354 q 325 332 300 332 m 701 332 q 746 347 728 332 q 774 387 764 361 q 782 443 783 413 q 774 487 782 464 q 753 528 767 510 q 722 557 740 546 q 686 568 704 568 q 641 549 661 568 q 610 503 621 531 q 600 443 600 475 q 617 378 603 403 q 654 343 632 354 q 701 332 676 332 z "},"":{"ha":839,"x_min":50,"x_max":793,"o":"m 328 11 q 259 42 296 22 q 188 96 222 63 q 124 179 153 129 q 78 300 96 229 q 64 439 64 371 q 78 597 64 507 q 81 613 78 597 q 97 647 85 629 q 135 676 110 665 q 206 675 161 688 q 262 644 243 665 q 286 601 281 624 q 292 563 292 579 q 292 547 292 547 q 281 376 278 458 q 311 246 285 294 q 351 203 328 218 q 401 187 375 189 q 452 192 428 185 q 493 211 476 199 q 525 270 514 229 q 538 358 536 311 q 532 440 539 404 q 518 508 525 478 q 506 565 511 539 q 500 610 501 590 q 501 620 500 610 q 509 646 501 631 q 535 674 517 661 q 588 688 553 686 q 647 677 621 692 q 689 648 674 663 q 704 633 704 633 q 748 551 725 603 q 782 438 771 499 q 788 306 793 363 q 766 206 783 250 q 719 115 749 161 q 644 51 689 78 q 545 10 599 24 q 436 -5 492 -4 q 328 11 381 -6 m 171 -168 q 120 -153 140 -165 q 88 -126 100 -142 q 70 -99 75 -110 q 65 -87 65 -87 q 53 49 57 -12 q 50 169 50 111 q 53 292 50 226 q 64 442 57 358 q 67 453 64 442 q 78 479 69 465 q 108 504 88 493 q 163 514 129 515 q 222 498 200 513 q 253 465 243 483 q 267 431 264 446 q 271 417 271 417 q 263 253 265 328 q 262 98 260 178 q 269 -89 264 18 q 267 -101 269 -89 q 256 -131 265 -114 q 227 -158 247 -147 q 171 -168 207 -169 z "},"":{"ha":664,"x_min":46,"x_max":615,"o":"m 615 261 q 602 213 615 231 q 572 188 589 196 q 543 177 556 179 q 531 175 531 175 q 435 181 475 179 q 363 185 394 183 q 301 185 331 186 q 235 183 271 185 q 153 176 200 181 q 141 176 153 176 q 112 182 129 176 q 78 200 94 188 q 54 239 63 213 q 50 283 46 267 q 65 310 54 300 q 84 325 75 321 q 93 329 93 329 q 217 353 151 342 q 360 366 283 364 q 528 354 438 368 q 541 349 528 354 q 572 331 554 343 q 602 302 589 319 q 615 261 615 285 m 615 521 q 602 473 615 490 q 572 447 589 456 q 543 437 556 439 q 531 435 531 435 q 435 441 475 439 q 363 444 394 443 q 301 445 331 446 q 235 442 271 444 q 153 436 200 440 q 141 437 153 436 q 112 442 129 438 q 78 460 94 446 q 54 499 63 474 q 50 542 46 525 q 65 570 54 560 q 84 584 75 581 q 93 588 93 588 q 217 613 151 601 q 360 626 283 624 q 528 614 438 628 q 541 608 528 614 q 572 590 554 601 q 602 562 589 579 q 615 521 615 544 m 133 13 q 90 39 103 22 q 73 72 76 56 q 71 100 69 89 q 72 111 72 111 q 163 331 108 208 q 285 592 218 454 q 421 868 353 731 q 427 878 421 868 q 447 898 433 888 q 480 913 460 908 q 531 908 500 918 q 576 882 563 899 q 593 848 590 865 q 593 819 596 831 q 590 808 590 808 q 453 511 518 653 q 338 250 389 369 q 247 38 286 131 q 235 26 247 38 q 198 6 224 14 q 133 13 172 -1 z "},"":{"ha":1081,"x_min":47,"x_max":1032,"o":"m 258 392 q 219 406 232 392 q 201 433 206 419 q 196 446 196 446 q 190 538 192 489 q 188 640 188 588 q 190 743 188 692 q 197 843 193 794 q 200 854 197 843 q 214 876 203 865 q 253 888 225 888 q 293 878 279 888 q 312 858 307 869 q 317 838 317 846 q 318 829 318 829 q 313 740 314 789 q 311 640 311 692 q 313 535 311 588 q 317 438 314 483 q 315 426 317 438 q 300 402 313 414 q 258 392 288 390 m 413 790 q 318 797 371 794 q 213 799 265 799 q 119 799 160 800 q 110 799 119 799 q 87 803 100 799 q 63 816 74 807 q 50 843 53 825 q 55 872 47 861 q 74 886 63 882 q 95 892 86 890 q 104 893 104 893 q 251 905 178 901 q 397 899 324 908 q 407 896 397 899 q 431 886 417 893 q 454 867 444 879 q 464 836 464 856 q 456 809 464 818 q 438 796 449 800 q 420 791 428 792 q 413 790 413 790 m 560 392 q 520 406 533 393 q 502 433 507 419 q 497 446 497 446 q 490 567 492 503 q 490 696 488 631 q 497 825 492 761 q 501 835 497 825 q 514 857 504 846 q 544 868 524 868 q 578 865 558 869 q 614 843 597 861 q 663 779 642 807 q 702 726 683 751 q 743 672 721 701 q 781 713 763 692 q 817 758 799 733 q 858 812 835 782 q 911 882 881 842 q 926 894 911 882 q 971 903 940 907 q 1014 885 1001 900 q 1029 856 1026 869 q 1032 842 1032 842 q 1026 753 1028 803 q 1025 651 1025 704 q 1027 544 1025 597 q 1031 442 1029 490 q 1028 428 1031 442 q 1013 403 1025 415 q 974 392 1001 390 q 933 406 946 393 q 915 431 919 418 q 910 443 910 443 q 903 518 906 481 q 902 594 901 556 q 904 669 903 632 q 865 616 885 640 q 819 569 846 592 q 771 544 799 550 q 714 553 743 539 q 669 591 696 568 q 613 661 643 614 q 613 601 613 625 q 613 554 613 576 q 613 506 613 532 q 617 439 614 479 q 614 426 617 439 q 599 402 611 414 q 560 392 588 390 z "},"":{"ha":1001,"x_min":49,"x_max":953,"o":"m 833 35 q 798 55 810 39 q 782 90 786 71 q 778 122 778 108 q 778 135 778 135 q 785 224 781 183 q 791 303 789 264 q 789 388 793 343 q 666 383 732 385 q 529 380 600 381 q 390 381 458 379 q 258 386 321 383 q 142 394 194 389 q 128 398 142 394 q 97 413 114 401 q 65 445 79 424 q 50 501 51 467 q 61 556 49 536 q 90 586 74 576 q 120 599 107 596 q 133 601 133 601 q 276 595 201 597 q 426 592 350 593 q 574 591 501 590 q 713 594 646 592 q 836 601 781 596 q 851 600 836 601 q 887 590 867 599 q 924 560 907 581 q 943 503 940 540 q 953 364 953 436 q 944 221 953 292 q 914 88 935 150 q 910 78 914 88 q 898 56 907 68 q 874 37 889 44 q 833 35 858 29 z "},"":{"ha":764,"x_min":47,"x_max":718,"o":"m 381 -3 q 252 17 315 -3 q 140 76 189 36 q 65 176 92 117 q 52 238 57 204 q 55 308 47 271 q 90 389 63 346 q 169 482 117 432 q 251 548 222 519 q 283 606 279 576 q 291 622 283 606 q 317 653 299 638 q 368 664 335 668 q 421 647 401 661 q 449 615 440 632 q 458 585 457 599 q 460 572 460 572 q 453 495 467 532 q 415 428 440 458 q 360 375 390 399 q 303 313 325 340 q 272 263 281 286 q 265 214 264 239 q 294 188 274 197 q 338 176 314 179 q 381 176 361 174 q 452 190 418 179 q 503 219 486 200 q 511 244 511 231 q 506 276 511 258 q 488 313 500 293 q 485 324 488 313 q 485 353 482 336 q 506 381 489 369 q 556 399 532 397 q 599 393 581 400 q 629 378 618 386 q 640 371 640 371 q 713 240 707 304 q 671 104 718 176 q 600 46 644 69 q 499 10 556 22 q 381 -3 443 -3 m 367 710 q 308 724 335 710 q 265 760 282 738 q 249 810 249 782 q 265 869 249 847 q 308 901 282 892 q 367 910 335 910 q 425 897 399 910 q 467 860 451 883 q 483 810 483 838 q 467 760 483 782 q 425 724 451 738 q 367 710 399 710 z "},"":{"ha":706,"x_min":50,"x_max":651,"o":"m 575 1 q 527 10 551 1 q 481 37 503 19 q 445 81 460 54 q 426 142 431 107 q 423 367 419 272 q 436 539 426 463 l 240 540 l 165 692 l 528 690 q 556 687 539 690 q 589 676 572 683 q 619 654 606 668 q 636 619 632 640 q 632 567 640 597 q 620 505 625 544 q 612 417 615 465 q 607 317 608 368 q 605 222 606 267 q 607 143 604 176 q 618 131 608 140 q 638 106 628 121 q 649 68 649 90 q 641 37 651 51 q 622 14 631 22 q 601 4 611 7 q 575 1 590 1 m 178 1 q 126 16 147 4 q 93 43 106 28 q 76 70 81 58 q 71 82 71 82 q 58 219 63 157 q 51 342 53 282 q 53 469 50 403 q 64 619 56 536 q 67 631 64 619 q 78 657 69 643 q 107 682 88 671 q 163 692 126 693 q 219 676 199 692 q 251 642 240 661 q 265 610 263 624 q 268 596 268 596 q 263 469 264 528 q 263 350 261 410 q 268 225 265 290 q 275 81 271 160 q 273 68 275 81 q 262 39 271 56 q 233 11 253 22 q 178 1 213 0 z "},"":{"ha":439,"x_min":46,"x_max":392,"o":"m 190 576 q 86 620 126 576 q 50 732 46 664 q 73 819 53 778 q 128 885 93 860 q 210 911 164 911 q 274 903 242 911 q 334 874 307 894 q 376 820 361 854 q 389 736 392 786 q 368 666 388 696 q 319 616 349 636 q 255 586 289 596 q 190 576 221 576 m 204 651 q 250 662 228 651 q 288 693 272 672 q 304 746 303 714 q 294 801 307 781 q 260 829 281 821 q 217 838 240 838 q 177 824 196 838 q 147 788 158 811 q 133 739 136 765 q 151 674 132 697 q 204 651 171 651 z "},"":{"ha":443,"x_min":49,"x_max":393,"o":"m 204 389 q 125 409 161 389 q 69 463 89 429 q 49 539 49 497 q 71 621 50 586 q 128 676 92 656 q 207 697 164 697 q 322 660 283 699 q 360 543 360 622 q 344 468 360 503 q 293 412 328 433 q 204 389 258 390 m 207 474 q 242 484 226 474 q 268 513 258 494 q 278 550 278 531 q 260 607 278 589 q 214 625 242 625 q 182 613 197 625 q 158 581 167 600 q 149 542 149 563 q 165 493 149 513 q 207 474 181 474 m 354 389 q 322 399 332 389 q 313 408 313 408 q 303 542 306 476 q 306 681 300 607 q 316 690 306 681 q 350 697 326 700 q 382 683 374 694 q 392 659 390 671 q 393 647 393 647 q 389 574 390 606 q 389 510 388 543 q 393 425 390 476 q 391 416 393 425 q 381 399 389 407 q 354 389 374 390 z "},"":{"ha":339,"x_min":49,"x_max":290,"o":"m 239 456 q 202 469 214 456 q 188 496 190 482 q 185 510 185 510 q 180 594 182 547 q 178 690 178 642 q 181 776 178 739 l 125 728 q 117 724 125 728 q 95 719 108 719 q 65 732 82 719 q 50 756 51 744 q 53 775 49 767 q 57 783 57 783 l 165 869 q 214 899 190 893 q 254 900 238 904 q 279 883 272 894 q 288 863 286 872 q 290 853 290 853 q 286 774 288 818 q 285 681 285 729 q 286 586 285 633 q 289 499 288 539 q 288 488 289 499 q 276 465 286 476 q 239 456 265 454 z "},"":{"ha":382,"x_min":47,"x_max":333,"o":"m 124 474 q 97 480 111 472 q 76 501 83 488 q 74 532 68 515 q 178 708 147 644 q 203 800 210 771 q 192 817 200 810 q 171 826 183 825 q 140 818 153 825 q 117 803 126 811 q 108 799 117 803 q 88 794 100 794 q 61 806 75 794 q 49 824 50 815 q 51 838 47 832 q 57 847 56 844 q 107 886 79 871 q 178 903 135 901 q 251 876 219 901 q 298 814 283 851 q 303 738 313 776 q 283 676 294 706 q 252 615 271 646 q 207 549 233 583 l 290 549 q 300 546 290 549 q 321 535 310 543 q 332 513 332 528 q 326 491 333 499 q 311 481 318 483 q 304 478 304 478 l 124 474 z "},"":{"ha":356,"x_min":47,"x_max":311,"o":"m 194 478 q 151 483 175 478 q 105 502 126 489 q 68 532 83 515 q 60 540 68 532 q 50 561 53 549 q 58 588 47 574 q 83 599 69 600 q 106 593 96 597 q 115 589 115 589 q 145 567 132 576 q 179 556 158 558 q 204 571 197 560 q 212 597 211 582 q 207 625 213 613 q 183 652 201 642 q 142 669 165 663 q 124 685 131 674 q 123 708 118 696 q 147 724 128 719 q 159 728 151 725 q 178 736 167 731 q 200 751 189 742 q 212 783 210 763 q 200 814 214 804 q 163 819 188 822 q 114 813 138 817 q 106 813 114 813 q 88 819 97 814 q 72 832 78 824 q 68 854 65 846 q 76 866 71 863 q 81 869 81 869 q 124 887 104 881 q 161 892 143 893 q 205 888 181 893 q 250 868 229 882 q 287 826 274 853 q 301 770 300 799 q 285 719 301 742 q 270 703 281 713 q 254 690 260 693 q 285 658 269 678 q 306 604 300 638 q 295 535 311 564 q 252 492 279 507 q 194 478 225 478 z "},"":{"ha":708,"x_min":47,"x_max":660,"o":"m 618 114 q 573 105 594 101 q 534 119 551 108 q 507 139 517 129 q 497 149 497 149 q 377 283 433 221 q 269 407 321 346 q 166 538 218 468 q 58 696 114 608 q 54 706 58 696 q 49 730 50 715 q 56 760 47 744 q 88 786 64 775 q 131 792 110 797 q 168 777 151 788 q 195 758 185 767 q 206 749 206 749 q 338 583 272 665 q 479 411 404 500 q 640 215 554 322 q 647 205 640 215 q 656 178 653 194 q 652 144 660 163 q 618 114 644 126 m 97 110 q 63 142 71 125 q 58 175 56 160 q 67 201 61 190 q 72 211 72 211 q 193 357 138 289 q 300 491 249 425 q 403 626 351 557 q 508 772 454 696 q 519 783 508 772 q 552 799 531 793 q 603 793 574 806 q 644 765 632 782 q 657 734 656 749 q 656 710 658 719 q 654 700 654 700 q 544 528 596 606 q 440 381 492 450 q 332 247 388 313 q 214 111 276 181 q 199 103 214 111 q 158 92 185 94 q 97 110 132 90 z "},"":{"ha":750,"x_min":67,"x_max":681,"o":"m 175 343 q 160 343 174 343 q 131 348 147 343 q 99 366 114 353 q 75 403 83 379 q 71 448 67 431 q 85 476 75 465 q 103 490 94 486 q 113 494 113 494 q 192 508 150 501 q 281 521 235 515 q 377 528 328 526 q 481 527 426 529 q 592 515 535 525 q 605 510 592 515 q 636 493 618 504 q 667 465 654 482 q 681 424 681 447 q 667 376 681 393 q 638 350 654 358 q 608 340 621 342 q 596 338 596 338 q 492 344 538 342 q 411 349 447 347 q 340 350 375 350 q 265 348 304 350 q 175 343 225 346 m 375 106 q 317 119 343 106 q 274 156 290 133 q 258 207 258 179 q 274 257 258 235 q 316 292 289 279 q 375 306 343 306 q 435 292 408 306 q 477 257 461 279 q 493 207 493 235 q 477 148 493 171 q 435 115 461 125 q 375 106 408 106 m 375 567 q 317 580 343 567 q 274 616 290 593 q 258 667 258 639 q 274 718 258 694 q 317 755 290 742 q 375 768 343 768 q 435 754 408 768 q 477 717 461 740 q 493 667 493 694 q 477 608 493 631 q 435 576 461 586 q 375 567 408 567 z "},"":{"ha":865,"x_min":49,"x_max":815,"o":"m 244 13 q 201 39 215 22 q 184 72 188 56 q 182 100 181 89 q 183 111 183 111 q 275 331 219 208 q 397 592 331 454 q 532 868 464 731 q 538 878 532 868 q 558 898 544 888 q 592 913 571 908 q 642 908 613 918 q 688 882 674 899 q 704 848 701 865 q 705 819 707 831 q 703 808 703 808 q 565 511 629 653 q 449 250 501 369 q 360 38 397 131 q 347 26 360 38 q 309 6 335 14 q 244 13 283 -1 m 239 456 q 202 469 214 456 q 188 496 190 482 q 185 510 185 510 q 180 594 182 547 q 178 690 178 642 q 181 776 178 739 l 125 728 q 117 724 125 728 q 95 719 108 719 q 65 732 82 719 q 50 756 51 744 q 53 775 49 767 q 57 783 57 783 l 165 869 q 214 899 190 893 q 254 900 238 904 q 279 883 272 894 q 288 863 286 872 q 290 853 290 853 q 286 774 288 818 q 285 681 285 729 q 286 586 285 633 q 289 499 288 539 q 288 488 289 499 q 276 465 286 476 q 239 456 265 454 m 768 1 q 731 13 744 1 q 713 38 718 25 q 708 50 708 50 q 705 120 707 88 q 702 185 703 153 q 702 248 701 217 q 703 313 703 279 l 642 246 q 627 225 636 236 q 622 211 618 214 l 728 221 l 740 139 q 668 133 701 135 q 589 133 635 132 q 525 160 544 140 q 506 205 506 181 q 521 249 507 229 q 582 318 554 289 q 633 369 610 347 q 685 417 661 397 q 725 450 708 438 q 764 457 743 460 q 800 442 785 454 q 815 410 815 429 q 810 329 813 374 q 809 235 808 285 q 811 138 810 186 q 814 46 813 90 q 813 35 814 46 q 802 13 811 25 q 768 1 793 1 z "},"":{"ha":882,"x_min":49,"x_max":833,"o":"m 244 13 q 201 39 215 22 q 184 72 188 56 q 182 100 181 89 q 183 111 183 111 q 275 331 219 208 q 397 592 331 454 q 532 868 464 731 q 538 878 532 868 q 558 898 544 888 q 592 913 571 908 q 642 908 613 918 q 688 882 674 899 q 704 848 701 865 q 705 819 707 831 q 703 808 703 808 q 565 511 629 653 q 449 250 501 369 q 360 38 397 131 q 347 26 360 38 q 309 6 335 14 q 244 13 283 -1 m 239 456 q 202 469 214 456 q 188 496 190 482 q 185 510 185 510 q 180 594 182 547 q 178 690 178 642 q 181 776 178 739 l 125 728 q 117 724 125 728 q 95 719 108 719 q 65 732 82 719 q 50 756 51 744 q 53 775 49 767 q 57 783 57 783 l 165 869 q 214 899 190 893 q 254 900 238 904 q 279 883 272 894 q 288 863 286 872 q 290 853 290 853 q 286 774 288 818 q 285 681 285 729 q 286 586 285 633 q 289 499 288 539 q 288 488 289 499 q 276 465 286 476 q 239 456 265 454 m 624 1 q 597 8 611 0 q 576 29 583 15 q 574 60 568 43 q 678 235 647 172 q 703 328 710 299 q 692 345 700 338 q 671 354 683 353 q 640 346 653 353 q 617 331 626 339 q 608 326 617 331 q 588 322 600 322 q 561 333 575 322 q 549 351 550 343 q 551 366 547 360 q 557 375 556 372 q 607 414 579 399 q 678 431 635 429 q 751 404 719 429 q 798 342 783 379 q 803 265 813 304 q 783 204 794 235 q 752 142 771 174 q 707 76 733 111 l 790 76 q 800 74 790 76 q 821 63 810 71 q 832 40 832 56 q 826 18 833 25 q 811 8 818 11 q 804 6 804 6 l 624 1 z "},"":{"ha":865,"x_min":47,"x_max":815,"o":"m 244 13 q 201 39 215 22 q 184 72 188 56 q 182 100 181 89 q 183 111 183 111 q 275 331 219 208 q 397 592 331 454 q 532 868 464 731 q 538 878 532 868 q 558 898 544 888 q 592 913 571 908 q 642 908 613 918 q 688 882 674 899 q 704 848 701 865 q 705 819 707 831 q 703 808 703 808 q 565 511 629 653 q 449 250 501 369 q 360 38 397 131 q 347 26 360 38 q 309 6 335 14 q 244 13 283 -1 m 194 478 q 151 483 175 478 q 105 502 126 489 q 68 532 83 515 q 60 540 68 532 q 50 561 53 549 q 58 588 47 574 q 83 599 69 600 q 106 593 96 597 q 115 589 115 589 q 145 567 132 576 q 179 556 158 558 q 204 571 197 560 q 212 597 211 582 q 207 625 213 613 q 183 652 201 642 q 142 669 165 663 q 124 685 131 674 q 123 708 118 696 q 147 724 128 719 q 159 728 151 725 q 178 736 167 731 q 200 751 189 742 q 212 783 210 763 q 200 814 214 804 q 163 819 188 822 q 114 813 138 817 q 106 813 114 813 q 88 819 97 814 q 72 832 78 824 q 68 854 65 846 q 76 866 71 863 q 81 869 81 869 q 124 887 104 881 q 161 892 143 893 q 205 888 181 893 q 250 868 229 882 q 287 826 274 853 q 301 770 300 799 q 285 719 301 742 q 270 703 281 713 q 254 690 260 693 q 285 658 269 678 q 306 604 300 638 q 295 535 311 564 q 252 492 279 507 q 194 478 225 478 m 768 1 q 731 13 744 1 q 713 38 718 25 q 708 50 708 50 q 705 120 707 88 q 702 185 703 153 q 702 248 701 217 q 703 313 703 279 l 642 246 q 627 225 636 236 q 622 211 618 214 l 728 221 l 740 139 q 668 133 701 135 q 589 133 635 132 q 525 160 544 140 q 506 205 506 181 q 521 249 507 229 q 582 318 554 289 q 633 369 610 347 q 685 417 661 397 q 725 450 708 438 q 764 457 743 460 q 800 442 785 454 q 815 410 815 429 q 810 329 813 374 q 809 235 808 285 q 811 138 810 186 q 814 46 813 90 q 813 35 814 46 q 802 13 811 25 q 768 1 793 1 z "},"":{"ha":424,"x_min":49,"x_max":379,"o":"m 217 -303 q 134 -281 169 -300 q 69 -235 99 -261 q 64 -228 69 -235 q 53 -210 58 -221 q 50 -187 49 -200 q 65 -162 51 -175 q 94 -149 79 -150 q 119 -150 108 -147 q 131 -153 131 -153 q 170 -177 154 -167 q 204 -193 186 -187 q 234 -189 224 -194 q 248 -175 244 -183 q 251 -157 251 -167 q 234 -131 246 -142 q 207 -111 222 -119 q 187 -107 200 -112 q 163 -93 174 -101 q 153 -78 153 -85 q 144 -17 143 -50 q 149 35 144 15 q 152 45 149 35 q 167 67 156 56 q 201 76 178 78 q 237 58 225 75 q 249 42 249 42 q 258 12 251 31 q 265 -29 264 -7 q 295 -46 278 -35 q 330 -75 313 -57 q 359 -114 347 -93 q 374 -158 371 -135 q 360 -245 379 -212 q 303 -291 340 -278 q 217 -303 265 -304 z "},"":{"ha":625,"x_min":49,"x_max":576,"o":"m 460 683 q 401 697 428 683 q 358 732 374 710 q 342 782 342 754 q 358 833 342 810 q 400 869 374 856 q 460 883 426 883 q 518 869 492 883 q 560 833 544 856 q 576 782 576 810 q 542 706 576 728 q 460 683 508 683 m 165 683 q 106 697 133 683 q 64 732 79 710 q 49 782 49 754 q 64 833 49 810 q 106 869 79 856 q 165 883 132 883 q 225 869 199 883 q 267 833 251 856 q 283 782 283 810 q 267 724 283 746 q 225 693 251 703 q 165 683 199 683 z "},"":{"ha":442,"x_min":46,"x_max":393,"o":"m 146 682 q 135 681 146 682 q 110 681 125 681 q 81 689 96 682 q 58 711 67 696 q 50 758 46 738 q 66 792 54 778 q 90 813 78 806 q 101 821 101 821 q 214 868 169 853 q 294 894 258 883 q 305 896 294 894 q 330 897 315 897 q 359 890 344 896 q 383 868 374 883 q 392 836 393 851 q 386 810 392 821 q 374 794 381 800 q 368 788 368 788 q 314 749 344 767 q 253 719 283 732 q 194 697 222 707 q 146 682 165 688 z "},"":{"ha":507,"x_min":50,"x_max":460,"o":"m 83 696 q 57 725 64 711 q 50 751 50 739 q 53 771 50 764 q 57 778 57 778 q 92 822 75 803 q 130 860 108 842 q 181 900 151 878 q 215 915 193 911 q 263 916 238 919 q 308 896 288 913 l 428 817 q 436 808 428 817 q 452 784 444 799 q 458 751 460 769 q 435 714 456 733 q 402 697 419 700 q 369 697 385 694 q 344 703 354 700 q 335 707 335 707 l 257 768 q 213 734 236 754 q 164 689 189 714 q 152 685 164 689 q 122 682 140 682 q 83 696 103 682 z "},"":{"ha":507,"x_min":49,"x_max":458,"o":"m 200 696 l 81 775 q 72 784 81 775 q 56 808 64 793 q 51 841 49 822 q 74 878 53 860 q 106 894 89 892 q 138 894 124 897 q 163 888 153 892 q 172 885 172 885 l 251 824 q 295 858 271 838 q 344 903 319 878 q 356 907 344 903 q 387 910 368 911 q 424 896 406 910 q 451 867 444 882 q 458 841 458 853 q 454 822 457 829 q 451 814 451 814 q 417 769 435 789 q 379 732 400 750 q 328 692 358 714 q 293 677 315 682 q 245 676 271 672 q 200 696 219 681 z "},"":{"ha":550,"x_min":44,"x_max":501,"o":"m 306 679 q 236 681 276 675 q 158 703 196 686 q 93 749 119 719 q 56 810 67 775 q 51 878 44 844 q 83 935 58 913 q 93 942 83 935 q 119 954 103 949 q 158 954 136 960 q 204 932 190 949 q 221 901 218 915 q 224 888 224 888 q 219 865 218 875 q 224 842 219 854 q 245 827 229 832 q 279 826 261 822 q 306 839 296 829 q 321 861 315 849 q 324 877 322 868 q 326 899 325 886 q 332 909 326 899 q 354 930 338 919 q 400 940 371 940 q 456 926 435 940 q 485 899 476 913 q 494 885 494 885 q 501 840 501 865 q 493 797 500 814 q 422 714 467 746 q 306 679 378 682 z "},"":{"ha":374,"x_min":69,"x_max":304,"o":"m 186 688 q 127 701 154 688 q 85 737 100 714 q 69 788 69 760 q 85 838 69 815 q 126 875 100 861 q 186 889 153 889 q 246 875 219 889 q 288 838 272 861 q 304 788 304 815 q 288 730 304 751 q 246 698 272 708 q 186 688 219 688 z "},"":{"ha":417,"x_min":49,"x_max":368,"o":"m 204 671 q 123 692 158 671 q 68 749 88 714 q 49 824 49 785 q 71 895 49 864 q 128 945 93 926 q 204 964 164 964 q 283 947 246 964 q 344 901 319 931 q 368 828 368 871 q 349 753 368 790 q 292 694 329 717 q 204 671 256 671 m 207 776 q 240 790 228 776 q 253 821 253 804 q 238 847 253 838 q 207 857 224 857 q 177 846 190 857 q 164 819 164 835 q 176 790 164 803 q 207 776 188 776 z "},"":{"ha":413,"x_min":49,"x_max":365,"o":"m 225 -290 q 124 -271 164 -293 q 67 -215 85 -249 q 49 -149 49 -181 q 58 -99 50 -128 q 92 -39 67 -69 q 169 18 118 -8 q 183 22 169 18 q 216 26 197 26 q 251 13 235 26 q 268 -12 265 1 q 267 -35 271 -25 q 260 -52 264 -46 q 256 -58 256 -58 q 213 -101 228 -83 q 193 -142 199 -118 q 194 -162 193 -151 q 199 -181 194 -174 q 217 -186 204 -189 q 256 -168 240 -178 q 285 -149 271 -158 q 301 -142 285 -149 q 343 -151 317 -136 q 363 -174 360 -160 q 361 -199 365 -189 q 357 -208 357 -208 q 300 -266 333 -242 q 225 -290 267 -290 z "},"":{"ha":618,"x_min":47,"x_max":569,"o":"m 165 689 q 128 685 147 681 q 98 698 110 690 q 86 706 86 706 q 52 762 57 732 q 60 819 47 792 q 98 867 72 847 q 157 890 124 886 q 248 886 210 896 q 319 860 286 876 q 390 829 353 844 q 405 838 399 829 q 418 856 411 846 q 426 865 418 856 q 453 881 435 874 q 501 881 472 888 q 546 858 532 872 q 565 828 560 843 q 568 803 569 814 q 567 793 567 793 q 539 738 564 769 q 467 696 514 706 q 407 692 439 689 q 344 703 375 694 q 279 725 313 713 q 242 735 261 731 q 209 744 222 740 q 193 744 196 747 q 194 734 193 744 q 189 711 194 724 q 165 689 183 699 z "},"":{"ha":824,"x_min":46,"x_max":749,"o":"m 146 682 q 135 681 146 682 q 110 681 125 681 q 81 689 96 682 q 58 711 67 696 q 50 758 46 738 q 66 792 54 778 q 90 813 78 806 q 101 821 101 821 q 214 868 169 853 q 294 894 258 883 q 305 896 294 894 q 330 897 315 897 q 359 890 344 896 q 383 868 374 883 q 392 836 393 851 q 386 810 392 821 q 374 794 381 800 q 368 788 368 788 q 314 749 344 767 q 253 719 283 732 q 194 697 222 707 q 146 682 165 688 m 501 682 q 491 681 501 682 q 466 681 481 681 q 437 689 451 682 q 414 711 422 696 q 406 758 401 738 q 422 792 410 778 q 445 813 433 806 q 457 821 457 821 q 569 868 525 853 q 650 894 614 883 q 660 896 650 894 q 685 897 671 897 q 715 890 700 896 q 739 868 729 883 q 748 836 749 851 q 742 810 747 821 q 730 794 736 800 q 724 788 724 788 q 669 749 700 767 q 608 719 639 732 q 549 697 578 707 q 501 682 521 688 z "},"":{"ha":867,"x_min":49,"x_max":817,"o":"m 715 4 q 659 19 681 4 q 626 52 638 33 q 610 85 614 71 q 607 99 607 99 q 598 229 601 158 q 593 376 594 300 q 594 531 592 453 q 600 685 596 610 q 610 826 604 760 q 612 838 610 826 q 623 865 614 850 q 651 891 632 879 q 704 903 669 903 q 763 889 742 901 q 797 858 785 876 q 813 822 808 840 q 817 792 817 804 q 817 779 817 779 q 808 656 811 722 q 805 516 806 589 q 805 368 804 443 q 808 220 806 293 q 814 83 811 147 q 813 71 814 83 q 802 43 811 58 q 773 15 793 28 q 715 4 753 3 m 172 4 q 115 19 136 4 q 82 52 93 33 q 67 85 71 71 q 64 99 64 99 q 55 229 58 158 q 50 376 51 300 q 51 531 49 453 q 57 685 53 610 q 67 826 61 760 q 69 838 67 826 q 79 865 71 850 q 107 891 88 879 q 161 903 126 903 q 219 889 197 901 q 253 858 242 876 q 269 822 265 840 q 274 792 274 804 q 274 779 274 779 q 265 656 268 722 q 262 516 263 589 q 262 368 261 443 q 265 220 263 293 q 271 83 268 147 q 269 71 271 83 q 259 43 268 58 q 230 15 250 28 q 172 4 210 3 m 151 738 l 161 903 l 704 903 l 689 763 l 151 738 z "},"":{"ha":617,"x_min":50,"x_max":568,"o":"m 400 -139 q 360 -112 371 -129 q 347 -80 349 -94 q 346 -65 346 -65 l 360 -4 q 336 65 335 29 q 360 127 338 100 q 419 160 383 154 q 492 151 463 163 q 537 122 521 140 q 560 85 553 104 q 568 50 567 65 q 558 -17 568 17 q 533 -78 549 -50 q 497 -121 518 -106 q 485 -130 497 -121 q 451 -144 474 -139 q 400 -139 429 -149 m 115 -139 q 75 -112 86 -129 q 63 -80 64 -94 q 61 -65 61 -65 l 75 -4 q 51 65 50 29 q 76 127 53 100 q 135 160 99 154 q 207 151 178 163 q 252 122 236 140 q 275 85 268 104 q 283 50 282 65 q 274 -17 283 17 q 249 -78 264 -50 q 213 -121 233 -106 q 201 -130 213 -121 q 167 -144 189 -139 q 115 -139 144 -149 z "},"":{"ha":332,"x_min":50,"x_max":283,"o":"m 115 -139 q 75 -112 86 -129 q 63 -80 64 -94 q 61 -65 61 -65 l 75 -4 q 51 65 50 29 q 76 127 53 100 q 135 160 99 154 q 207 151 178 163 q 252 122 236 140 q 275 85 268 104 q 283 50 282 65 q 274 -17 283 17 q 249 -78 264 -50 q 213 -121 233 -106 q 201 -130 213 -121 q 167 -144 189 -139 q 115 -139 144 -149 z "},"":{"ha":332,"x_min":50,"x_max":283,"o":"m 115 593 q 75 621 86 603 q 63 653 64 639 q 61 668 61 668 l 75 728 q 51 797 50 761 q 76 860 53 833 q 135 893 99 886 q 207 885 178 896 q 252 855 236 874 q 275 817 268 836 q 283 782 282 799 q 274 716 283 750 q 249 655 264 682 q 213 611 233 628 q 201 602 213 611 q 167 588 189 593 q 115 593 144 583 z "},"":{"ha":332,"x_min":49,"x_max":283,"o":"m 199 578 q 126 587 154 576 q 81 616 97 597 q 58 653 65 635 q 49 689 51 672 q 58 756 49 722 q 84 817 68 789 q 119 860 100 844 q 132 869 119 860 q 166 883 144 878 q 217 878 188 889 q 258 850 247 868 q 271 817 269 832 q 272 803 272 803 l 257 743 q 281 674 283 710 q 257 611 279 638 q 199 578 235 585 z "},"":{"ha":631,"x_min":50,"x_max":582,"o":"m 414 593 q 374 621 385 603 q 361 653 363 639 q 360 668 360 668 l 374 728 q 350 797 349 761 q 374 860 351 833 q 433 893 397 886 q 506 885 476 896 q 551 855 535 874 q 574 817 567 836 q 582 782 581 799 q 572 716 582 750 q 547 655 563 682 q 511 611 532 628 q 499 602 511 611 q 465 588 488 593 q 414 593 443 583 m 115 593 q 75 621 86 603 q 63 653 64 639 q 61 668 61 668 l 75 728 q 51 797 50 761 q 76 860 53 833 q 135 893 99 886 q 207 885 178 896 q 252 855 236 874 q 275 817 268 836 q 283 782 282 799 q 274 716 283 750 q 249 655 264 682 q 213 611 233 628 q 201 602 213 611 q 167 588 189 593 q 115 593 144 583 z "},"":{"ha":631,"x_min":49,"x_max":582,"o":"m 497 578 q 424 587 453 576 q 380 616 396 597 q 357 653 364 635 q 347 689 350 672 q 357 756 347 722 q 383 817 367 789 q 418 860 399 844 q 431 869 418 860 q 465 883 443 878 q 515 878 486 889 q 557 850 546 868 q 569 817 568 832 q 571 803 571 803 l 556 743 q 580 674 582 710 q 556 611 578 638 q 497 578 533 585 m 199 578 q 126 587 154 576 q 81 616 97 597 q 58 653 65 635 q 49 689 51 672 q 58 756 49 722 q 84 817 68 789 q 119 860 100 844 q 132 869 119 860 q 166 883 144 878 q 217 878 188 889 q 258 850 247 868 q 271 817 269 832 q 272 803 272 803 l 257 743 q 281 674 283 710 q 257 611 279 638 q 199 578 235 585 z "},"":{"ha":708,"x_min":46,"x_max":660,"o":"m 365 3 q 308 17 329 3 q 275 51 286 32 q 260 83 264 69 q 256 97 256 97 q 247 228 250 157 q 242 375 243 299 q 243 530 242 451 q 249 683 244 608 q 258 825 253 758 q 261 837 258 825 q 272 864 264 849 q 300 891 281 879 q 353 901 319 903 q 413 889 390 901 q 446 858 435 876 q 462 822 457 840 q 467 790 467 803 q 467 778 467 778 q 458 655 461 722 q 455 515 456 588 q 455 367 454 442 q 458 220 456 293 q 464 82 460 147 q 462 69 464 82 q 451 42 460 57 q 422 14 442 26 q 365 3 401 1 m 154 506 q 133 506 147 506 q 104 510 119 506 q 76 528 89 515 q 54 567 63 542 q 50 612 46 594 q 64 640 54 629 q 83 653 74 650 q 92 657 92 657 q 172 672 129 665 q 260 684 214 679 q 356 690 307 689 q 460 690 406 692 q 571 679 514 688 q 585 674 571 679 q 616 656 599 668 q 647 628 633 644 q 660 586 660 611 q 647 538 660 556 q 617 513 633 521 q 588 502 600 504 q 575 500 575 500 q 472 507 517 504 q 390 512 426 510 q 319 513 354 514 q 244 511 283 513 q 154 506 204 510 z "},"":{"ha":664,"x_min":46,"x_max":615,"o":"m 343 3 q 285 17 307 3 q 253 51 264 32 q 238 83 242 69 q 235 97 235 97 q 226 228 229 157 q 221 375 222 299 q 222 530 219 451 q 228 683 224 608 q 238 825 232 758 q 240 837 238 825 q 250 864 242 849 q 278 891 258 879 q 332 901 297 903 q 390 888 368 901 q 424 857 413 875 q 440 821 435 839 q 444 790 444 803 q 444 778 444 778 q 436 655 439 722 q 433 515 433 588 q 433 367 432 442 q 436 220 433 293 q 442 82 439 147 q 440 69 442 82 q 428 42 438 57 q 399 14 419 26 q 343 3 379 1 m 615 261 q 602 213 615 231 q 572 188 589 196 q 543 177 556 179 q 531 175 531 175 q 435 181 475 179 q 363 185 394 183 q 301 185 331 186 q 235 183 271 185 q 153 176 200 181 q 141 176 153 176 q 112 182 129 176 q 78 200 94 188 q 54 239 63 213 q 50 283 46 267 q 65 310 54 300 q 84 325 75 321 q 93 329 93 329 q 217 353 151 342 q 360 366 283 364 q 528 354 438 368 q 541 349 528 354 q 572 331 554 343 q 602 302 589 319 q 615 261 615 285 m 615 521 q 602 473 615 490 q 572 447 589 456 q 543 437 556 439 q 531 435 531 435 q 435 441 475 439 q 363 444 394 443 q 301 445 331 446 q 235 442 271 444 q 153 436 200 440 q 141 437 153 436 q 112 442 129 438 q 78 460 94 446 q 54 499 63 474 q 50 542 46 525 q 65 570 54 560 q 84 584 75 581 q 93 588 93 588 q 217 613 151 601 q 360 626 283 624 q 528 614 438 628 q 541 608 528 614 q 572 590 554 601 q 602 562 589 579 q 615 521 615 544 z "},"":{"ha":817,"x_min":47,"x_max":771,"o":"m 371 8 q 328 30 342 15 q 310 60 314 44 q 308 88 307 76 q 308 99 308 99 l 553 378 q 560 410 563 393 q 543 446 557 426 l 322 782 q 319 792 322 782 q 315 819 315 803 q 326 852 315 835 q 367 883 338 869 q 417 893 394 896 q 456 881 439 890 q 481 863 472 871 q 489 854 489 854 l 729 526 q 767 444 763 488 q 753 369 771 400 q 699 284 731 326 q 631 201 667 242 q 559 122 594 160 q 493 51 524 85 q 479 38 493 51 q 438 13 465 24 q 371 8 411 1 m 421 8 q 355 13 382 1 q 314 38 328 24 q 300 51 300 51 q 243 122 274 85 q 180 201 213 160 q 117 284 147 242 q 65 369 88 326 q 51 444 47 400 q 89 526 54 488 l 333 867 q 347 878 333 867 q 388 895 361 889 q 450 883 414 901 q 490 852 479 869 q 502 819 501 835 q 499 792 503 803 q 494 782 494 782 l 275 446 q 264 378 247 406 l 483 99 q 484 88 483 99 q 481 60 485 76 q 464 30 478 44 q 421 8 450 15 z "},"":{"ha":801,"x_min":49,"x_max":757,"o":"m 404 99 q 283 124 339 99 q 188 193 228 149 q 127 296 147 238 q 113 421 107 354 q 147 547 118 488 q 224 650 176 606 q 332 719 272 694 q 457 744 392 744 q 579 717 524 744 q 675 641 635 689 q 736 532 715 593 q 751 403 757 471 q 716 281 746 336 q 638 184 686 225 q 531 121 590 143 q 404 99 471 99 m 172 4 q 115 19 136 4 q 82 52 93 33 q 67 85 71 71 q 64 99 64 99 q 55 229 58 158 q 50 376 51 300 q 51 531 49 453 q 57 685 53 610 q 67 826 61 760 q 69 838 67 826 q 79 865 71 850 q 107 891 88 879 q 161 903 126 903 q 219 889 197 901 q 253 858 242 876 q 269 822 265 840 q 274 792 274 804 q 274 779 274 779 q 265 656 268 722 q 262 516 263 589 q 262 368 261 443 q 265 220 263 293 q 271 83 268 147 q 269 71 271 83 q 259 43 268 58 q 230 15 250 28 q 172 4 210 3 m 424 300 q 477 317 453 300 q 517 364 501 335 q 536 426 533 393 q 526 490 539 461 q 492 535 514 518 q 440 553 469 553 q 387 535 411 553 q 347 490 363 518 q 328 426 331 461 q 338 364 326 393 q 373 317 350 335 q 424 300 396 300 z "},"":{"ha":788,"x_min":47,"x_max":738,"o":"m 263 -3 q 194 13 218 -3 q 158 47 169 28 q 142 81 146 67 q 139 96 139 96 q 133 248 135 179 q 131 378 131 317 q 132 503 131 440 q 138 633 133 565 q 173 757 146 707 q 239 838 200 807 q 325 883 278 868 q 421 900 372 897 q 539 879 479 899 q 649 825 599 860 q 726 744 699 790 q 730 734 726 744 q 733 708 733 724 q 722 676 732 692 q 682 647 711 660 q 644 642 664 639 q 612 650 625 644 q 599 656 599 656 q 565 675 586 664 q 521 697 544 686 q 476 715 497 708 q 440 717 454 721 q 383 671 408 713 q 354 556 358 629 q 350 377 350 456 q 352 226 350 299 q 356 69 354 154 q 353 58 356 69 q 342 33 351 47 q 313 8 332 18 q 263 -3 294 -3 m 50 472 q 55 511 47 496 q 74 535 63 526 q 96 549 86 544 q 106 553 106 553 q 275 569 188 563 q 453 577 363 575 q 633 575 543 579 q 648 570 633 575 q 682 554 663 565 q 715 524 701 543 q 728 476 729 504 q 715 435 728 450 q 688 414 703 421 q 662 406 674 407 q 650 404 650 404 q 515 406 588 406 q 369 408 443 407 q 228 410 296 408 q 110 419 161 413 q 96 424 110 419 q 67 441 82 429 q 50 472 53 453 m 639 1 q 588 16 608 4 q 556 43 568 28 q 538 70 543 58 q 533 82 533 82 q 522 210 525 142 q 522 353 519 279 q 531 503 525 428 q 533 515 531 503 q 545 540 536 526 q 574 565 554 554 q 629 575 594 576 q 688 559 667 574 q 719 526 708 544 q 733 492 731 507 q 736 478 736 478 q 733 348 735 410 q 732 222 731 286 q 738 81 733 158 q 735 68 738 81 q 724 39 733 56 q 695 11 715 22 q 639 1 675 0 z "},"":{"ha":686,"x_min":47,"x_max":638,"o":"m 176 0 q 102 24 128 3 q 72 76 76 46 q 82 133 68 107 q 111 177 101 160 q 125 218 121 194 q 131 282 129 242 q 124 372 131 324 q 110 470 117 419 q 103 571 104 521 q 111 668 101 621 q 151 776 121 725 q 235 860 182 826 q 361 897 288 894 q 445 883 401 897 q 527 840 489 869 q 586 764 565 811 q 590 752 586 764 q 595 724 594 740 q 586 692 596 707 q 549 669 576 676 q 507 670 526 665 q 476 683 488 675 q 465 692 465 692 q 437 714 453 704 q 406 729 421 724 q 372 721 390 731 q 337 692 353 711 q 313 647 321 674 q 303 582 304 621 q 308 496 303 543 q 319 395 313 449 q 332 285 326 342 q 333 223 333 256 q 313 161 332 190 q 378 167 353 165 q 425 172 404 169 q 469 174 446 174 q 529 175 493 175 q 540 173 529 175 q 567 166 551 171 q 599 152 583 161 q 626 128 615 143 q 636 89 636 113 q 626 44 638 60 q 598 21 614 28 q 570 12 582 14 q 558 10 558 10 q 499 8 542 10 q 401 6 457 7 q 285 3 344 4 q 176 0 226 1 m 108 292 q 92 295 104 292 q 67 308 79 299 q 51 336 56 318 q 53 358 47 349 q 67 374 58 368 q 84 382 76 379 q 92 385 92 385 q 187 397 133 392 q 299 405 240 401 q 415 407 358 408 q 426 407 415 407 q 452 404 436 407 q 484 394 468 401 q 511 376 500 388 q 522 343 522 364 q 512 309 524 321 q 484 292 500 297 q 456 287 468 288 q 443 286 443 286 q 326 290 388 289 q 209 292 265 292 q 108 292 153 293 m 108 486 q 92 490 104 486 q 68 504 81 494 q 51 531 56 514 q 53 553 47 544 q 67 568 58 563 q 84 576 76 574 q 92 578 92 578 q 187 590 133 585 q 299 599 240 596 q 415 601 358 603 q 426 601 415 601 q 452 598 436 600 q 484 589 468 596 q 511 569 500 582 q 522 538 522 557 q 512 503 524 514 q 484 487 500 492 q 456 482 468 482 q 443 482 443 482 q 326 483 388 482 q 209 486 265 485 q 108 486 153 488 z "},"":{"ha":756,"x_min":-22,"x_max":707,"o":"m 179 8 q 117 24 140 8 q 82 61 93 40 q 67 98 71 82 q 63 114 63 114 q 53 299 57 215 q 50 464 50 383 q 53 634 50 544 q 67 836 57 724 q 80 872 69 854 q 108 902 90 890 q 146 913 125 914 l 589 910 q 601 908 589 910 q 630 901 613 907 q 665 885 647 896 q 695 855 683 874 q 707 808 707 836 q 695 761 707 779 q 667 735 683 743 q 638 726 650 728 q 625 724 625 724 l 271 739 q 266 579 268 651 q 264 435 264 507 q 267 282 264 364 q 272 96 269 200 q 271 83 272 96 q 262 51 269 69 q 235 20 254 33 q 179 8 215 7 m 51 90 q 35 91 49 90 q 7 100 22 92 q -15 131 -8 108 q -16 168 -22 156 q 0 186 -10 181 q 10 192 10 192 q 76 203 40 199 q 152 212 113 208 q 235 214 192 215 q 325 206 278 213 q 334 202 325 206 q 355 191 343 199 q 376 172 367 183 q 385 144 385 160 q 376 112 385 124 q 356 94 367 100 q 336 88 344 89 q 328 86 328 86 q 246 92 281 90 q 182 94 211 94 q 122 94 153 94 q 51 90 92 93 m 107 371 l 96 557 l 483 572 q 494 569 483 572 q 522 561 506 567 q 555 544 539 556 q 582 515 571 532 q 593 474 593 499 q 580 424 593 442 q 549 398 567 406 q 517 388 531 390 q 504 386 504 386 l 107 371 z "},"":{"ha":644,"x_min":50,"x_max":596,"o":"m 182 -3 q 113 13 138 -3 q 77 47 89 28 q 62 81 65 67 q 58 96 58 96 q 52 248 54 179 q 50 378 50 317 q 51 503 50 440 q 57 633 53 565 q 92 757 65 707 q 158 838 119 807 q 244 883 197 868 q 340 900 292 897 q 447 879 399 899 q 533 831 496 860 q 589 767 569 801 q 592 756 589 767 q 595 731 596 746 q 584 699 594 715 q 544 669 574 682 q 508 665 526 663 q 476 674 489 668 q 463 679 463 679 q 413 708 438 694 q 360 717 388 722 q 303 671 328 713 q 274 556 278 629 q 269 377 269 456 q 272 226 269 299 q 275 69 274 154 q 273 58 275 69 q 261 33 271 47 q 233 8 251 18 q 182 -3 214 -3 z "},"":{"ha":833,"x_min":43,"x_max":788,"o":"m 418 10 q 274 18 343 4 q 151 69 204 32 q 72 169 99 107 q 53 292 43 228 q 109 409 63 356 q 239 489 156 463 q 378 515 311 511 q 521 507 446 519 q 513 549 519 528 q 499 589 507 571 q 488 617 492 607 q 446 678 471 651 q 390 719 421 704 q 281 723 333 732 q 176 699 229 714 q 167 697 176 699 q 142 694 157 694 q 112 698 126 693 q 86 718 97 703 q 72 759 71 739 q 82 795 74 779 q 99 820 90 811 q 107 829 107 829 q 283 900 190 883 q 472 893 376 917 q 574 841 522 881 q 667 738 625 801 q 733 588 708 675 q 756 393 758 501 q 658 147 744 246 q 418 10 571 49 m 388 188 q 448 206 421 190 q 494 249 475 222 q 518 311 513 276 q 429 335 472 328 q 349 333 386 342 q 288 246 268 310 q 325 205 301 221 q 388 188 349 189 m 403 581 q 394 578 403 581 q 371 577 385 576 q 342 585 357 578 q 319 608 328 592 q 309 642 308 628 q 316 665 310 656 q 328 679 322 675 q 333 683 333 683 q 394 710 363 697 q 461 735 426 724 q 534 757 496 747 q 614 774 572 767 q 701 788 656 782 q 713 785 701 788 q 738 778 724 783 q 766 761 753 772 q 782 732 779 750 q 780 694 788 710 q 761 671 772 679 q 740 659 750 663 q 731 656 731 656 q 650 641 685 647 q 586 629 615 635 q 530 617 557 624 q 472 601 503 610 q 403 581 442 592 z "},"":{"ha":1247,"x_min":50,"x_max":1203,"o":"m 158 -1 q 94 22 117 4 q 63 60 72 39 q 51 95 53 81 q 50 110 50 110 q 81 341 54 224 q 146 579 108 458 q 219 747 185 685 q 285 841 253 810 q 347 883 317 872 q 408 893 376 893 q 462 883 432 897 q 524 840 492 869 q 583 765 556 810 q 625 664 610 721 q 658 563 639 625 q 698 421 678 500 q 734 254 718 342 q 758 76 750 167 q 758 64 758 76 q 749 35 757 51 q 722 7 740 19 q 667 -6 703 -6 q 607 8 631 -6 q 570 40 583 21 q 552 72 557 58 q 547 85 547 85 q 515 260 528 183 q 486 390 501 338 q 449 526 467 468 q 413 633 432 583 q 382 563 399 603 q 351 482 365 524 q 326 403 336 440 q 305 304 314 344 q 290 230 296 264 q 280 158 285 196 q 269 68 275 121 q 266 56 269 68 q 251 29 263 44 q 218 4 240 14 q 158 -1 196 -6 m 185 124 l 203 271 q 330 294 268 286 q 458 305 392 303 q 597 300 524 307 l 617 128 q 511 141 568 136 q 395 147 454 146 q 282 142 336 147 q 185 124 228 136 m 683 0 q 608 19 635 4 q 568 55 581 35 q 551 94 556 75 q 546 124 547 113 q 538 307 542 224 q 535 470 535 390 q 538 638 535 550 q 551 836 542 726 q 578 877 556 856 q 650 903 600 899 l 1051 907 q 1065 906 1051 907 q 1100 901 1079 906 q 1141 888 1121 897 q 1175 858 1161 878 q 1190 808 1189 839 q 1178 760 1192 778 q 1148 735 1165 743 q 1117 724 1131 726 q 1104 722 1104 722 l 756 738 q 749 610 751 665 q 747 506 747 554 q 747 411 746 458 q 748 309 747 364 q 751 185 749 254 q 830 196 797 192 q 888 203 863 200 q 938 211 913 207 q 992 221 963 215 q 1061 235 1021 226 q 1073 235 1061 235 q 1102 233 1085 235 q 1138 222 1119 231 q 1172 200 1157 214 q 1193 163 1188 186 q 1197 110 1203 131 q 1177 77 1190 89 q 1153 61 1164 65 q 1143 57 1143 57 q 1023 32 1078 43 q 915 13 968 21 q 806 2 863 6 q 683 0 750 -1 m 592 368 l 579 554 l 967 569 q 978 567 967 569 q 1006 558 990 564 q 1038 540 1022 551 q 1066 512 1054 529 q 1078 471 1078 494 q 1064 421 1078 439 q 1033 394 1050 403 q 1001 385 1015 386 q 988 383 988 383 l 592 368 z "},"":{"ha":1408,"x_min":50,"x_max":1358,"o":"m 1006 -15 q 856 40 914 3 q 768 126 799 76 q 726 231 738 175 q 714 343 715 288 q 738 476 713 411 q 811 592 764 542 q 925 672 858 643 q 1072 694 992 700 q 1208 663 1154 689 q 1294 598 1263 636 q 1339 516 1325 560 q 1353 432 1353 472 q 1319 313 1354 365 q 1200 240 1283 260 q 1148 233 1178 235 q 1085 232 1118 232 q 1021 233 1053 232 q 964 237 989 235 q 924 240 939 239 q 908 242 908 242 q 928 199 913 222 q 973 158 943 175 q 1051 142 1003 142 q 1142 146 1104 143 q 1205 152 1181 149 q 1240 158 1229 156 q 1251 160 1251 160 q 1261 160 1251 160 q 1287 159 1271 161 q 1319 148 1303 157 q 1346 121 1335 139 q 1357 85 1358 100 q 1349 58 1356 69 q 1334 42 1342 47 q 1326 36 1326 36 q 1297 24 1326 36 q 1222 -1 1268 13 q 1118 -19 1175 -14 q 1006 -15 1061 -25 m 399 0 q 260 26 324 0 q 149 98 197 51 q 76 206 101 144 q 50 336 50 267 q 79 481 51 415 q 155 593 107 546 q 267 667 203 640 q 406 693 332 693 q 594 658 518 694 q 710 544 671 621 q 750 347 750 467 q 729 216 750 278 q 665 106 708 154 q 556 31 622 58 q 399 0 489 3 m 406 190 q 466 204 438 190 q 516 242 494 218 q 551 297 538 267 q 564 363 564 328 q 545 458 564 421 q 495 513 526 494 q 422 531 464 531 q 365 514 392 531 q 317 471 338 497 q 285 412 297 444 q 274 344 274 379 q 290 265 274 300 q 336 210 306 231 q 406 190 367 190 m 736 0 q 681 11 703 0 q 649 33 660 22 q 639 44 639 44 q 622 243 629 146 q 616 442 615 340 q 626 656 617 544 q 636 666 626 656 q 668 687 646 676 q 726 693 690 697 q 785 672 765 690 q 813 633 806 654 q 822 594 821 611 q 822 578 822 578 q 813 452 817 507 q 810 344 810 397 q 814 229 811 292 q 821 81 817 167 q 819 69 821 81 q 810 41 818 57 q 785 13 803 25 q 736 0 768 0 m 913 372 l 1107 375 q 1114 376 1107 375 q 1132 380 1121 376 q 1153 390 1143 383 q 1171 410 1164 397 q 1178 443 1178 424 q 1165 498 1178 476 q 1125 530 1153 519 q 1049 536 1097 540 q 990 517 1017 535 q 946 472 964 499 q 919 419 928 446 q 913 372 910 392 z "},"":{"ha":1532,"x_min":44,"x_max":1488,"o":"m 433 -10 q 274 22 346 -10 q 149 112 201 54 q 71 248 97 169 q 50 421 44 326 q 88 603 54 515 q 178 760 121 690 q 315 870 236 829 q 488 911 393 911 q 631 897 558 911 q 767 848 703 882 q 883 758 832 814 q 960 622 933 703 q 981 431 986 540 q 941 272 976 342 q 849 149 906 201 q 723 60 793 96 q 578 8 653 25 q 433 -10 504 -10 m 475 197 q 549 207 511 197 q 621 238 586 217 q 683 290 656 258 q 729 363 711 321 q 749 458 747 406 q 733 578 753 529 q 679 656 714 626 q 600 699 644 686 q 510 713 556 713 q 425 691 465 713 q 353 631 385 669 q 303 542 322 593 q 282 436 285 492 q 301 308 278 361 q 369 226 325 254 q 475 197 414 197 m 968 3 q 892 22 919 7 q 853 58 865 38 q 836 97 840 78 q 831 126 832 115 q 823 310 826 226 q 819 473 819 393 q 823 641 819 553 q 836 840 826 729 q 863 881 840 860 q 935 906 885 901 l 1336 910 q 1350 909 1336 910 q 1385 905 1364 908 q 1426 891 1406 901 q 1460 861 1446 881 q 1475 811 1474 842 q 1463 763 1476 781 q 1433 738 1450 746 q 1402 727 1415 729 q 1389 725 1389 725 l 1040 740 q 1034 613 1036 669 q 1031 509 1032 557 q 1031 414 1031 461 q 1033 312 1032 367 q 1036 188 1033 257 q 1115 199 1082 194 q 1172 207 1147 203 q 1222 215 1197 211 q 1276 224 1247 218 q 1346 238 1306 229 q 1358 238 1346 238 q 1387 236 1369 239 q 1423 226 1404 233 q 1457 203 1442 218 q 1478 167 1472 189 q 1481 113 1488 133 q 1462 81 1475 92 q 1438 65 1449 69 q 1428 60 1428 60 q 1308 35 1363 46 q 1200 17 1253 24 q 1091 6 1147 10 q 968 3 1035 1 m 876 371 l 864 557 l 1251 572 q 1263 569 1251 572 q 1291 561 1275 567 q 1323 544 1307 556 q 1351 515 1339 532 q 1363 474 1363 499 q 1349 424 1363 442 q 1317 398 1335 406 q 1286 388 1300 390 q 1272 386 1272 386 l 876 371 z "},"":{"ha":1299,"x_min":49,"x_max":1247,"o":"m 406 0 q 263 26 328 0 q 149 99 197 53 q 75 206 101 146 q 49 336 49 267 q 76 470 49 406 q 151 585 103 535 q 264 665 199 636 q 407 694 329 694 q 552 674 485 694 q 671 610 619 653 q 751 501 722 567 q 779 347 779 436 q 750 215 779 278 q 669 104 721 153 q 551 28 618 56 q 406 0 483 0 m 401 189 q 462 202 433 189 q 513 239 490 215 q 548 292 535 263 q 561 356 561 321 q 542 449 561 413 q 492 502 524 485 q 417 519 460 519 q 359 504 386 519 q 311 463 332 489 q 278 404 290 436 q 267 339 267 372 q 283 260 267 294 q 331 208 300 226 q 401 189 361 189 m 894 -15 q 745 40 803 3 q 657 126 688 76 q 615 231 626 175 q 603 343 604 288 q 627 476 601 411 q 700 592 653 542 q 814 672 747 643 q 961 694 881 700 q 1097 663 1043 689 q 1183 598 1151 636 q 1228 516 1214 560 q 1242 432 1242 472 q 1208 313 1243 365 q 1089 240 1172 260 q 1037 233 1067 235 q 974 232 1007 232 q 910 233 942 232 q 853 237 878 235 q 813 240 828 239 q 797 242 797 242 q 817 199 801 222 q 862 158 832 175 q 940 142 892 142 q 1031 146 993 143 q 1094 152 1069 149 q 1129 158 1118 156 q 1140 160 1140 160 q 1150 160 1140 160 q 1176 159 1160 161 q 1208 148 1192 157 q 1235 121 1224 139 q 1246 85 1247 100 q 1238 58 1244 69 q 1223 42 1231 47 q 1215 36 1215 36 q 1186 24 1215 36 q 1110 -1 1157 13 q 1007 -19 1064 -14 q 894 -15 950 -25 m 801 372 l 996 375 q 1003 376 996 375 q 1021 380 1010 376 q 1042 390 1032 383 q 1060 410 1053 397 q 1067 443 1067 424 q 1054 498 1067 476 q 1014 530 1042 519 q 938 536 986 540 q 879 517 906 535 q 835 472 853 499 q 808 419 817 446 q 801 372 799 392 z "},"":{"ha":808,"x_min":50,"x_max":758,"o":"m 158 -1 q 94 22 117 4 q 63 60 72 39 q 51 95 53 81 q 50 110 50 110 q 81 341 54 224 q 146 579 108 458 q 219 747 185 685 q 285 841 253 810 q 347 883 317 872 q 408 893 376 893 q 462 883 432 897 q 524 840 492 869 q 583 765 556 810 q 625 664 610 721 q 658 563 639 625 q 698 421 678 500 q 734 254 718 342 q 758 76 750 167 q 758 64 758 76 q 749 35 757 51 q 722 7 740 19 q 667 -6 703 -6 q 607 8 631 -6 q 570 40 583 21 q 552 72 557 58 q 547 85 547 85 q 515 260 528 183 q 486 390 501 338 q 449 526 467 468 q 413 633 432 583 q 382 563 399 603 q 351 482 365 524 q 326 403 336 440 q 305 304 314 344 q 290 230 296 264 q 280 158 285 196 q 269 68 275 121 q 266 56 269 68 q 251 29 263 44 q 218 4 240 14 q 158 -1 196 -6 m 185 124 l 203 271 q 330 294 268 286 q 458 305 392 303 q 597 300 524 307 l 617 128 q 511 141 568 136 q 395 147 454 146 q 282 142 336 147 q 185 124 228 136 m 482 943 q 434 958 463 949 q 375 980 406 967 q 314 1010 344 993 q 260 1047 283 1026 q 253 1053 260 1047 q 242 1071 247 1060 q 235 1097 236 1082 q 246 1129 235 1111 q 269 1151 254 1144 q 299 1158 285 1157 q 324 1157 314 1158 q 333 1156 333 1156 q 415 1128 369 1143 q 528 1082 460 1113 q 539 1074 528 1082 q 563 1053 550 1067 q 579 1019 575 1039 q 568 972 583 999 q 547 950 561 957 q 517 942 532 943 q 492 942 503 940 q 482 943 482 943 z "},"":{"ha":808,"x_min":50,"x_max":758,"o":"m 158 -1 q 94 22 117 4 q 63 60 72 39 q 51 95 53 81 q 50 110 50 110 q 81 341 54 224 q 146 579 108 458 q 219 747 185 685 q 285 841 253 810 q 347 883 317 872 q 408 893 376 893 q 462 883 432 897 q 524 840 492 869 q 583 765 556 810 q 625 664 610 721 q 658 563 639 625 q 698 421 678 500 q 734 254 718 342 q 758 76 750 167 q 758 64 758 76 q 749 35 757 51 q 722 7 740 19 q 667 -6 703 -6 q 607 8 631 -6 q 570 40 583 21 q 552 72 557 58 q 547 85 547 85 q 515 260 528 183 q 486 390 501 338 q 449 526 467 468 q 413 633 432 583 q 382 563 399 603 q 351 482 365 524 q 326 403 336 440 q 305 304 314 344 q 290 230 296 264 q 280 158 285 196 q 269 68 275 121 q 266 56 269 68 q 251 29 263 44 q 218 4 240 14 q 158 -1 196 -6 m 185 124 l 203 271 q 330 294 268 286 q 458 305 392 303 q 597 300 524 307 l 617 128 q 511 141 568 136 q 395 147 454 146 q 282 142 336 147 q 185 124 228 136 m 329 936 q 319 935 329 936 q 294 935 308 935 q 265 943 279 936 q 242 965 250 950 q 233 1012 229 992 q 249 1046 238 1032 q 273 1067 261 1060 q 285 1075 285 1075 q 397 1122 353 1107 q 478 1149 442 1138 q 488 1150 478 1149 q 513 1151 499 1151 q 542 1144 528 1150 q 567 1122 557 1138 q 576 1090 576 1106 q 569 1065 575 1075 q 558 1048 564 1054 q 551 1042 551 1042 q 497 1003 528 1021 q 436 974 467 986 q 377 951 406 961 q 329 936 349 942 z "},"":{"ha":808,"x_min":50,"x_max":758,"o":"m 158 -1 q 94 22 117 4 q 63 60 72 39 q 51 95 53 81 q 50 110 50 110 q 81 341 54 224 q 146 579 108 458 q 219 747 185 685 q 285 841 253 810 q 347 883 317 872 q 408 893 376 893 q 462 883 432 897 q 524 840 492 869 q 583 765 556 810 q 625 664 610 721 q 658 563 639 625 q 698 421 678 500 q 734 254 718 342 q 758 76 750 167 q 758 64 758 76 q 749 35 757 51 q 722 7 740 19 q 667 -6 703 -6 q 607 8 631 -6 q 570 40 583 21 q 552 72 557 58 q 547 85 547 85 q 515 260 528 183 q 486 390 501 338 q 449 526 467 468 q 413 633 432 583 q 382 563 399 603 q 351 482 365 524 q 326 403 336 440 q 305 304 314 344 q 290 230 296 264 q 280 158 285 196 q 269 68 275 121 q 266 56 269 68 q 251 29 263 44 q 218 4 240 14 q 158 -1 196 -6 m 185 124 l 203 271 q 330 294 268 286 q 458 305 392 303 q 597 300 524 307 l 617 128 q 511 141 568 136 q 395 147 454 146 q 282 142 336 147 q 185 124 228 136 m 238 950 q 211 979 218 965 q 204 1006 204 993 q 208 1025 204 1018 q 211 1032 211 1032 q 246 1076 229 1057 q 284 1114 263 1096 q 335 1154 306 1132 q 369 1169 347 1165 q 417 1170 392 1174 q 463 1150 442 1167 l 582 1071 q 590 1062 582 1071 q 606 1038 599 1053 q 612 1006 614 1024 q 589 968 610 988 q 556 951 574 954 q 524 951 539 949 q 499 958 508 954 q 489 961 489 961 l 411 1022 q 367 988 390 1008 q 318 943 343 968 q 306 940 318 943 q 276 936 294 936 q 238 950 257 936 z "},"":{"ha":808,"x_min":50,"x_max":758,"o":"m 158 -1 q 94 22 117 4 q 63 60 72 39 q 51 95 53 81 q 50 110 50 110 q 81 341 54 224 q 146 579 108 458 q 219 747 185 685 q 285 841 253 810 q 347 883 317 872 q 408 893 376 893 q 462 883 432 897 q 524 840 492 869 q 583 765 556 810 q 625 664 610 721 q 658 563 639 625 q 698 421 678 500 q 734 254 718 342 q 758 76 750 167 q 758 64 758 76 q 749 35 757 51 q 722 7 740 19 q 667 -6 703 -6 q 607 8 631 -6 q 570 40 583 21 q 552 72 557 58 q 547 85 547 85 q 515 260 528 183 q 486 390 501 338 q 449 526 467 468 q 413 633 432 583 q 382 563 399 603 q 351 482 365 524 q 326 403 336 440 q 305 304 314 344 q 290 230 296 264 q 280 158 285 196 q 269 68 275 121 q 266 56 269 68 q 251 29 263 44 q 218 4 240 14 q 158 -1 196 -6 m 185 124 l 203 271 q 330 294 268 286 q 458 305 392 303 q 597 300 524 307 l 617 128 q 511 141 568 136 q 395 147 454 146 q 282 142 336 147 q 185 124 228 136 m 267 943 q 230 940 249 935 q 199 952 211 944 q 188 960 188 960 q 153 1016 158 986 q 161 1074 149 1046 q 199 1121 174 1101 q 258 1144 225 1140 q 349 1140 311 1150 q 421 1115 388 1131 q 492 1083 454 1099 q 506 1092 500 1083 q 519 1110 513 1100 q 528 1119 519 1110 q 555 1135 536 1128 q 603 1135 574 1142 q 647 1112 633 1126 q 666 1083 661 1097 q 669 1058 671 1068 q 668 1047 668 1047 q 640 992 665 1024 q 568 950 615 960 q 508 946 540 943 q 445 958 476 949 q 381 979 414 967 q 343 990 363 985 q 310 998 324 994 q 294 999 297 1001 q 295 988 294 999 q 290 965 296 978 q 267 943 285 953 z "},"":{"ha":808,"x_min":50,"x_max":758,"o":"m 158 -1 q 94 22 117 4 q 63 60 72 39 q 51 95 53 81 q 50 110 50 110 q 81 341 54 224 q 146 579 108 458 q 219 747 185 685 q 285 841 253 810 q 347 883 317 872 q 408 893 376 893 q 462 883 432 897 q 524 840 492 869 q 583 765 556 810 q 625 664 610 721 q 658 563 639 625 q 698 421 678 500 q 734 254 718 342 q 758 76 750 167 q 758 64 758 76 q 749 35 757 51 q 722 7 740 19 q 667 -6 703 -6 q 607 8 631 -6 q 570 40 583 21 q 552 72 557 58 q 547 85 547 85 q 515 260 528 183 q 486 390 501 338 q 449 526 467 468 q 413 633 432 583 q 382 563 399 603 q 351 482 365 524 q 326 403 336 440 q 305 304 314 344 q 290 230 296 264 q 280 158 285 196 q 269 68 275 121 q 266 56 269 68 q 251 29 263 44 q 218 4 240 14 q 158 -1 196 -6 m 185 124 l 203 271 q 330 294 268 286 q 458 305 392 303 q 597 300 524 307 l 617 128 q 511 141 568 136 q 395 147 454 146 q 282 142 336 147 q 185 124 228 136 m 553 938 q 494 951 521 938 q 451 986 467 964 q 435 1036 435 1008 q 451 1087 435 1064 q 493 1124 467 1110 q 553 1138 519 1138 q 611 1124 585 1138 q 653 1087 638 1110 q 669 1036 669 1064 q 635 960 669 982 q 553 938 601 938 m 258 938 q 199 951 226 938 q 157 986 172 964 q 142 1036 142 1008 q 157 1087 142 1064 q 199 1124 172 1110 q 258 1138 225 1138 q 318 1124 292 1138 q 360 1087 344 1110 q 376 1036 376 1064 q 360 978 376 1000 q 318 947 344 957 q 258 938 292 938 z "},"":{"ha":808,"x_min":50,"x_max":758,"o":"m 158 -1 q 94 22 117 4 q 63 60 72 39 q 51 95 53 81 q 50 110 50 110 q 81 341 54 224 q 146 579 108 458 q 219 747 185 685 q 285 841 253 810 q 347 883 317 872 q 408 893 376 893 q 462 883 432 897 q 524 840 492 869 q 583 765 556 810 q 625 664 610 721 q 658 563 639 625 q 698 421 678 500 q 734 254 718 342 q 758 76 750 167 q 758 64 758 76 q 749 35 757 51 q 722 7 740 19 q 667 -6 703 -6 q 607 8 631 -6 q 570 40 583 21 q 552 72 557 58 q 547 85 547 85 q 515 260 528 183 q 486 390 501 338 q 449 526 467 468 q 413 633 432 583 q 382 563 399 603 q 351 482 365 524 q 326 403 336 440 q 305 304 314 344 q 290 230 296 264 q 280 158 285 196 q 269 68 275 121 q 266 56 269 68 q 251 29 263 44 q 218 4 240 14 q 158 -1 196 -6 m 185 124 l 203 271 q 330 294 268 286 q 458 305 392 303 q 597 300 524 307 l 617 128 q 511 141 568 136 q 395 147 454 146 q 282 142 336 147 q 185 124 228 136 m 399 925 q 317 947 353 925 q 263 1003 282 968 q 243 1078 243 1039 q 265 1149 243 1118 q 323 1199 288 1181 q 399 1218 358 1218 q 477 1201 440 1218 q 538 1155 514 1185 q 563 1082 563 1125 q 543 1008 563 1044 q 487 948 524 971 q 399 925 450 925 m 401 1031 q 435 1044 422 1031 q 447 1075 447 1058 q 433 1101 447 1092 q 401 1111 418 1111 q 372 1100 385 1111 q 358 1074 358 1089 q 370 1044 358 1057 q 401 1031 382 1031 z "},"":{"ha":867,"x_min":46,"x_max":826,"o":"m 389 10 q 239 64 301 25 q 136 158 176 103 q 75 274 96 213 q 50 396 54 335 q 57 508 46 457 q 99 638 69 569 q 178 767 128 707 q 303 866 229 828 q 479 904 378 904 q 641 868 571 904 q 754 776 711 832 q 812 658 797 721 q 807 539 826 594 q 798 524 807 539 q 769 497 789 510 q 715 489 749 485 q 662 512 681 493 q 637 549 643 531 q 631 567 631 567 q 629 581 631 567 q 623 615 628 594 q 606 658 618 636 q 573 697 594 681 q 517 717 551 713 q 434 699 472 721 q 365 642 396 678 q 312 562 333 606 q 278 476 290 518 q 268 401 267 433 q 278 340 269 369 q 301 285 286 310 q 336 239 317 260 q 379 206 356 218 q 428 189 403 193 q 490 198 457 185 q 551 233 522 211 q 590 276 579 254 q 599 288 590 276 q 624 311 607 299 q 669 326 642 324 q 733 313 696 329 q 781 280 765 297 q 799 244 796 263 q 799 210 803 225 q 792 186 796 196 q 788 176 788 176 q 774 155 788 176 q 733 103 761 133 q 659 44 706 72 q 546 5 613 17 q 389 10 479 -7 m 446 -317 q 364 -294 399 -314 q 300 -249 329 -275 q 294 -242 300 -249 q 284 -224 289 -235 q 281 -201 279 -214 q 294 -176 282 -189 q 324 -162 308 -164 q 350 -164 339 -161 q 361 -167 361 -167 q 401 -191 385 -181 q 435 -207 417 -201 q 463 -203 453 -208 q 478 -189 474 -197 q 481 -171 482 -181 q 464 -144 475 -156 q 436 -125 453 -133 q 416 -121 429 -126 q 392 -107 403 -115 q 382 -92 382 -99 q 374 -31 374 -64 q 379 21 375 1 q 383 31 379 21 q 397 53 386 42 q 432 63 408 64 q 467 44 456 61 q 478 28 478 28 q 488 -2 482 17 q 494 -43 493 -21 q 526 -60 508 -49 q 560 -89 543 -71 q 588 -128 576 -107 q 603 -172 600 -149 q 590 -259 610 -226 q 533 -305 571 -292 q 446 -317 494 -318 z "},"":{"ha":763,"x_min":49,"x_max":718,"o":"m 199 3 q 123 22 150 7 q 83 58 96 38 q 67 97 71 78 q 61 126 63 115 q 53 310 57 226 q 49 473 50 393 q 53 641 49 553 q 67 840 57 729 q 93 881 71 860 q 165 906 115 901 l 567 910 q 580 909 567 910 q 614 905 593 908 q 656 891 635 901 q 690 861 676 881 q 706 811 704 842 q 694 763 707 781 q 663 738 681 746 q 633 727 646 729 q 619 725 619 725 l 269 740 q 265 613 267 669 q 262 509 263 557 q 262 414 261 461 q 263 312 263 367 q 267 188 264 257 q 345 199 313 194 q 403 207 378 203 q 453 215 428 211 q 507 224 478 218 q 576 238 536 229 q 588 238 576 238 q 617 236 599 239 q 653 226 635 233 q 688 203 672 218 q 708 167 703 189 q 712 113 718 133 q 692 81 706 92 q 668 65 679 69 q 657 60 657 60 q 538 35 593 46 q 431 17 483 24 q 322 6 378 10 q 199 3 265 1 m 106 371 l 94 557 l 482 572 q 493 569 482 572 q 521 561 504 567 q 553 544 538 556 q 581 515 569 532 q 592 474 592 499 q 578 424 592 442 q 547 398 565 406 q 516 388 529 390 q 503 386 503 386 l 106 371 m 476 943 q 428 958 457 949 q 369 980 400 967 q 308 1010 339 993 q 254 1047 278 1026 q 248 1053 254 1047 q 236 1071 242 1060 q 230 1097 231 1082 q 240 1129 229 1111 q 264 1151 249 1144 q 294 1158 279 1157 q 318 1157 308 1158 q 328 1156 328 1156 q 409 1128 364 1143 q 522 1082 454 1113 q 533 1074 522 1082 q 557 1053 544 1067 q 574 1019 569 1039 q 563 972 578 999 q 541 950 556 957 q 512 942 526 943 q 487 942 497 940 q 476 943 476 943 z "},"":{"ha":763,"x_min":49,"x_max":718,"o":"m 199 3 q 123 22 150 7 q 83 58 96 38 q 67 97 71 78 q 61 126 63 115 q 53 310 57 226 q 49 473 50 393 q 53 641 49 553 q 67 840 57 729 q 93 881 71 860 q 165 906 115 901 l 567 910 q 580 909 567 910 q 614 905 593 908 q 656 891 635 901 q 690 861 676 881 q 706 811 704 842 q 694 763 707 781 q 663 738 681 746 q 633 727 646 729 q 619 725 619 725 l 269 740 q 265 613 267 669 q 262 509 263 557 q 262 414 261 461 q 263 312 263 367 q 267 188 264 257 q 345 199 313 194 q 403 207 378 203 q 453 215 428 211 q 507 224 478 218 q 576 238 536 229 q 588 238 576 238 q 617 236 599 239 q 653 226 635 233 q 688 203 672 218 q 708 167 703 189 q 712 113 718 133 q 692 81 706 92 q 668 65 679 69 q 657 60 657 60 q 538 35 593 46 q 431 17 483 24 q 322 6 378 10 q 199 3 265 1 m 106 371 l 94 557 l 482 572 q 493 569 482 572 q 521 561 504 567 q 553 544 538 556 q 581 515 569 532 q 592 474 592 499 q 578 424 592 442 q 547 398 565 406 q 516 388 529 390 q 503 386 503 386 l 106 371 m 325 936 q 315 935 325 936 q 290 935 304 935 q 260 943 275 936 q 238 965 246 950 q 229 1012 225 992 q 245 1046 233 1032 q 269 1067 257 1060 q 281 1075 281 1075 q 393 1122 349 1107 q 474 1149 438 1138 q 484 1150 474 1149 q 509 1151 494 1151 q 538 1144 524 1150 q 563 1122 553 1138 q 572 1090 572 1106 q 565 1065 571 1075 q 553 1048 560 1054 q 547 1042 547 1042 q 493 1003 524 1021 q 432 974 463 986 q 373 951 401 961 q 325 936 344 942 z "},"":{"ha":763,"x_min":49,"x_max":718,"o":"m 199 3 q 123 22 150 7 q 83 58 96 38 q 67 97 71 78 q 61 126 63 115 q 53 310 57 226 q 49 473 50 393 q 53 641 49 553 q 67 840 57 729 q 93 881 71 860 q 165 906 115 901 l 567 910 q 580 909 567 910 q 614 905 593 908 q 656 891 635 901 q 690 861 676 881 q 706 811 704 842 q 694 763 707 781 q 663 738 681 746 q 633 727 646 729 q 619 725 619 725 l 269 740 q 265 613 267 669 q 262 509 263 557 q 262 414 261 461 q 263 312 263 367 q 267 188 264 257 q 345 199 313 194 q 403 207 378 203 q 453 215 428 211 q 507 224 478 218 q 576 238 536 229 q 588 238 576 238 q 617 236 599 239 q 653 226 635 233 q 688 203 672 218 q 708 167 703 189 q 712 113 718 133 q 692 81 706 92 q 668 65 679 69 q 657 60 657 60 q 538 35 593 46 q 431 17 483 24 q 322 6 378 10 q 199 3 265 1 m 106 371 l 94 557 l 482 572 q 493 569 482 572 q 521 561 504 567 q 553 544 538 556 q 581 515 569 532 q 592 474 592 499 q 578 424 592 442 q 547 398 565 406 q 516 388 529 390 q 503 386 503 386 l 106 371 m 232 950 q 206 979 213 965 q 199 1006 199 993 q 202 1025 199 1018 q 206 1032 206 1032 q 240 1076 224 1057 q 278 1114 257 1096 q 329 1154 300 1132 q 364 1169 342 1165 q 411 1170 386 1174 q 457 1150 436 1167 l 576 1071 q 585 1062 576 1071 q 601 1038 593 1053 q 606 1006 608 1024 q 583 968 604 988 q 551 951 568 954 q 518 951 533 949 q 493 958 503 954 q 483 961 483 961 l 406 1022 q 361 988 385 1008 q 313 943 338 968 q 301 940 313 943 q 270 936 289 936 q 232 950 251 936 z "},"":{"ha":763,"x_min":49,"x_max":718,"o":"m 199 3 q 123 22 150 7 q 83 58 96 38 q 67 97 71 78 q 61 126 63 115 q 53 310 57 226 q 49 473 50 393 q 53 641 49 553 q 67 840 57 729 q 93 881 71 860 q 165 906 115 901 l 567 910 q 580 909 567 910 q 614 905 593 908 q 656 891 635 901 q 690 861 676 881 q 706 811 704 842 q 694 763 707 781 q 663 738 681 746 q 633 727 646 729 q 619 725 619 725 l 269 740 q 265 613 267 669 q 262 509 263 557 q 262 414 261 461 q 263 312 263 367 q 267 188 264 257 q 345 199 313 194 q 403 207 378 203 q 453 215 428 211 q 507 224 478 218 q 576 238 536 229 q 588 238 576 238 q 617 236 599 239 q 653 226 635 233 q 688 203 672 218 q 708 167 703 189 q 712 113 718 133 q 692 81 706 92 q 668 65 679 69 q 657 60 657 60 q 538 35 593 46 q 431 17 483 24 q 322 6 378 10 q 199 3 265 1 m 106 371 l 94 557 l 482 572 q 493 569 482 572 q 521 561 504 567 q 553 544 538 556 q 581 515 569 532 q 592 474 592 499 q 578 424 592 442 q 547 398 565 406 q 516 388 529 390 q 503 386 503 386 l 106 371 m 549 938 q 490 951 517 938 q 447 986 463 964 q 431 1036 431 1008 q 447 1087 431 1064 q 489 1124 463 1110 q 549 1138 515 1138 q 607 1124 581 1138 q 649 1087 633 1110 q 665 1036 665 1064 q 631 960 665 982 q 549 938 597 938 m 254 938 q 195 951 222 938 q 153 986 168 964 q 138 1036 138 1008 q 153 1087 138 1064 q 194 1124 168 1110 q 254 1138 221 1138 q 314 1124 288 1138 q 356 1087 340 1110 q 372 1036 372 1064 q 356 978 372 1000 q 314 947 340 957 q 254 938 288 938 z "},"":{"ha":324,"x_min":-8,"x_max":339,"o":"m 172 4 q 115 19 136 4 q 82 52 93 33 q 67 85 71 71 q 64 99 64 99 q 55 229 58 158 q 50 376 51 300 q 51 531 49 453 q 57 685 53 610 q 67 826 61 760 q 69 838 67 826 q 79 865 71 850 q 107 891 88 879 q 161 903 126 903 q 219 889 197 901 q 253 858 242 876 q 269 822 265 840 q 274 792 274 804 q 274 779 274 779 q 265 656 268 722 q 262 516 263 589 q 262 368 261 443 q 265 220 263 293 q 271 83 268 147 q 269 71 271 83 q 259 43 268 58 q 230 15 250 28 q 172 4 210 3 m 239 943 q 191 958 219 949 q 132 980 163 967 q 71 1010 101 993 q 17 1047 40 1026 q 10 1053 17 1047 q -1 1071 4 1060 q -8 1097 -7 1082 q 3 1129 -8 1111 q 26 1151 11 1144 q 56 1158 42 1157 q 81 1157 71 1158 q 90 1156 90 1156 q 172 1128 126 1143 q 285 1082 217 1113 q 296 1074 285 1082 q 319 1053 307 1067 q 336 1019 332 1039 q 325 972 340 999 q 303 950 318 957 q 274 942 289 943 q 249 942 260 940 q 239 943 239 943 z "},"":{"ha":324,"x_min":-14,"x_max":333,"o":"m 172 4 q 115 19 136 4 q 82 52 93 33 q 67 85 71 71 q 64 99 64 99 q 55 229 58 158 q 50 376 51 300 q 51 531 49 453 q 57 685 53 610 q 67 826 61 760 q 69 838 67 826 q 79 865 71 850 q 107 891 88 879 q 161 903 126 903 q 219 889 197 901 q 253 858 242 876 q 269 822 265 840 q 274 792 274 804 q 274 779 274 779 q 265 656 268 722 q 262 516 263 589 q 262 368 261 443 q 265 220 263 293 q 271 83 268 147 q 269 71 271 83 q 259 43 268 58 q 230 15 250 28 q 172 4 210 3 m 86 936 q 76 935 86 936 q 51 935 65 935 q 22 943 36 936 q -1 965 7 950 q -10 1012 -14 992 q 6 1046 -6 1032 q 30 1067 18 1060 q 42 1075 42 1075 q 154 1122 110 1107 q 235 1149 199 1138 q 245 1150 235 1149 q 270 1151 256 1151 q 299 1144 285 1150 q 324 1122 314 1138 q 333 1090 333 1106 q 326 1065 332 1075 q 315 1048 321 1054 q 308 1042 308 1042 q 254 1003 285 1021 q 193 974 224 986 q 134 951 163 961 q 86 936 106 942 z "},"":{"ha":324,"x_min":-40,"x_max":369,"o":"m 172 4 q 115 19 136 4 q 82 52 93 33 q 67 85 71 71 q 64 99 64 99 q 55 229 58 158 q 50 376 51 300 q 51 531 49 453 q 57 685 53 610 q 67 826 61 760 q 69 838 67 826 q 79 865 71 850 q 107 891 88 879 q 161 903 126 903 q 219 889 197 901 q 253 858 242 876 q 269 822 265 840 q 274 792 274 804 q 274 779 274 779 q 265 656 268 722 q 262 516 263 589 q 262 368 261 443 q 265 220 263 293 q 271 83 268 147 q 269 71 271 83 q 259 43 268 58 q 230 15 250 28 q 172 4 210 3 m -6 950 q -32 979 -25 965 q -39 1006 -39 993 q -35 1025 -39 1018 q -32 1032 -32 1032 q 3 1076 -14 1057 q 41 1114 19 1096 q 92 1154 63 1132 q 126 1169 104 1165 q 174 1170 149 1174 q 219 1150 199 1167 l 339 1071 q 347 1062 339 1071 q 363 1038 356 1053 q 369 1006 371 1024 q 346 968 367 988 q 313 951 331 954 q 281 951 296 949 q 256 958 265 954 q 246 961 246 961 l 168 1022 q 124 988 147 1008 q 75 943 100 968 q 63 940 75 943 q 33 936 51 936 q -6 950 14 936 z "},"":{"ha":324,"x_min":-101,"x_max":426,"o":"m 172 4 q 115 19 136 4 q 82 52 93 33 q 67 85 71 71 q 64 99 64 99 q 55 229 58 158 q 50 376 51 300 q 51 531 49 453 q 57 685 53 610 q 67 826 61 760 q 69 838 67 826 q 79 865 71 850 q 107 891 88 879 q 161 903 126 903 q 219 889 197 901 q 253 858 242 876 q 269 822 265 840 q 274 792 274 804 q 274 779 274 779 q 265 656 268 722 q 262 516 263 589 q 262 368 261 443 q 265 220 263 293 q 271 83 268 147 q 269 71 271 83 q 259 43 268 58 q 230 15 250 28 q 172 4 210 3 m 310 938 q 251 951 278 938 q 208 986 224 964 q 192 1036 192 1008 q 208 1087 192 1064 q 250 1124 224 1110 q 310 1138 276 1138 q 368 1124 342 1138 q 410 1087 394 1110 q 426 1036 426 1064 q 392 960 426 982 q 310 938 358 938 m 15 938 q -44 951 -17 938 q -86 986 -71 964 q -101 1036 -101 1008 q -86 1087 -101 1064 q -44 1124 -71 1110 q 15 1138 -18 1138 q 75 1124 49 1138 q 117 1087 101 1110 q 133 1036 133 1064 q 117 978 133 1000 q 75 947 101 957 q 15 938 49 938 z "},"":{"ha":886,"x_min":-78,"x_max":850,"o":"m 219 -3 q 110 29 149 0 q 60 97 72 58 q 50 456 51 279 q 60 803 49 633 q 128 884 61 864 q 313 904 196 904 q 492 886 418 904 q 617 837 565 868 q 705 766 668 806 q 772 686 742 726 q 835 396 850 531 q 722 142 819 261 q 585 45 665 78 q 412 3 506 13 q 219 -3 318 -6 m 269 203 q 426 211 363 196 q 530 260 490 226 q 589 344 569 293 q 611 460 608 394 q 580 597 606 543 q 510 679 554 650 q 405 716 465 708 q 271 715 344 724 q 266 464 265 592 q 269 203 267 336 m 13 376 q -6 378 11 376 q -43 389 -24 379 q -71 428 -62 399 q -74 464 -78 449 q -62 488 -71 479 q -46 499 -53 496 q -39 503 -39 503 q 31 515 -6 508 q 106 525 67 521 q 187 531 144 529 q 275 530 229 532 q 371 521 321 528 q 383 516 371 521 q 408 501 394 511 q 433 477 422 492 q 444 443 444 463 q 433 403 444 418 q 409 382 422 389 q 385 374 396 375 q 375 372 375 372 q 286 378 325 375 q 216 382 247 381 q 154 383 185 383 q 90 381 124 382 q 13 376 56 381 z "},"":{"ha":864,"x_min":49,"x_max":814,"o":"m 169 4 q 115 19 136 7 q 82 49 94 32 q 66 78 69 67 q 63 90 63 90 q 51 248 54 165 q 49 415 49 331 q 53 581 50 499 q 60 739 56 663 q 63 754 60 739 q 81 788 65 769 q 129 815 96 807 q 170 818 149 822 q 208 808 192 814 q 226 799 225 801 q 336 684 276 750 q 462 540 396 618 q 596 375 528 461 q 593 476 594 424 q 593 583 592 528 q 597 701 594 639 q 606 835 600 764 q 608 845 606 835 q 620 869 611 856 q 649 892 629 882 q 701 900 668 901 q 760 888 739 900 q 794 856 782 875 q 810 820 806 838 q 814 790 814 803 q 814 778 814 778 q 806 656 808 722 q 802 519 803 590 q 802 374 801 447 q 805 227 803 300 q 811 86 807 154 q 810 75 811 86 q 802 49 810 64 q 778 22 794 35 q 733 4 763 8 q 676 13 701 0 q 637 42 650 26 q 624 57 624 57 q 608 74 624 57 q 568 120 593 90 q 510 188 543 150 q 443 267 478 226 q 374 349 408 308 q 310 425 339 389 q 261 486 281 461 q 260 370 260 431 q 262 240 260 310 q 267 83 264 169 q 265 71 267 83 q 253 42 263 58 q 224 15 243 26 q 169 4 204 3 m 300 943 q 263 940 282 935 q 233 952 244 944 q 221 960 221 960 q 187 1016 192 986 q 194 1074 182 1046 q 233 1121 207 1101 q 292 1144 258 1140 q 383 1140 344 1150 q 454 1115 421 1131 q 525 1083 488 1099 q 540 1092 533 1083 q 553 1110 546 1100 q 561 1119 553 1110 q 588 1135 569 1128 q 636 1135 607 1142 q 681 1112 667 1126 q 699 1083 694 1097 q 703 1058 704 1068 q 701 1047 701 1047 q 674 992 699 1024 q 601 950 649 960 q 542 946 574 943 q 478 958 510 949 q 414 979 447 967 q 376 990 396 985 q 344 998 357 994 q 328 999 331 1001 q 328 988 328 999 q 324 965 329 978 q 300 943 318 953 z "},"":{"ha":1031,"x_min":44,"x_max":986,"o":"m 433 -10 q 274 22 346 -10 q 149 112 201 54 q 71 248 97 169 q 50 421 44 326 q 88 603 54 515 q 178 760 121 690 q 315 870 236 829 q 488 911 393 911 q 631 897 558 911 q 767 848 703 882 q 883 758 832 814 q 960 622 933 703 q 981 431 986 540 q 941 272 976 342 q 849 149 906 201 q 723 60 793 96 q 578 8 653 25 q 433 -10 504 -10 m 475 197 q 549 207 511 197 q 621 238 586 217 q 683 290 656 258 q 729 363 711 321 q 749 458 747 406 q 733 578 753 529 q 679 656 714 626 q 600 699 644 686 q 510 713 556 713 q 425 691 465 713 q 353 631 385 669 q 303 542 322 593 q 282 436 285 492 q 301 308 278 361 q 369 226 325 254 q 475 197 414 197 m 564 943 q 516 958 544 949 q 457 980 488 967 q 396 1010 426 993 q 342 1047 365 1026 q 335 1053 342 1047 q 324 1071 329 1060 q 317 1097 318 1082 q 328 1129 317 1111 q 351 1151 336 1144 q 381 1158 367 1157 q 406 1157 396 1158 q 415 1156 415 1156 q 497 1128 451 1143 q 610 1082 542 1113 q 621 1074 610 1082 q 644 1053 632 1067 q 661 1019 657 1039 q 650 972 665 999 q 628 950 643 957 q 599 942 614 943 q 574 942 585 940 q 564 943 564 943 z "},"":{"ha":1031,"x_min":44,"x_max":986,"o":"m 433 -10 q 274 22 346 -10 q 149 112 201 54 q 71 248 97 169 q 50 421 44 326 q 88 603 54 515 q 178 760 121 690 q 315 870 236 829 q 488 911 393 911 q 631 897 558 911 q 767 848 703 882 q 883 758 832 814 q 960 622 933 703 q 981 431 986 540 q 941 272 976 342 q 849 149 906 201 q 723 60 793 96 q 578 8 653 25 q 433 -10 504 -10 m 475 197 q 549 207 511 197 q 621 238 586 217 q 683 290 656 258 q 729 363 711 321 q 749 458 747 406 q 733 578 753 529 q 679 656 714 626 q 600 699 644 686 q 510 713 556 713 q 425 691 465 713 q 353 631 385 669 q 303 542 322 593 q 282 436 285 492 q 301 308 278 361 q 369 226 325 254 q 475 197 414 197 m 413 936 q 402 935 413 936 q 377 935 392 935 q 348 943 363 936 q 325 965 333 950 q 317 1012 313 992 q 333 1046 321 1032 q 356 1067 344 1060 q 368 1075 368 1075 q 481 1122 436 1107 q 561 1149 525 1138 q 572 1150 561 1149 q 597 1151 582 1151 q 626 1144 611 1150 q 650 1122 640 1138 q 659 1090 660 1106 q 653 1065 658 1075 q 641 1048 647 1054 q 635 1042 635 1042 q 581 1003 611 1021 q 519 974 550 986 q 460 951 489 961 q 413 936 432 942 z "},"":{"ha":1031,"x_min":44,"x_max":986,"o":"m 433 -10 q 274 22 346 -10 q 149 112 201 54 q 71 248 97 169 q 50 421 44 326 q 88 603 54 515 q 178 760 121 690 q 315 870 236 829 q 488 911 393 911 q 631 897 558 911 q 767 848 703 882 q 883 758 832 814 q 960 622 933 703 q 981 431 986 540 q 941 272 976 342 q 849 149 906 201 q 723 60 793 96 q 578 8 653 25 q 433 -10 504 -10 m 475 197 q 549 207 511 197 q 621 238 586 217 q 683 290 656 258 q 729 363 711 321 q 749 458 747 406 q 733 578 753 529 q 679 656 714 626 q 600 699 644 686 q 510 713 556 713 q 425 691 465 713 q 353 631 385 669 q 303 542 322 593 q 282 436 285 492 q 301 308 278 361 q 369 226 325 254 q 475 197 414 197 m 319 950 q 293 979 300 965 q 286 1006 286 993 q 290 1025 286 1018 q 293 1032 293 1032 q 328 1076 311 1057 q 366 1114 344 1096 q 417 1154 388 1132 q 451 1169 429 1165 q 499 1170 474 1174 q 544 1150 524 1167 l 664 1071 q 672 1062 664 1071 q 688 1038 681 1053 q 694 1006 696 1024 q 671 968 692 988 q 638 951 656 954 q 606 951 621 949 q 581 958 590 954 q 571 961 571 961 l 493 1022 q 449 988 472 1008 q 400 943 425 968 q 388 940 400 943 q 358 936 376 936 q 319 950 339 936 z "},"":{"ha":1031,"x_min":44,"x_max":986,"o":"m 433 -10 q 274 22 346 -10 q 149 112 201 54 q 71 248 97 169 q 50 421 44 326 q 88 603 54 515 q 178 760 121 690 q 315 870 236 829 q 488 911 393 911 q 631 897 558 911 q 767 848 703 882 q 883 758 832 814 q 960 622 933 703 q 981 431 986 540 q 941 272 976 342 q 849 149 906 201 q 723 60 793 96 q 578 8 653 25 q 433 -10 504 -10 m 475 197 q 549 207 511 197 q 621 238 586 217 q 683 290 656 258 q 729 363 711 321 q 749 458 747 406 q 733 578 753 529 q 679 656 714 626 q 600 699 644 686 q 510 713 556 713 q 425 691 465 713 q 353 631 385 669 q 303 542 322 593 q 282 436 285 492 q 301 308 278 361 q 369 226 325 254 q 475 197 414 197 m 349 943 q 312 940 331 935 q 281 952 293 944 q 269 960 269 960 q 235 1016 240 986 q 243 1074 231 1046 q 281 1121 256 1101 q 340 1144 307 1140 q 431 1140 393 1150 q 503 1115 469 1131 q 574 1083 536 1099 q 588 1092 582 1083 q 601 1110 594 1100 q 610 1119 601 1110 q 637 1135 618 1128 q 685 1135 656 1142 q 729 1112 715 1126 q 748 1083 743 1097 q 751 1058 753 1068 q 750 1047 750 1047 q 722 992 747 1024 q 650 950 697 960 q 590 946 622 943 q 527 958 558 949 q 463 979 496 967 q 425 990 444 985 q 392 998 406 994 q 376 999 379 1001 q 377 988 376 999 q 372 965 378 978 q 349 943 367 953 z "},"":{"ha":1031,"x_min":44,"x_max":986,"o":"m 433 -10 q 274 22 346 -10 q 149 112 201 54 q 71 248 97 169 q 50 421 44 326 q 88 603 54 515 q 178 760 121 690 q 315 870 236 829 q 488 911 393 911 q 631 897 558 911 q 767 848 703 882 q 883 758 832 814 q 960 622 933 703 q 981 431 986 540 q 941 272 976 342 q 849 149 906 201 q 723 60 793 96 q 578 8 653 25 q 433 -10 504 -10 m 475 197 q 549 207 511 197 q 621 238 586 217 q 683 290 656 258 q 729 363 711 321 q 749 458 747 406 q 733 578 753 529 q 679 656 714 626 q 600 699 644 686 q 510 713 556 713 q 425 691 465 713 q 353 631 385 669 q 303 542 322 593 q 282 436 285 492 q 301 308 278 361 q 369 226 325 254 q 475 197 414 197 m 636 938 q 577 951 604 938 q 534 986 550 964 q 518 1036 518 1008 q 534 1087 518 1064 q 576 1124 550 1110 q 636 1138 603 1138 q 694 1124 668 1138 q 737 1087 721 1110 q 753 1036 753 1064 q 719 960 753 982 q 636 938 685 938 m 342 938 q 283 951 310 938 q 240 986 256 964 q 225 1036 225 1008 q 240 1087 225 1064 q 282 1124 256 1110 q 342 1138 308 1138 q 401 1124 375 1138 q 444 1087 428 1110 q 460 1036 460 1064 q 444 978 460 1000 q 401 947 428 957 q 342 938 375 938 z "},"":{"ha":1031,"x_min":44,"x_max":986,"o":"m 433 -10 q 274 22 346 -10 q 149 112 201 54 q 71 248 97 169 q 50 421 44 326 q 88 603 54 515 q 178 760 121 690 q 315 870 236 829 q 488 911 393 911 q 631 897 558 911 q 767 848 703 882 q 883 758 832 814 q 960 622 933 703 q 981 431 986 540 q 941 272 976 342 q 849 149 906 201 q 723 60 793 96 q 578 8 653 25 q 433 -10 504 -10 m 475 197 q 549 207 511 197 q 621 238 586 217 q 683 290 656 258 q 729 363 711 321 q 749 458 747 406 q 733 578 753 529 q 679 656 714 626 q 600 699 644 686 q 510 713 556 713 q 425 691 465 713 q 353 631 385 669 q 303 542 322 593 q 282 436 285 492 q 301 308 278 361 q 369 226 325 254 q 475 197 414 197 m 296 -49 q 249 -19 264 -37 q 231 17 235 -1 q 228 49 226 36 q 229 61 229 61 q 301 235 260 139 q 394 440 343 332 q 500 663 444 549 q 613 889 556 776 q 619 899 613 889 q 640 921 625 908 q 677 938 654 933 q 732 933 700 943 q 782 904 767 922 q 801 867 797 886 q 801 835 804 847 q 799 822 799 822 q 649 497 718 653 q 522 210 579 342 q 424 -21 464 79 q 410 -34 424 -21 q 368 -55 396 -47 q 296 -49 340 -62 z "},"":{"ha":861,"x_min":49,"x_max":814,"o":"m 443 -4 q 238 58 324 4 q 103 219 151 113 q 49 490 54 326 l 49 838 q 51 848 49 838 q 63 872 54 858 q 90 895 71 885 q 140 906 108 906 q 208 891 182 906 q 246 857 233 876 q 262 823 258 838 q 265 808 265 808 l 271 483 q 292 324 271 388 q 349 226 313 260 q 432 185 385 192 q 519 230 485 193 q 570 344 553 267 q 586 550 588 421 l 583 813 q 584 825 583 813 q 592 853 585 838 q 618 882 599 869 q 675 894 638 894 q 737 881 713 894 q 775 849 761 868 q 795 810 789 829 q 803 777 801 790 q 806 764 806 764 l 813 501 q 797 309 814 399 q 740 150 781 219 q 626 40 699 81 q 443 -4 554 0 m 506 943 q 458 958 486 949 q 399 980 429 967 q 338 1010 368 993 q 283 1047 307 1026 q 277 1053 283 1047 q 265 1071 271 1060 q 259 1097 260 1082 q 269 1129 258 1111 q 293 1151 278 1144 q 323 1158 308 1157 q 347 1157 338 1158 q 357 1156 357 1156 q 438 1128 393 1143 q 551 1082 483 1113 q 563 1074 551 1082 q 586 1053 574 1067 q 603 1019 599 1039 q 592 972 607 999 q 570 950 585 957 q 541 942 556 943 q 516 942 526 940 q 506 943 506 943 z "},"":{"ha":861,"x_min":49,"x_max":814,"o":"m 443 -4 q 238 58 324 4 q 103 219 151 113 q 49 490 54 326 l 49 838 q 51 848 49 838 q 63 872 54 858 q 90 895 71 885 q 140 906 108 906 q 208 891 182 906 q 246 857 233 876 q 262 823 258 838 q 265 808 265 808 l 271 483 q 292 324 271 388 q 349 226 313 260 q 432 185 385 192 q 519 230 485 193 q 570 344 553 267 q 586 550 588 421 l 583 813 q 584 825 583 813 q 592 853 585 838 q 618 882 599 869 q 675 894 638 894 q 737 881 713 894 q 775 849 761 868 q 795 810 789 829 q 803 777 801 790 q 806 764 806 764 l 813 501 q 797 309 814 399 q 740 150 781 219 q 626 40 699 81 q 443 -4 554 0 m 354 936 q 344 935 354 936 q 319 935 333 935 q 290 943 304 936 q 267 965 275 950 q 258 1012 254 992 q 274 1046 263 1032 q 298 1067 286 1060 q 310 1075 310 1075 q 422 1122 378 1107 q 503 1149 467 1138 q 513 1150 503 1149 q 538 1151 524 1151 q 567 1144 553 1150 q 592 1122 582 1138 q 601 1090 601 1106 q 594 1065 600 1075 q 583 1048 589 1054 q 576 1042 576 1042 q 522 1003 553 1021 q 461 974 492 986 q 402 951 431 961 q 354 936 374 942 z "},"":{"ha":861,"x_min":49,"x_max":814,"o":"m 443 -4 q 238 58 324 4 q 103 219 151 113 q 49 490 54 326 l 49 838 q 51 848 49 838 q 63 872 54 858 q 90 895 71 885 q 140 906 108 906 q 208 891 182 906 q 246 857 233 876 q 262 823 258 838 q 265 808 265 808 l 271 483 q 292 324 271 388 q 349 226 313 260 q 432 185 385 192 q 519 230 485 193 q 570 344 553 267 q 586 550 588 421 l 583 813 q 584 825 583 813 q 592 853 585 838 q 618 882 599 869 q 675 894 638 894 q 737 881 713 894 q 775 849 761 868 q 795 810 789 829 q 803 777 801 790 q 806 764 806 764 l 813 501 q 797 309 814 399 q 740 150 781 219 q 626 40 699 81 q 443 -4 554 0 m 261 950 q 235 979 242 965 q 228 1006 228 993 q 231 1025 228 1018 q 235 1032 235 1032 q 269 1076 253 1057 q 308 1114 286 1096 q 358 1154 329 1132 q 393 1169 371 1165 q 440 1170 415 1174 q 486 1150 465 1167 l 606 1071 q 614 1062 606 1071 q 630 1038 622 1053 q 635 1006 638 1024 q 613 968 633 988 q 580 951 597 954 q 547 951 563 949 q 522 958 532 954 q 513 961 513 961 l 435 1022 q 390 988 414 1008 q 342 943 367 968 q 330 940 342 943 q 299 936 318 936 q 261 950 281 936 z "},"":{"ha":861,"x_min":49,"x_max":814,"o":"m 443 -4 q 238 58 324 4 q 103 219 151 113 q 49 490 54 326 l 49 838 q 51 848 49 838 q 63 872 54 858 q 90 895 71 885 q 140 906 108 906 q 208 891 182 906 q 246 857 233 876 q 262 823 258 838 q 265 808 265 808 l 271 483 q 292 324 271 388 q 349 226 313 260 q 432 185 385 192 q 519 230 485 193 q 570 344 553 267 q 586 550 588 421 l 583 813 q 584 825 583 813 q 592 853 585 838 q 618 882 599 869 q 675 894 638 894 q 737 881 713 894 q 775 849 761 868 q 795 810 789 829 q 803 777 801 790 q 806 764 806 764 l 813 501 q 797 309 814 399 q 740 150 781 219 q 626 40 699 81 q 443 -4 554 0 m 578 938 q 519 951 546 938 q 476 986 492 964 q 460 1036 460 1008 q 476 1087 460 1064 q 518 1124 492 1110 q 578 1138 544 1138 q 636 1124 610 1138 q 678 1087 663 1110 q 694 1036 694 1064 q 660 960 694 982 q 578 938 626 938 m 283 938 q 224 951 251 938 q 182 986 197 964 q 167 1036 167 1008 q 182 1087 167 1064 q 224 1124 197 1110 q 283 1138 250 1138 q 343 1124 317 1138 q 385 1087 369 1110 q 401 1036 401 1064 q 385 978 401 1000 q 343 947 369 957 q 283 938 317 938 z "},"":{"ha":768,"x_min":36,"x_max":724,"o":"m 376 314 q 168 398 247 331 q 63 576 89 465 q 65 825 36 686 q 69 837 65 825 q 86 865 74 849 q 120 890 99 881 q 176 893 142 900 q 235 871 215 888 q 263 836 256 854 q 273 804 271 818 q 275 790 275 790 q 280 581 263 654 q 356 500 297 508 q 414 527 385 503 q 465 592 443 551 q 496 683 486 633 q 496 783 506 733 q 494 797 496 783 q 494 828 492 810 q 513 864 497 847 q 563 888 528 881 q 631 885 603 894 q 674 858 658 875 q 698 826 690 840 q 706 813 706 813 q 716 652 724 735 q 670 497 708 569 q 560 374 632 424 q 376 314 488 325 m 386 7 q 330 20 351 7 q 297 49 308 33 q 279 78 285 65 q 274 90 274 90 q 261 255 260 172 q 272 415 263 338 l 481 413 q 471 232 469 317 q 479 81 472 147 q 478 69 479 81 q 468 44 476 58 q 440 18 460 29 q 386 7 421 7 m 313 936 q 302 935 313 936 q 277 935 292 935 q 248 943 263 936 q 225 965 233 950 q 217 1012 213 992 q 233 1046 221 1032 q 256 1067 244 1060 q 268 1075 268 1075 q 381 1122 336 1107 q 461 1149 425 1138 q 472 1150 461 1149 q 497 1151 482 1151 q 526 1144 511 1150 q 550 1122 540 1138 q 559 1090 560 1106 q 553 1065 558 1075 q 541 1048 547 1054 q 535 1042 535 1042 q 481 1003 511 1021 q 419 974 450 986 q 360 951 389 961 q 313 936 332 942 z "},"":{"ha":872,"x_min":50,"x_max":822,"o":"m 399 0 q 260 26 324 0 q 149 98 197 51 q 76 206 101 144 q 50 336 50 267 q 79 481 51 415 q 155 593 107 546 q 267 667 203 640 q 406 693 332 693 q 594 658 518 694 q 710 544 671 621 q 750 347 750 467 q 729 216 750 278 q 665 106 708 154 q 556 31 622 58 q 399 0 489 3 m 406 190 q 466 204 438 190 q 516 242 494 218 q 551 297 538 267 q 564 363 564 328 q 545 458 564 421 q 495 513 526 494 q 422 531 464 531 q 365 514 392 531 q 317 471 338 497 q 285 412 297 444 q 274 344 274 379 q 290 265 274 300 q 336 210 306 231 q 406 190 367 190 m 736 0 q 681 11 703 0 q 649 33 660 22 q 639 44 639 44 q 622 243 629 146 q 616 442 615 340 q 626 656 617 544 q 636 666 626 656 q 668 687 646 676 q 726 693 690 697 q 785 672 765 690 q 813 633 806 654 q 822 594 821 611 q 822 578 822 578 q 813 452 817 507 q 810 344 810 397 q 814 229 811 292 q 821 81 817 167 q 819 69 821 81 q 810 41 818 57 q 785 13 803 25 q 736 0 768 0 m 508 746 q 460 760 489 751 q 401 783 432 769 q 340 813 371 796 q 286 850 310 829 q 280 856 286 850 q 268 874 274 863 q 262 899 263 885 q 272 932 261 914 q 296 953 281 947 q 326 960 311 960 q 350 960 340 961 q 360 958 360 958 q 441 931 396 946 q 554 885 486 915 q 565 877 554 885 q 589 856 576 869 q 606 822 601 842 q 594 775 610 801 q 573 753 588 760 q 544 744 558 746 q 519 744 529 743 q 508 746 508 746 z "},"":{"ha":872,"x_min":50,"x_max":822,"o":"m 399 0 q 260 26 324 0 q 149 98 197 51 q 76 206 101 144 q 50 336 50 267 q 79 481 51 415 q 155 593 107 546 q 267 667 203 640 q 406 693 332 693 q 594 658 518 694 q 710 544 671 621 q 750 347 750 467 q 729 216 750 278 q 665 106 708 154 q 556 31 622 58 q 399 0 489 3 m 406 190 q 466 204 438 190 q 516 242 494 218 q 551 297 538 267 q 564 363 564 328 q 545 458 564 421 q 495 513 526 494 q 422 531 464 531 q 365 514 392 531 q 317 471 338 497 q 285 412 297 444 q 274 344 274 379 q 290 265 274 300 q 336 210 306 231 q 406 190 367 190 m 736 0 q 681 11 703 0 q 649 33 660 22 q 639 44 639 44 q 622 243 629 146 q 616 442 615 340 q 626 656 617 544 q 636 666 626 656 q 668 687 646 676 q 726 693 690 697 q 785 672 765 690 q 813 633 806 654 q 822 594 821 611 q 822 578 822 578 q 813 452 817 507 q 810 344 810 397 q 814 229 811 292 q 821 81 817 167 q 819 69 821 81 q 810 41 818 57 q 785 13 803 25 q 736 0 768 0 m 357 739 q 347 738 357 739 q 322 738 336 738 q 292 746 307 739 q 269 768 278 753 q 261 815 257 794 q 277 849 265 835 q 301 870 289 863 q 313 878 313 878 q 425 925 381 910 q 506 951 469 940 q 516 953 506 951 q 541 953 526 954 q 570 947 556 953 q 594 925 585 940 q 603 893 604 908 q 597 867 603 878 q 585 851 592 857 q 579 844 579 844 q 525 806 556 824 q 464 776 494 789 q 405 754 433 764 q 357 739 376 744 z "},"":{"ha":872,"x_min":50,"x_max":822,"o":"m 399 0 q 260 26 324 0 q 149 98 197 51 q 76 206 101 144 q 50 336 50 267 q 79 481 51 415 q 155 593 107 546 q 267 667 203 640 q 406 693 332 693 q 594 658 518 694 q 710 544 671 621 q 750 347 750 467 q 729 216 750 278 q 665 106 708 154 q 556 31 622 58 q 399 0 489 3 m 406 190 q 466 204 438 190 q 516 242 494 218 q 551 297 538 267 q 564 363 564 328 q 545 458 564 421 q 495 513 526 494 q 422 531 464 531 q 365 514 392 531 q 317 471 338 497 q 285 412 297 444 q 274 344 274 379 q 290 265 274 300 q 336 210 306 231 q 406 190 367 190 m 736 0 q 681 11 703 0 q 649 33 660 22 q 639 44 639 44 q 622 243 629 146 q 616 442 615 340 q 626 656 617 544 q 636 666 626 656 q 668 687 646 676 q 726 693 690 697 q 785 672 765 690 q 813 633 806 654 q 822 594 821 611 q 822 578 822 578 q 813 452 817 507 q 810 344 810 397 q 814 229 811 292 q 821 81 817 167 q 819 69 821 81 q 810 41 818 57 q 785 13 803 25 q 736 0 768 0 m 264 753 q 238 782 244 768 q 231 808 231 796 q 234 828 231 821 q 238 835 238 835 q 272 879 256 860 q 310 917 289 899 q 361 957 332 935 q 396 972 374 968 q 443 973 418 976 q 489 953 468 969 l 608 874 q 617 865 608 874 q 633 841 625 856 q 638 808 640 826 q 615 771 636 790 q 583 754 600 757 q 550 754 565 751 q 525 760 535 757 q 515 764 515 764 l 438 825 q 393 791 417 811 q 344 746 369 771 q 333 742 344 746 q 302 739 321 739 q 264 753 283 739 z "},"":{"ha":872,"x_min":50,"x_max":822,"o":"m 399 0 q 260 26 324 0 q 149 98 197 51 q 76 206 101 144 q 50 336 50 267 q 79 481 51 415 q 155 593 107 546 q 267 667 203 640 q 406 693 332 693 q 594 658 518 694 q 710 544 671 621 q 750 347 750 467 q 729 216 750 278 q 665 106 708 154 q 556 31 622 58 q 399 0 489 3 m 406 190 q 466 204 438 190 q 516 242 494 218 q 551 297 538 267 q 564 363 564 328 q 545 458 564 421 q 495 513 526 494 q 422 531 464 531 q 365 514 392 531 q 317 471 338 497 q 285 412 297 444 q 274 344 274 379 q 290 265 274 300 q 336 210 306 231 q 406 190 367 190 m 736 0 q 681 11 703 0 q 649 33 660 22 q 639 44 639 44 q 622 243 629 146 q 616 442 615 340 q 626 656 617 544 q 636 666 626 656 q 668 687 646 676 q 726 693 690 697 q 785 672 765 690 q 813 633 806 654 q 822 594 821 611 q 822 578 822 578 q 813 452 817 507 q 810 344 810 397 q 814 229 811 292 q 821 81 817 167 q 819 69 821 81 q 810 41 818 57 q 785 13 803 25 q 736 0 768 0 m 293 746 q 256 742 275 738 q 226 755 238 747 q 214 763 214 763 q 180 819 185 789 q 188 876 175 849 q 226 924 200 904 q 285 947 251 943 q 376 943 338 953 q 447 917 414 933 q 518 886 481 901 q 533 894 526 886 q 546 913 539 903 q 554 922 546 913 q 581 938 563 931 q 629 938 600 944 q 674 915 660 929 q 692 885 688 900 q 696 860 697 871 q 694 850 694 850 q 667 794 692 826 q 594 753 642 763 q 535 749 567 746 q 472 760 503 751 q 407 782 440 769 q 369 792 389 788 q 337 801 350 797 q 321 801 324 804 q 322 791 321 801 q 317 768 322 781 q 293 746 311 756 z "},"":{"ha":872,"x_min":50,"x_max":822,"o":"m 399 0 q 260 26 324 0 q 149 98 197 51 q 76 206 101 144 q 50 336 50 267 q 79 481 51 415 q 155 593 107 546 q 267 667 203 640 q 406 693 332 693 q 594 658 518 694 q 710 544 671 621 q 750 347 750 467 q 729 216 750 278 q 665 106 708 154 q 556 31 622 58 q 399 0 489 3 m 406 190 q 466 204 438 190 q 516 242 494 218 q 551 297 538 267 q 564 363 564 328 q 545 458 564 421 q 495 513 526 494 q 422 531 464 531 q 365 514 392 531 q 317 471 338 497 q 285 412 297 444 q 274 344 274 379 q 290 265 274 300 q 336 210 306 231 q 406 190 367 190 m 736 0 q 681 11 703 0 q 649 33 660 22 q 639 44 639 44 q 622 243 629 146 q 616 442 615 340 q 626 656 617 544 q 636 666 626 656 q 668 687 646 676 q 726 693 690 697 q 785 672 765 690 q 813 633 806 654 q 822 594 821 611 q 822 578 822 578 q 813 452 817 507 q 810 344 810 397 q 814 229 811 292 q 821 81 817 167 q 819 69 821 81 q 810 41 818 57 q 785 13 803 25 q 736 0 768 0 m 581 740 q 522 753 549 740 q 478 789 494 767 q 463 839 463 811 q 478 890 463 867 q 521 926 494 913 q 581 940 547 940 q 639 926 613 940 q 681 890 665 913 q 697 839 697 867 q 663 763 697 785 q 581 740 629 740 m 286 740 q 227 753 254 740 q 185 789 200 767 q 169 839 169 811 q 185 890 169 867 q 226 926 200 913 q 286 940 253 940 q 346 926 319 940 q 388 890 372 913 q 404 839 404 867 q 388 781 404 803 q 346 750 372 760 q 286 740 319 740 z "},"":{"ha":872,"x_min":50,"x_max":822,"o":"m 399 0 q 260 26 324 0 q 149 98 197 51 q 76 206 101 144 q 50 336 50 267 q 79 481 51 415 q 155 593 107 546 q 267 667 203 640 q 406 693 332 693 q 594 658 518 694 q 710 544 671 621 q 750 347 750 467 q 729 216 750 278 q 665 106 708 154 q 556 31 622 58 q 399 0 489 3 m 406 190 q 466 204 438 190 q 516 242 494 218 q 551 297 538 267 q 564 363 564 328 q 545 458 564 421 q 495 513 526 494 q 422 531 464 531 q 365 514 392 531 q 317 471 338 497 q 285 412 297 444 q 274 344 274 379 q 290 265 274 300 q 336 210 306 231 q 406 190 367 190 m 736 0 q 681 11 703 0 q 649 33 660 22 q 639 44 639 44 q 622 243 629 146 q 616 442 615 340 q 626 656 617 544 q 636 666 626 656 q 668 687 646 676 q 726 693 690 697 q 785 672 765 690 q 813 633 806 654 q 822 594 821 611 q 822 578 822 578 q 813 452 817 507 q 810 344 810 397 q 814 229 811 292 q 821 81 817 167 q 819 69 821 81 q 810 41 818 57 q 785 13 803 25 q 736 0 768 0 m 426 728 q 345 749 381 728 q 290 806 310 771 q 271 881 271 842 q 293 952 271 921 q 351 1002 315 983 q 426 1021 386 1021 q 505 1004 468 1021 q 566 958 542 988 q 590 885 590 928 q 571 810 590 847 q 515 751 551 774 q 426 728 478 728 m 429 833 q 463 847 450 833 q 475 878 475 861 q 460 904 475 894 q 429 914 446 914 q 399 903 413 914 q 386 876 386 892 q 398 847 386 860 q 429 833 410 833 z "},"":{"ha":749,"x_min":44,"x_max":700,"o":"m 417 -340 q 334 -318 369 -337 q 269 -272 299 -299 q 264 -265 269 -272 q 253 -248 258 -258 q 250 -225 249 -237 q 265 -200 251 -212 q 294 -186 279 -187 q 319 -187 308 -185 q 331 -190 331 -190 q 370 -215 354 -204 q 404 -231 386 -225 q 434 -226 424 -232 q 448 -212 444 -221 q 451 -194 451 -204 q 434 -168 446 -179 q 407 -149 422 -157 q 389 -141 400 -147 q 367 -127 378 -135 q 353 -115 357 -119 q 344 -55 343 -87 q 349 -3 344 -22 q 352 8 349 -3 q 367 29 356 18 q 401 39 378 40 q 437 21 425 38 q 449 4 449 4 q 458 -26 451 -7 q 465 -67 464 -44 q 495 -83 478 -72 q 530 -112 513 -94 q 559 -151 547 -131 q 574 -196 571 -172 q 560 -283 579 -250 q 503 -328 540 -315 q 417 -340 465 -342 m 376 -12 q 193 35 263 -7 q 90 149 124 78 q 50 311 57 221 q 66 451 44 383 q 133 573 88 519 q 243 658 178 626 q 392 688 308 689 q 515 668 465 686 q 598 624 565 650 q 648 571 631 597 q 672 527 665 544 q 679 510 679 510 q 678 497 679 510 q 669 467 678 485 q 639 432 661 449 q 597 415 622 421 q 547 414 571 410 q 513 432 524 418 q 503 441 510 432 q 485 460 497 450 q 455 478 474 471 q 410 485 436 486 q 350 470 375 482 q 308 438 325 458 q 282 390 290 417 q 274 333 274 364 q 289 258 274 288 q 331 212 304 228 q 388 193 357 196 q 438 197 414 192 q 482 212 461 203 q 517 228 503 221 q 536 238 531 236 q 599 243 572 249 q 647 224 626 238 q 679 193 668 211 q 699 147 699 168 q 695 113 700 126 q 690 100 690 100 q 673 82 690 100 q 619 40 656 64 q 522 0 582 17 q 376 -12 463 -17 z "},"":{"ha":744,"x_min":49,"x_max":694,"o":"m 342 -15 q 192 40 250 3 q 104 126 135 76 q 63 231 74 175 q 50 343 51 288 q 74 476 49 411 q 147 592 100 542 q 261 672 194 643 q 408 694 328 700 q 544 663 490 689 q 630 598 599 636 q 675 516 661 560 q 689 432 689 472 q 655 313 690 365 q 536 240 619 260 q 484 233 514 235 q 422 232 454 232 q 357 233 389 232 q 300 237 325 235 q 260 240 275 239 q 244 242 244 242 q 264 199 249 222 q 309 158 279 175 q 388 142 339 142 q 478 146 440 143 q 541 152 517 149 q 576 158 565 156 q 588 160 588 160 q 597 160 588 160 q 623 159 607 161 q 655 148 639 157 q 682 121 671 139 q 693 85 694 100 q 685 58 692 69 q 670 42 678 47 q 663 36 663 36 q 633 24 663 36 q 558 -1 604 13 q 454 -19 511 -14 q 342 -15 397 -25 m 249 372 l 443 375 q 450 376 443 375 q 468 380 457 376 q 490 390 479 383 q 507 410 500 397 q 514 443 514 424 q 501 498 514 476 q 461 530 489 519 q 385 536 433 540 q 326 517 353 535 q 282 472 300 499 q 255 419 264 446 q 249 372 246 392 m 469 746 q 422 760 450 751 q 363 783 393 769 q 301 813 332 796 q 247 850 271 829 q 241 856 247 850 q 229 874 235 863 q 223 899 224 885 q 233 932 222 914 q 257 953 242 947 q 287 960 272 960 q 311 960 301 961 q 321 958 321 958 q 402 931 357 946 q 515 885 447 915 q 526 877 515 885 q 550 856 538 869 q 567 822 563 842 q 556 775 571 801 q 534 753 549 760 q 505 744 519 746 q 480 744 490 743 q 469 746 469 746 z "},"":{"ha":744,"x_min":49,"x_max":694,"o":"m 342 -15 q 192 40 250 3 q 104 126 135 76 q 63 231 74 175 q 50 343 51 288 q 74 476 49 411 q 147 592 100 542 q 261 672 194 643 q 408 694 328 700 q 544 663 490 689 q 630 598 599 636 q 675 516 661 560 q 689 432 689 472 q 655 313 690 365 q 536 240 619 260 q 484 233 514 235 q 422 232 454 232 q 357 233 389 232 q 300 237 325 235 q 260 240 275 239 q 244 242 244 242 q 264 199 249 222 q 309 158 279 175 q 388 142 339 142 q 478 146 440 143 q 541 152 517 149 q 576 158 565 156 q 588 160 588 160 q 597 160 588 160 q 623 159 607 161 q 655 148 639 157 q 682 121 671 139 q 693 85 694 100 q 685 58 692 69 q 670 42 678 47 q 663 36 663 36 q 633 24 663 36 q 558 -1 604 13 q 454 -19 511 -14 q 342 -15 397 -25 m 249 372 l 443 375 q 450 376 443 375 q 468 380 457 376 q 490 390 479 383 q 507 410 500 397 q 514 443 514 424 q 501 498 514 476 q 461 530 489 519 q 385 536 433 540 q 326 517 353 535 q 282 472 300 499 q 255 419 264 446 q 249 372 246 392 m 317 739 q 306 738 317 739 q 281 738 296 738 q 252 746 267 739 q 229 768 238 753 q 221 815 217 794 q 237 849 225 835 q 260 870 249 863 q 272 878 272 878 q 385 925 340 910 q 465 951 429 940 q 476 953 465 951 q 501 953 486 954 q 530 947 515 953 q 554 925 544 940 q 563 893 564 908 q 557 867 563 878 q 545 851 551 857 q 539 844 539 844 q 485 806 515 824 q 424 776 454 789 q 365 754 393 764 q 317 739 336 744 z "},"":{"ha":744,"x_min":49,"x_max":694,"o":"m 342 -15 q 192 40 250 3 q 104 126 135 76 q 63 231 74 175 q 50 343 51 288 q 74 476 49 411 q 147 592 100 542 q 261 672 194 643 q 408 694 328 700 q 544 663 490 689 q 630 598 599 636 q 675 516 661 560 q 689 432 689 472 q 655 313 690 365 q 536 240 619 260 q 484 233 514 235 q 422 232 454 232 q 357 233 389 232 q 300 237 325 235 q 260 240 275 239 q 244 242 244 242 q 264 199 249 222 q 309 158 279 175 q 388 142 339 142 q 478 146 440 143 q 541 152 517 149 q 576 158 565 156 q 588 160 588 160 q 597 160 588 160 q 623 159 607 161 q 655 148 639 157 q 682 121 671 139 q 693 85 694 100 q 685 58 692 69 q 670 42 678 47 q 663 36 663 36 q 633 24 663 36 q 558 -1 604 13 q 454 -19 511 -14 q 342 -15 397 -25 m 249 372 l 443 375 q 450 376 443 375 q 468 380 457 376 q 490 390 479 383 q 507 410 500 397 q 514 443 514 424 q 501 498 514 476 q 461 530 489 519 q 385 536 433 540 q 326 517 353 535 q 282 472 300 499 q 255 419 264 446 q 249 372 246 392 m 225 753 q 199 782 206 768 q 192 808 192 796 q 195 828 192 821 q 199 835 199 835 q 233 879 217 860 q 272 917 250 899 q 322 957 293 935 q 357 972 335 968 q 404 973 379 976 q 450 953 429 969 l 569 874 q 578 865 569 874 q 594 841 586 856 q 599 808 601 826 q 576 771 597 790 q 544 754 561 757 q 511 754 526 751 q 486 760 496 757 q 476 764 476 764 l 399 825 q 354 791 378 811 q 306 746 331 771 q 294 742 306 746 q 263 739 282 739 q 225 753 244 739 z "},"":{"ha":744,"x_min":49,"x_max":694,"o":"m 342 -15 q 192 40 250 3 q 104 126 135 76 q 63 231 74 175 q 50 343 51 288 q 74 476 49 411 q 147 592 100 542 q 261 672 194 643 q 408 694 328 700 q 544 663 490 689 q 630 598 599 636 q 675 516 661 560 q 689 432 689 472 q 655 313 690 365 q 536 240 619 260 q 484 233 514 235 q 422 232 454 232 q 357 233 389 232 q 300 237 325 235 q 260 240 275 239 q 244 242 244 242 q 264 199 249 222 q 309 158 279 175 q 388 142 339 142 q 478 146 440 143 q 541 152 517 149 q 576 158 565 156 q 588 160 588 160 q 597 160 588 160 q 623 159 607 161 q 655 148 639 157 q 682 121 671 139 q 693 85 694 100 q 685 58 692 69 q 670 42 678 47 q 663 36 663 36 q 633 24 663 36 q 558 -1 604 13 q 454 -19 511 -14 q 342 -15 397 -25 m 249 372 l 443 375 q 450 376 443 375 q 468 380 457 376 q 490 390 479 383 q 507 410 500 397 q 514 443 514 424 q 501 498 514 476 q 461 530 489 519 q 385 536 433 540 q 326 517 353 535 q 282 472 300 499 q 255 419 264 446 q 249 372 246 392 m 540 740 q 481 753 508 740 q 438 789 454 767 q 422 839 422 811 q 438 890 422 867 q 481 926 454 913 q 540 940 507 940 q 599 926 572 940 q 641 890 625 913 q 657 839 657 867 q 623 763 657 785 q 540 740 589 740 m 246 740 q 187 753 214 740 q 144 789 160 767 q 129 839 129 811 q 144 890 129 867 q 186 926 160 913 q 246 940 213 940 q 306 926 279 940 q 348 890 332 913 q 364 839 364 867 q 348 781 364 803 q 306 750 332 760 q 246 740 279 740 z "},"":{"ha":319,"x_min":-3,"x_max":346,"o":"m 171 1 q 120 16 140 4 q 88 43 100 28 q 70 70 75 58 q 65 82 65 82 q 53 220 57 157 q 50 343 50 283 q 53 470 50 403 q 64 622 57 538 q 67 633 64 622 q 78 659 69 644 q 108 684 88 674 q 163 693 129 694 q 222 678 200 693 q 253 644 243 663 q 267 611 264 625 q 271 597 271 597 q 263 469 265 529 q 261 351 261 410 q 263 226 261 292 q 269 81 265 160 q 267 68 269 81 q 256 39 265 56 q 227 11 247 22 q 171 1 207 0 m 244 746 q 197 760 225 751 q 138 783 168 769 q 76 813 107 796 q 22 850 46 829 q 16 856 22 850 q 4 874 10 863 q -2 899 -1 885 q 8 932 -3 914 q 32 953 17 947 q 62 960 47 960 q 86 960 76 961 q 96 958 96 958 q 177 931 132 946 q 290 885 222 915 q 301 877 290 885 q 325 856 313 869 q 342 822 338 842 q 331 775 346 801 q 309 753 324 760 q 280 744 294 746 q 255 744 265 743 q 244 746 244 746 z "},"":{"ha":319,"x_min":-7,"x_max":340,"o":"m 171 1 q 120 16 140 4 q 88 43 100 28 q 70 70 75 58 q 65 82 65 82 q 53 220 57 157 q 50 343 50 283 q 53 470 50 403 q 64 622 57 538 q 67 633 64 622 q 78 659 69 644 q 108 684 88 674 q 163 693 129 694 q 222 678 200 693 q 253 644 243 663 q 267 611 264 625 q 271 597 271 597 q 263 469 265 529 q 261 351 261 410 q 263 226 261 292 q 269 81 265 160 q 267 68 269 81 q 256 39 265 56 q 227 11 247 22 q 171 1 207 0 m 93 739 q 83 738 93 739 q 58 738 72 738 q 28 746 43 739 q 6 768 14 753 q -3 815 -7 794 q 13 849 1 835 q 37 870 25 863 q 49 878 49 878 q 161 925 117 910 q 242 951 206 940 q 252 953 242 951 q 277 953 263 954 q 306 947 292 953 q 331 925 321 940 q 340 893 340 908 q 333 867 339 878 q 322 851 328 857 q 315 844 315 844 q 261 806 292 824 q 200 776 231 789 q 141 754 169 764 q 93 739 113 744 z "},"":{"ha":319,"x_min":-33,"x_max":376,"o":"m 171 1 q 120 16 140 4 q 88 43 100 28 q 70 70 75 58 q 65 82 65 82 q 53 220 57 157 q 50 343 50 283 q 53 470 50 403 q 64 622 57 538 q 67 633 64 622 q 78 659 69 644 q 108 684 88 674 q 163 693 129 694 q 222 678 200 693 q 253 644 243 663 q 267 611 264 625 q 271 597 271 597 q 263 469 265 529 q 261 351 261 410 q 263 226 261 292 q 269 81 265 160 q 267 68 269 81 q 256 39 265 56 q 227 11 247 22 q 171 1 207 0 m 0 753 q -26 782 -19 768 q -33 808 -33 796 q -30 828 -33 821 q -26 835 -26 835 q 8 879 -8 860 q 47 917 25 899 q 97 957 68 935 q 132 972 110 968 q 179 973 154 976 q 225 953 204 969 l 344 874 q 353 865 344 874 q 369 841 361 856 q 374 808 376 826 q 351 771 372 790 q 319 754 336 757 q 286 754 301 751 q 261 760 271 757 q 251 764 251 764 l 174 825 q 129 791 153 811 q 81 746 106 771 q 69 742 81 746 q 38 739 57 739 q 0 753 19 739 z "},"":{"ha":319,"x_min":-94,"x_max":432,"o":"m 171 1 q 120 16 140 4 q 88 43 100 28 q 70 70 75 58 q 65 82 65 82 q 53 220 57 157 q 50 343 50 283 q 53 470 50 403 q 64 622 57 538 q 67 633 64 622 q 78 659 69 644 q 108 684 88 674 q 163 693 129 694 q 222 678 200 693 q 253 644 243 663 q 267 611 264 625 q 271 597 271 597 q 263 469 265 529 q 261 351 261 410 q 263 226 261 292 q 269 81 265 160 q 267 68 269 81 q 256 39 265 56 q 227 11 247 22 q 171 1 207 0 m 317 740 q 258 753 285 740 q 215 789 231 767 q 199 839 199 811 q 215 890 199 867 q 257 926 231 913 q 317 940 283 940 q 375 926 349 940 q 417 890 401 913 q 433 839 433 867 q 399 763 433 785 q 317 740 365 740 m 22 740 q -37 753 -10 740 q -79 789 -64 767 q -94 839 -94 811 q -79 890 -94 867 q -37 926 -64 913 q 22 940 -11 940 q 82 926 56 940 q 124 890 108 913 q 140 839 140 867 q 124 781 140 803 q 82 750 108 760 q 22 740 56 740 z "}}}
